<?xml version="1.0" standalone="no"?>
<!DOCTYPE svg PUBLIC "-//W3C//DTD SVG 1.1//EN" "http://www.w3.org/Graphics/SVG/1.1/DTD/svg11.dtd" >
<svg xmlns="http://www.w3.org/2000/svg" xmlns:xlink="http://www.w3.org/1999/xlink" version="1.1">
<metadata></metadata>
<defs>
<font id="akronimregular" horiz-adv-x="897" >
<font-face units-per-em="2048" ascent="1638" descent="-410" />
<missing-glyph horiz-adv-x="411" />
<glyph horiz-adv-x="0" />
<glyph unicode="&#xd;" horiz-adv-x="411" />
<glyph unicode=" "  horiz-adv-x="411" />
<glyph unicode="&#x09;" horiz-adv-x="411" />
<glyph unicode="&#xa0;" horiz-adv-x="411" />
<glyph unicode="!" horiz-adv-x="581" d="M471 1102q-29 -78 -66.5 -159t-78.5 -152q-2 -2 -9.5 -10.5t-11.5 -8.5q-6 2 -5 13.5t1 13.5q6 39 19.5 97t29.5 95q6 12 20.5 64.5t28 116t19.5 122t-6 86.5q-2 4 2 9q2 2 2 4q4 0 14 -11q23 -25 36 -61.5t17 -75.5t0 -77.5t-12 -65.5zM461 776q-23 -70 -57.5 -138.5 t-63.5 -121.5q-4 -10 -8 -13t-6 -3q-6 2 -6.5 7t-0.5 15q12 111 48 216.5t79 215.5q27 66 48.5 135.5t23.5 153.5q0 10 6 10q4 0 8 -10q23 -41 20 -105.5t-19.5 -132t-38 -130t-33.5 -99.5zM270 387q6 -10 2 -12t-8 2q-53 61 -79.5 121.5t-33 121t4 119t28.5 113.5 q25 78 56.5 153.5t58.5 147.5t44 141.5t13 137.5q0 4 2 4q4 0 9 -11q29 -72 20.5 -146.5t-33 -151t-58.5 -154.5t-58 -154q-31 -98 -29 -210.5t61 -221.5zM295 479q4 -29 11 -52.5t20 -49.5q4 -10 0 -10t-13 4q-27 23 -39 46t-22 68q-4 18 -4 44t3 48.5t8 39t11 14.5 q6 -4 9.5 -27.5t3.5 -32.5q4 -25 6 -47t6 -45zM211 246q10 0 30.5 -1t22.5 -18q0 -6 -17.5 -15t-39 -24.5t-38.5 -41t-15 -64.5q2 -23 5 -44.5t13 -31.5q4 -6 9 -11t3 -7q-4 0 -8 3t-8 3q-41 16 -59.5 47t-20.5 59q-2 59 25.5 101.5t97.5 44.5zM289 174q10 4 16 4t6 -12 q2 -16 -9 -30.5t-22.5 -32t-14.5 -38t14 -51.5q4 -8 14 -19t6 -9q-4 -4 -16.5 1t-16.5 5q-35 14 -53 40.5t-18 51.5q-2 35 29.5 59.5t64.5 30.5zM348 76q0 -8 -5 -20.5t-17 -12.5q-10 -2 -17.5 11.5t-7.5 21.5t6 20.5t17 12.5q12 0 18 -11.5t6 -21.5z" />
<glyph unicode="&#x22;" horiz-adv-x="729" d="M158 834q0 -16 -7.5 -32t-15.5 -26q0 -8 -8 -8q-6 0 -6 8q-10 16 -9 28.5t3 29.5q4 12 6 23t10 24q0 6 12 6q10 -2 14.5 -24.5t0.5 -28.5zM317 987q-10 -63 -39.5 -115.5t-103.5 -99.5q0 -4 -8 -4q-4 0 -2 2t2 6q35 49 54.5 103.5t29.5 107.5q14 90 12 181.5t8 181.5v4 q0 4 2 4q8 0 9 -8q41 -92 45.5 -184.5t-9.5 -178.5zM90 864q0 -2 -1 -7t-7 -5l-12 18q-29 41 -34 82t3 84q4 20 11 53t17.5 67t26 64.5t37.5 47.5l2 2q2 0 3 1t3 1q4 0 4 -6q-4 -39 -10 -78t-10 -76q-10 -61 -16.5 -123t-16.5 -125zM166 1026q-10 47 -10 83t6 79 q4 31 18.5 74t44.5 67l2 2q2 0 3 1t6 1v-2q0 -2 2 -4q2 -16 1 -51t-4.5 -72t-6.5 -66.5t-3 -37.5q-4 -23 -12 -41.5t-18 -36.5q0 -4 -6.5 -9t-12.5 -5q-6 2 -7 8t-3 10zM537 840q0 -20 -8.5 -32.5t-18.5 -27.5q0 -8 -4 -8q-10 0 -10 8q-8 14 -7.5 28.5t5.5 31.5q2 10 3 22 t11 23q0 8 10 8q6 -2 10 -10.5t6.5 -17.5t2.5 -16v-9zM692 991q-10 -63 -37.5 -115.5t-103.5 -99.5q0 -4 -10 -4v8q37 47 57 101.5t31 109.5q14 92 10 182.5t6 178.5v4q0 4 6 4q8 0 2 -8q45 -92 50 -182.5t-11 -178.5zM465 872q0 -16 -8 -10q-2 0 -6 4q-2 2 -5 6 q-23 45 -29.5 85t-0.5 81q4 23 10 56.5t17.5 67.5t26.5 63.5t38 46.5l2 2q2 0 2 1t4 1q2 0 2 -8q-2 -37 -7 -75t-11 -79q-10 -59 -17.5 -120t-17.5 -122zM541 1030q-10 47 -10.5 82t8.5 80q4 33 18 74t43 67q2 0 4 2q2 0 4 1t4 1v-2v-6q2 -16 2 -50t-3 -71t-6 -67.5 t-5 -38.5q-2 -18 -11 -39t-20 -37q-2 0 -6 -8t-10 -8q-4 4 -6 10t-6 10z" />
<glyph unicode="#" horiz-adv-x="1165" d="M1212 987q0 -2 -3 -6t-5 -8q-23 -29 -56.5 -50.5t-72.5 -36t-78 -20.5t-69 -4q-86 4 -180.5 17.5t-180.5 35.5q-6 0 -18 5.5t-12 11.5q0 4 12 7t18 3q41 4 104.5 5t104.5 -1q14 -4 72.5 -4t127 3t132 13.5t90.5 28.5q4 4 9 4t5 -4zM1241 1053q0 -6 -10 -13 q-66 -49 -145.5 -61t-165.5 -8t-176.5 17t-176.5 16q-111 4 -228.5 -31t-209.5 -115q-8 -6 -11 -5t3 11q66 86 141.5 131t161.5 60q23 68 37 134t14 130q2 2 1 6t1 2q4 2 6 -3t2 -7q18 -61 18.5 -126t-16.5 -130q10 2 16.5 2h12.5q12 63 17.5 118.5t-1.5 84.5q-2 2 -2 10 q0 2 2 4q4 0 8.5 -4t6.5 -8q27 -37 39 -93.5t8 -111.5q23 0 33 -2l4 41q0 10 6 12q2 -2 2 -5t4 -9q4 -10 6 -19.5t4 -19.5q45 -4 87 -8t87 -9q53 143 76 283q0 10 6 10q4 0 6.5 -6t2.5 -10q12 -70 3.5 -140.5t-28.5 -142.5h-4q10 0 16 -1t15 -1q16 66 27 131.5t7 98.5 q0 10 7 10q6 0 10 -10q23 -43 26.5 -108.5t-4.5 -127.5h33l10 47q2 16 7.5 11t9.5 -9q4 -8 3 -22.5t-1 -26.5q49 0 92 5t84 18q4 0 5 2t5 -2zM1100 485q0 -8 -8 -16q-20 -29 -54 -50.5t-72 -35.5t-77 -21.5t-70 -7.5q-86 4 -178 18.5t-178 35.5q-6 0 -17.5 5t-11.5 11 q0 2 11.5 6t17.5 4q20 2 47 4t56.5 2h57t50.5 -2q14 -2 69.5 -2t123 4t129 15.5t87.5 29.5q17 4 17 0zM381 926q0 -8 -23.5 -17.5t-31.5 -13.5q-23 -8 -45.5 -17.5t-44.5 -19.5q-29 -14 -52.5 -23.5t-46.5 -31.5q-10 -8 -12 -8t-2 4t3 10t3 8q10 20 33.5 44t64.5 42 q18 8 44 15.5t50.5 11.5t42 4t17.5 -8zM805 532q12 -2 25.5 -2t25.5 -2q14 43 31.5 87t36.5 92l30 79q-18 -6 -34 -6q-27 -63 -56.5 -127t-58.5 -121zM707 541q16 -2 31.5 -2t29.5 -2q10 53 28.5 114.5t34.5 104.5q0 4 5 16h-41q-23 -57 -47.5 -115.5t-40.5 -115.5zM553 555 q23 -2 45.5 -2t44.5 -2l4 12q16 53 35.5 105.5t38.5 105.5q-29 0 -54.5 1t-45.5 1q-20 -66 -38 -123t-30 -98zM416 555q14 4 28.5 4h30.5q16 47 34.5 93t35.5 98l10 32h-17.5t-19.5 4q-45 -118 -102 -231zM248 522q6 23 13 46.5t13 45.5q16 51 34 101.5t34 101.5 q-14 2 -28.5 5t-26.5 5q-23 0 -23 7q0 6 6 7t17 3q117 23 235.5 16.5t241.5 -18.5q74 -6 153.5 -8.5t161.5 16.5q20 4 12 -3t-12 -11q-12 -10 -25.5 -17.5t-31.5 -15.5q-23 -78 -47.5 -151.5l-42.5 -127.5q51 0 98 5.5t90 21.5h4q4 -4 1 -7l-5 -5q-68 -49 -146.5 -62.5 t-163.5 -9.5t-173 16.5t-174 12.5q-111 0 -225.5 -36t-200.5 -128l-8 -8v10q41 74 97 119.5t122 68.5zM408 803q-23 -57 -43.5 -115.5t-36.5 -116.5q-2 -6 -3 -13t-6 -13q16 2 34 5t34 5v4q4 23 11.5 54.5t14.5 63.5t16 62.5t17 51.5v6q-10 2 -19 2t-19 4zM279 412 q2 -4 -5.5 -8.5t-16.5 -9.5t-18.5 -8t-11.5 -5q-23 -12 -44 -21.5t-44 -19.5q-25 -16 -47 -33.5t-45 -36.5q-2 -4 -8 -6t-2 2v17q0 4 2 6q20 29 35.5 50t60.5 46q14 8 39 15.5t47.5 12.5t40 5t17.5 -6zM340 51q-49 59 -74.5 122t-32.5 130q-25 0 -38 6q-10 2 -18.5 3t-8.5 7 q-2 4 7 5.5t20 1.5q115 27 228.5 25.5t235.5 -11.5q76 -8 153 -13t161 19q10 0 10 -4q0 2 -10 -8q-20 -23 -54 -35t-75 -18q-16 -41 -30.5 -78t-31.5 -66q-12 -23 -18 -22q-8 6 0 28q6 31 9 64t13 65q-16 -2 -26 -2h-27q0 -12 -1 -34.5t-2 -49t-1 -52t4 -44.5 q8 -39 11.5 -67.5t19.5 -51.5q2 -2 2 -8t-2 -6q-4 2 -7 5t-7 5t-7 4q-23 20 -39 40t-20 79q0 18 1 44t4 51.5t7 49t11 35.5h-56q-4 -82 6.5 -158.5t42.5 -131.5q4 -8 5 -13v-4q-4 0 -6.5 5t-6.5 9q-53 59 -76.5 134t-21.5 161q-33 2 -59.5 4.5t-49.5 2.5h-17t-19 2 q-8 -16 -15.5 -32t-11.5 -30q-12 -23 -19 -20q-4 0 -3 9t1 19q0 12 1 26.5t1 29.5q-10 0 -20 2t-21 2q0 -27 4.5 -55.5t6.5 -57.5q12 -68 39 -123q8 -16 -3.5 -14t-15.5 8q-27 29 -41 53.5t-24 77.5q-4 23 -2 53.5t6 59.5q-10 2 -21.5 2t-21.5 4q2 -63 14 -124.5t45 -117.5 q6 -8 0 -7t-8 5z" />
<glyph unicode="$" horiz-adv-x="788" d="M33 96q-8 -4 -15.5 -5t-7.5 1q-2 4 13 12q29 12 63.5 25.5t71.5 24.5q8 78 21.5 159.5t35.5 161.5l55 193l-34 51q-29 41 -56.5 81t-52.5 95q-23 49 -30 123t30 137q37 66 84 101.5t97 54t98.5 24.5t89.5 13q31 96 43 192q0 10 6 14q2 2 4 -6t2 -10q8 -61 0 -124.5 t-25.5 -130t-40 -135.5t-43.5 -140q-43 -147 -90 -292t-82 -292q-23 -92 -41 -188.5t-26 -191.5t-2 -185t35 -170q4 -20 2 -21q-8 0 -11 8q-53 80 -70.5 179.5t-11.5 187.5q-55 -10 -106 -12q-4 0 -13.5 1t-9.5 5q0 8 7 12l8 4q29 12 54.5 22.5t64.5 20.5v13q0 6 2 10 q-33 -4 -62.5 -10.5t-56.5 -12.5zM735 1262l-69 -17q6 -37 -3.5 -109.5t-24.5 -150.5t-30.5 -146.5t-23.5 -95.5q33 -35 58.5 -68.5t45.5 -62.5q27 -35 49.5 -88t29.5 -113.5t-3 -122t-49 -112.5q-41 -53 -87 -83t-92.5 -44t-88 -16t-74.5 -2q-10 -23 -22.5 -51.5 t-22.5 -51.5q-6 -14 -12.5 -23t-6.5 -7q-6 0 -5 13t5 26q35 184 85 377.5t112 396.5q14 51 39.5 126.5t48 156.5t40 156t17.5 124q23 0 39.5 3t32.5 3q33 0 33 -6q2 -4 -6.5 -8t-14.5 -4zM399 96l-18 -43q61 10 124.5 31.5t117.5 69.5q55 61 73.5 133.5t-4.5 146.5 q-20 68 -56 120t-75 99l-14 -59q16 -23 29.5 -46.5t23.5 -45.5q4 -8 12.5 -32t1.5 -28q-2 0 -17 19.5t-19 30.5l-48 53l-20 -74l12 -14q23 -37 32 -76t2 -75t-32.5 -65.5t-74.5 -50.5q-6 -2 -11.5 -4t-11.5 -4l-14 -45q51 16 89 27.5t40 9.5q6 -4 -14.5 -16.5t-49.5 -26.5 q-33 -17 -78 -35zM553 985q-43 -137 -94 -292.5t-105 -293.5q-4 -4 -13 -24.5t-13 -20.5q-4 2 -2 22.5t6 31.5q6 33 16 80t22.5 96t24 95t17.5 81q4 16 18 66.5t33.5 119t42 146t41 150.5t31 132.5t12.5 89.5v19.5t2 9.5q4 0 6 -8t6 -12q18 -45 18.5 -109t-11 -132.5 t-28 -133t-30.5 -113.5zM174 1100q-12 -57 -5 -106.5t27.5 -91.5t47 -79t51.5 -71q4 16 10 34q4 10 6 23q-8 8 -20 26.5t-25.5 39t-24 39t-16.5 28.5q-12 23 -19 55.5t-4 67.5t19.5 68.5t48.5 58.5q47 35 98.5 49t100.5 25l8 22q-39 -6 -84 -16t-87 -30.5t-77 -54.5t-55 -87 zM272 -143q0 -94 25 -168q6 -16 0 -21q-4 -2 -11 4t-12 11q-12 18 -20 32.5t-14.5 33t-9.5 44t-3 64.5q0 31 5.5 71.5t11.5 77.5t14 62.5t14 23.5q2 0 4.5 -13t2.5 -29.5v-31v-18.5q-4 -33 -5.5 -69.5t-1.5 -73.5zM281 1075q-12 -35 4 -84t51 -106l12 39q-51 86 -38.5 136 t114.5 85q4 8 7 17t7 20q-59 -20 -102 -46t-55 -61zM817 1317l-166 -10q0 10 -2 19t-2 17q43 -2 85 -5t87 -11q23 -4 20.5 -6t-22.5 -4zM500 332q0 16 -3 27.5t-10 25.5q-8 -33 -16 -63.5t-18 -63.5q31 18 37 34.5t10 39.5zM377 1008l12 39l19 53q-35 -23 -43 -39t12 -53z " />
<glyph unicode="%" horiz-adv-x="1366" d="M465 1188q6 -2 15 -16.5t20.5 -30t21.5 -28.5t17 -13q2 0 2 8v12q-2 27 -18.5 56.5t-39.5 52.5q-27 29 -72.5 40t-74.5 -16q-4 -2 -8 -5t-2 -5q4 -4 12 -5t10 -1q35 4 64.5 -9t52.5 -40zM348 887q-6 -16 -18.5 -32.5t-27.5 -29t-30.5 -20.5t-27.5 -8q-16 0 -30.5 20.5 t-20 52t2 70.5t33.5 76q10 4 4 10l-12 -8q-33 -23 -49 -64t-18 -84t9 -78.5t34 -48.5q23 -12 53.5 -8t62 21.5t59 47.5t44.5 68q20 45 32.5 99.5t9.5 104.5t-24.5 87t-68.5 49q-2 0 -6.5 -1t-2.5 -5l9 -8q29 -29 37 -63.5t2.5 -74.5t-22 -84t-34.5 -89zM555 1184 q33 -82 36 -168t-21.5 -163t-77 -139.5t-127.5 -99.5q-66 -31 -125.5 -27.5t-104.5 35t-73.5 88t-30.5 134.5q0 4 -1 11t-5 7q-2 0 -3.5 -5t-1.5 -7q-10 -29 -13 -69t7 -97q6 -29 29 -64.5t70 -58.5q68 -35 138.5 -34t135 29t117.5 77t88 112q27 51 43 108.5t16 117 t-19.5 118t-62.5 107.5q0 2 -12 14.5t-16 8.5q-2 -4 4 -14.5t10 -20.5zM465 782q4 4 8 20.5t-2 18.5l-12 -12q-6 -6 -13 -10q-35 -31 -69.5 -56.5t-73.5 -37.5q-4 -2 -25.5 -9.5t-48 -7.5t-52 11.5t-38.5 45.5q-12 37 -13 75t3 72t13.5 61.5t17.5 41.5q2 8 6 13l2 2 q-2 4 -8 1t-10 -7q-31 -23 -51.5 -68t-25.5 -97.5t8 -101.5t50 -78q47 -37 98.5 -37.5t97.5 20t83 59t55 81.5zM895 782q-86 -117 -183.5 -239.5t-189.5 -231.5l-21.5 -21.5t-21.5 -8.5q-2 0 7.5 20.5t13.5 24.5q14 31 37.5 70.5t50 81.5t53.5 81t47 68q8 12 36 53 t64.5 98.5t76.5 125t76 131t60.5 116.5t30.5 84l4 8l4 8t4 6q4 0 6.5 -8t2.5 -12q4 -47 -8.5 -107.5t-36 -124t-53 -122t-60.5 -101.5zM653 270q-72 -106 -155.5 -201.5t-149.5 -179.5q-10 -10 -17 -19t-7 -3q-8 0 -2 12t12 25q80 160 193.5 320.5t232.5 322.5 q74 100 149.5 208.5t134.5 239.5q4 10 5.5 12.5t7.5 2.5v-19q-4 -47 -28.5 -108.5t-60.5 -129t-80 -137t-88 -134t-83 -120t-64 -92.5zM188 -311q0 -23 -4 -21q-4 0 -6 4t2 6q-23 94 -10.5 189.5t47.5 190t87 186.5t112 182q82 123 169 238.5t166.5 226t147.5 218.5t111 212 q4 4 4 8t4 0q4 4 2 -3t2 -9q-23 -123 -85.5 -241t-144 -236.5t-174 -236.5t-172.5 -241q-51 -78 -97 -160.5t-82 -169.5t-57.5 -174t-21.5 -169zM281 -164q-12 -41 -20.5 -85t-10.5 -85q0 -4 -3 -12t-5 -6q-10 6 -13 12q-2 4 -2 8q-10 39 -11 74t17 106q8 29 24.5 67 t35 69.5t34 52t21.5 16.5q2 0 0 -8t-6 -20.5t-9 -24.5t-7 -18q-31 -74 -45 -146zM1165 627q4 -2 13.5 -16.5t20.5 -30t21.5 -28.5t16.5 -13q4 0 4 8v12q-4 27 -20.5 56.5t-38.5 52.5q-27 29 -73 40t-73 -16q-4 -2 -9 -5t-3 -5q4 -4 12 -5t11 -1q69 8 118 -49zM1047 326 q-6 -16 -18.5 -33t-28 -29t-31 -20t-27.5 -8q-16 0 -30.5 20t-19.5 52t2 71t34 76q10 6 4 10l-12 -8q-33 -23 -49.5 -64t-18.5 -84t9 -78.5t34 -48.5q23 -12 53.5 -8t62 21.5t59.5 47t44 68.5q20 45 32.5 99.5t9.5 104.5t-24.5 87t-68.5 49q-2 0 -6 -1t-2 -5l8 -8 q31 -29 39 -63.5t2 -74.5t-22.5 -84t-34.5 -89zM1253 623q33 -82 36 -169t-21.5 -166t-76.5 -140.5t-128 -94.5q-66 -27 -125 -23.5t-104.5 34t-74 86t-30.5 133.5q0 4 -1 11t-5 7q-2 0 -3 -5t-1 -7q-10 -29 -16.5 -69t10.5 -97q8 -29 29.5 -66t68.5 -57q68 -29 138.5 -27 t135 28t117.5 73t88 110q27 51 43.5 108.5t16.5 117t-19.5 118t-62.5 107.5q0 2 -12.5 14.5t-14.5 7.5q-4 -4 2 -14t10 -20zM1165 221q2 4 6.5 20.5t-2.5 18.5l-12 -12q-6 -6 -12 -10q-35 -31 -70 -56.5t-74 -38.5q-4 -2 -25.5 -9t-47 -7t-51 11.5t-37.5 45.5 q-12 37 -14.5 75t3 72t13.5 61.5t16 41.5q2 8 6 12l2 3q-2 4 -8 0.5t-10 -7.5q-31 -23 -51.5 -67.5t-25.5 -97t8.5 -101.5t51.5 -78q45 -37 96.5 -38t97.5 19.5t84 59.5t56 82z" />
<glyph unicode="&#x26;" horiz-adv-x="968" d="M864 158q-4 -4 -10 4t-10 14q-72 129 -108 277.5t-70 298.5q-23 96 -47.5 194t-77.5 197q-6 12 0 16q4 2 6 -1t8 -7q33 -23 61.5 -70t53.5 -104l22 27q35 41 65.5 83.5t63.5 86.5q4 4 10.5 12t8.5 4q2 -8 2 -19q0 -4 -2 -6q-16 -35 -40 -80t-85 -116l-31 -35 q4 -6 7 -13.5l7 -17.5q47 61 89 118.5t77 111.5q4 4 6 7t4 7t5 6q12 -4 6 -14q-31 -76 -75 -146.5t-95 -142.5q23 -80 42 -158t31 -125l3 -12q16 27 31.5 51.5t27.5 50.5q4 4 6 7.5t6 3.5q2 4 1 -5.5t-1 -11.5q-10 -35 -25.5 -69.5t-33.5 -71.5q4 -8 6 -17.5t4 -17.5 q16 29 31.5 54.5t21.5 41.5q2 4 4 8.5t4 8.5t5 6q6 0 6 -7v-16q0 -33 -14.5 -77.5t-43.5 -92.5q10 -59 20.5 -114.5t16.5 -102.5q2 -8 2 -17t-2 -9zM659 438q-2 0 -9 14.5t-7 18.5q-12 20 -25.5 54t-25.5 70t-21.5 70.5t-15.5 61.5q-4 18 -23.5 89t-47 155t-60.5 157.5 t-62 98.5q-4 4 -2 8t2 8t6.5 0t10.5 -6q35 -12 68.5 -45t62.5 -75t50.5 -87t31.5 -84q29 -109 46 -230.5t28 -232.5q2 -4 0.5 -23.5t-7.5 -21.5zM961 10q-6 -2 -17 -2h-6q-39 8 -65.5 18.5t-59.5 55.5q-16 14 -33.5 42t-32 54.5t-21.5 47t1 24.5q2 2 10 -3t16.5 -14.5 t15.5 -19.5t11 -14q16 -25 36 -46.5t36 -39.5q27 -27 48.5 -49.5t53.5 -38.5q15 -7 7 -15zM483 553q-37 -45 -67.5 -88t-53.5 -84q-37 -59 -45 -105.5t-4 -46.5q0 -6 13.5 -10t37 -3t53 9t60.5 27q23 12 40.5 23.5t37.5 27.5q-14 35 -24.5 69t-20.5 68q-8 29 -15.5 56.5 t-11.5 56.5zM674 109q-57 -49 -141 -82t-197 -54q-66 -12 -122 -2.5t-96 38t-61.5 75.5t-19.5 111q2 100 27.5 165.5t48.5 108.5q57 109 141 200t168 162q-25 117 -65 214.5t-74 189.5q-2 8 0 10q4 6 15 1t15 -9q57 -68 95 -161t67 -197.5t52.5 -217t54.5 -221.5 q18 -68 47.5 -136t68.5 -128.5t88.5 -106.5t108.5 -69h14h-12q-72 0 -127 31t-96 78zM631 166q-23 -23 -49.5 -39t-51.5 -31q-37 -23 -91 -38t-109.5 -17t-103.5 15.5t-72 62.5q-25 45 -23 92t19.5 92t45 87t52.5 75q10 10 25.5 29.5t23.5 15.5q0 -2 -10.5 -24.5 t-16.5 -30.5q-70 -109 -73.5 -191t43.5 -121t137 -23.5t207 101.5l8 6q-6 8 -10 23q-23 -18 -48.5 -33.5t-54.5 -32.5q-35 -18 -70.5 -26t-67.5 -8t-54.5 9t-30.5 29q-18 45 5.5 113t66.5 133q29 47 62.5 96.5t74.5 96.5q-8 37 -16.5 75.5t-14.5 73.5q-68 -74 -141.5 -164 t-123.5 -186t-62.5 -191.5t45.5 -175.5q33 -29 78.5 -40t97 -9t102.5 16.5t92 34.5q35 16 64.5 38t60.5 44q-6 4 -9 10.5t-7 12.5z" />
<glyph unicode="'" horiz-adv-x="401" d="M180 963q-4 -16 -12 -28.5t-16 -23.5q0 -8 -9 -8q-6 0 -6 8q-6 16 -6 27.5v26.5q4 10 7 22t14 23l2 2q4 4 6 4q16 -4 18 -26.5t2 -26.5zM332 1102q-10 -59 -36 -106.5t-101 -92.5h-13v2v2q35 47 57.5 97.5t30.5 97.5q16 88 14.5 174t10.5 170v4q0 4 2 4l2 -2q0 -2 1 -3 t1 -3q41 -90 44 -175t-13 -169zM109 995q-2 -2 -3.5 -6t-7.5 -2q-4 0 -6 6q-2 2 -2 6q-29 41 -33 81t2 75q4 20 11.5 52t18.5 65t26.5 61.5t36.5 44.5h10q4 0 4 -4v-2q-4 -39 -10 -73.5t-13 -71.5q-10 -57 -17 -116t-17 -116zM184 1145q-10 45 -10 78.5t10 74.5 q6 29 18.5 69t45.5 58q0 8 8 9q2 -2 2 -9q4 -16 3 -49t-4 -66.5t-6 -61t-3 -34.5q-4 -20 -14.5 -39.5t-22.5 -35.5q-2 -4 -4 -6q-4 -4 -10 -5q-4 2 -6.5 8.5t-6.5 8.5z" />
<glyph unicode="(" horiz-adv-x="536" d="M317 23q16 -25 26.5 -61t27.5 -79q0 -2 3 -13t-1 -13q-2 0 -6.5 4t-8.5 6q-23 33 -45 67.5t-32 65.5q-14 25 -26.5 58.5t-16.5 68.5v11t6 7q6 2 16 -14t22.5 -37.5t21.5 -42t13 -28.5zM336 508q4 -82 12 -155.5t17.5 -145.5t18.5 -144.5t17 -152.5q0 -4 1 -9t-1 -5 q-4 -2 -5 4t-3 10q-45 131 -78.5 275.5t-44.5 291.5q-18 242 51.5 477.5t229.5 434.5q2 4 6 8q6 6 10 6q2 0 0 -6t-6 -15q-111 -213 -173 -432t-52 -442zM219 53q4 -10 9 -20t-1 -13q-2 0 -11 11.5t-11 13.5q-68 92 -103.5 213t-46.5 244q-6 74 9.5 179t46 211.5t74.5 195 t96 126.5q4 4 8 8.5t8 0.5t1 -8.5t-7 -8.5q-53 -102 -91 -210.5t-57 -223.5q-29 -182 -7 -364.5t83 -354.5zM182 541q-23 125 -6 232.5t57 225.5q14 43 40 94.5t56.5 99.5t65.5 90t70 67q4 2 11 6t9 2q8 0 -8 -21q-31 -35 -68.5 -115.5t-71.5 -169.5t-59.5 -164t-29.5 -97 q-14 -59 -22.5 -125t-20.5 -125q0 -12 -2 -21q-4 -20 -6 -20q-6 0 -10.5 19.5t-4.5 21.5z" />
<glyph unicode=")" horiz-adv-x="434" d="M104 31q-20 -23 -39.5 -53.5t-44.5 -61.5q-2 -6 -6 -10l-8 -8q-8 8 0 20q8 35 23.5 62.5t29.5 52.5q14 31 28.5 57.5t33.5 54.5q4 4 7 12.5t7 4.5q6 -2 3 -20.5t-9 -41t-14.5 -43t-10.5 -26.5zM389 442q-41 -184 -120 -314t-208 -222q-2 -2 -6 -5t-8 -3q-4 4 0 7t8 11 q88 98 158 229t106 281q31 125 30 248t-16.5 243.5t-39 240.5t-35.5 237l-4 8q-6 10 2 10q2 0 10 -12q43 -104 78 -220t54.5 -238t19.5 -248t-29 -253zM61 115q-4 -10 -9 -19.5t-9 -5.5q-4 2 -2 13.5t2 15.5q12 100 30.5 189t41.5 200q12 51 19 132t13.5 167t12.5 168 t14 137q-2 2 0 4q0 6 8 6q2 0 2 -5v-9q14 -100 23.5 -198.5t5.5 -194.5q-4 -156 -44 -304.5t-108 -295.5zM248 510v105.5v94.5t-1 94t-3 103q-2 39 -8.5 92.5t-10.5 109.5t-5 108.5t7 93.5q0 4 1 11t8 7v-4q0 -6 2 -14q8 -27 18 -77t19.5 -109.5t17.5 -124t14 -121t9 -97.5 t1 -55q-6 -57 -17 -114.5t-30 -104.5q-4 -4 -9 -21.5t-11 -17.5q-4 0 -3 19.5t1 21.5z" />
<glyph unicode="*" horiz-adv-x="819" d="M506 1395q-4 -29 -12.5 -46.5t-18.5 -30.5t-20.5 -25.5t-20.5 -30.5q-4 -8 -5 -21.5t-7 -13.5q-4 0 -8 12l-4 12q-6 18 -5 45t7 41q2 6 5 29t2 50.5t-7 54t-23 38.5q-10 6 1 6.5t13 0.5q59 -16 83 -56t20 -65zM350 1130q-8 -4 -17 -8t-20 -8q-35 -20 -66.5 -49t-53 -68 t-31.5 -85t-4 -99q2 -16 -2 -13t-6 13q-31 106 -12.5 181t69.5 122q-20 27 -40 52.5t-36 45.5q-6 10 -2 15q2 4 21 0q59 -25 108 -74q10 8 21.5 12t21.5 11q-31 41 -18 90q0 10 2 16t4 14q-98 33 -223 5q-20 -4 -12.5 0t12.5 8q59 31 126.5 42t116.5 5q16 47 26.5 87 t-16.5 79q-2 4 0 8q0 6 15 -2q45 -31 54 -63.5t2 -67.5t-22.5 -71t-21.5 -71q-6 -45 27 -84.5t121 -80.5q-4 55 0 121.5t20 113.5q10 29 15.5 55.5t-7.5 67.5q-6 18 15 6q27 -16 38 -39.5t12 -49.5t-4 -50.5t-12 -44.5q51 12 95.5 26.5t85.5 36.5h4q6 0 8 -2q0 -6 -4 -12 q-41 -57 -95.5 -82t-111.5 -43q-4 -10 -7 -19.5t-7 -17.5q27 10 57.5 23.5t59 28t52 28.5t35.5 27q12 12 13 2q0 -2 -2 -6.5t-2 -8.5q-10 -33 -28.5 -59.5t-39 -47t-41 -33.5t-39.5 -19q-55 -16 -119.5 -28.5t-126.5 -27.5q-2 0 -14 -2t-16 2t5 11.5t13 11.5q10 8 23.5 19.5 t31.5 21.5q-16 8 -27.5 15t-23.5 13zM795 942q-51 -2 -100.5 14.5t-88.5 51.5q-16 -8 -24 -15q41 -33 85 -57.5t74 -20.5q14 0 8 -6t-12 -8q-29 -12 -61.5 -13t-64 6t-58.5 21.5t-43 30.5q-10 2 -18 15l-27 -15q29 -27 57.5 -46t67.5 -36q14 -6 7 -7t-13 -5q-47 -8 -91 11.5 t-85 54.5q-39 -16 -80 -30t-72 -30q-16 -8 -19.5 -3t7.5 17q49 63 119.5 103.5t146.5 62.5q49 14 96 27.5t92 48.5q10 8 9.5 0t-2.5 -14q-10 -18 -20.5 -32.5t-27.5 -27.5q33 -31 71 -51t71 -35q16 -6 9 -9t-13 -3zM248 1249q-2 -4 -17.5 -2t-36 4t-40 5.5t-27.5 3.5 q-23 2 -42 1t-48 -8q-16 -2 -16.5 0t12.5 13q29 18 53.5 27.5t63.5 4.5q14 0 33.5 -6t36 -13t25.5 -15.5t3 -14.5zM248 977q2 -4 -1 -12.5t-7 -18.5t-8.5 -18t-4.5 -10q-10 -29 -19 -62t-9 -88q0 -16 -7.5 -5t-9.5 17q-8 31 -10 55.5t8 59.5q4 14 13.5 30.5t19.5 30 t19.5 20.5t15.5 1z" />
<glyph unicode="+" horiz-adv-x="1167" d="M1114 604q0 -4 -3 -9t-5 -9q-23 -29 -56.5 -49.5t-72.5 -32.5t-77 -17.5t-69 -3.5q-84 8 -172 24.5t-174 39.5q-4 0 -16 4t-12 8q-2 6 10 8t18 2q39 10 100.5 10.5t102.5 -4.5q14 -4 70.5 -5t123 0t128 8.5t90.5 21.5q4 4 10 4h4v0zM1145 666q2 -4 -2 -6.5t-6 -6.5 q-68 -45 -147 -53t-162 -1t-171 22.5t-174 15.5q-53 0 -110.5 -8t-112.5 -29.5t-104.5 -54.5t-85.5 -82q-10 -12 -9.5 -8t5.5 14q33 66 78.5 110t99 69.5t114 36.5t119.5 11q14 127 23.5 243t-13.5 220q-2 10 4.5 8t10.5 -8q33 -49 47 -103.5t16 -113.5t-5 -122.5 t-15 -127.5h19t20 -2q2 37 4 99.5t0 128t-8.5 122t-20.5 82.5q-10 16 -2 13.5t12 -7.5q27 -29 48.5 -67.5t36 -81.5t19.5 -85t1 -77q-4 -33 -9.5 -65.5t-11.5 -67.5q10 -2 17.5 -2t17.5 -2q8 76 12.5 150.5t-10.5 156.5q-4 16 1 13t9 -9q37 -51 46.5 -139t5.5 -182 q106 -12 202.5 -18.5t182.5 16.5q6 0 8 -2zM727 -43q-8 0 -14 6q-4 2 -6 6q-31 18 -52.5 30.5t-40.5 51.5q-8 18 -15 46t-11 54.5t-4 45t8 18.5q8 2 17 -17.5t18.5 -46t16.5 -53t13 -39.5q12 -29 28.5 -47t37.5 -41q4 0 7 -7t-3 -7zM309 551q2 -8 -20.5 -20.5t-32.5 -16.5 q-23 -10 -44.5 -21.5t-39.5 -21.5q-25 -16 -48.5 -31.5t-39.5 -38.5q-6 -8 -8 -6t-2 7.5t2 11.5t2 10q10 16 31.5 44t58.5 50q16 10 39.5 19.5t46 14.5t38 5t17.5 -6zM514 410q0 -59 7 -122t24.5 -122.5t45 -111.5t71.5 -89q16 -16 8 -16q-4 0 -6 3t-5 5q-66 35 -106.5 87 t-65 112.5t-33 127t-5.5 132.5q-61 8 -122 14t-108 10q-16 0 -16 9q0 6 6 9t12 5q111 33 223.5 25.5t229.5 -17.5q74 -8 150.5 -12t158.5 12q8 4 8 -6q0 -2 -3 -2t-5 -2q-39 -37 -106.5 -48.5t-141.5 -11.5q-6 -76 -21.5 -151.5t-23.5 -136.5q0 -23 -6 -23t-8 8t-6 15 q-14 72 -15.5 143.5t4.5 146.5q-35 4 -74.5 5.5t-70.5 1.5z" />
<glyph unicode="," horiz-adv-x="495" d="M379 47q-14 -55 -54 -120.5t-98 -106.5q-2 -2 -11 -8.5t-15 -1.5q-2 2 0 12t4 14q10 27 32.5 68t34.5 69q12 27 19.5 68t7.5 83t-9 78t-34 54q-2 0 -2 6q0 2 2 2q2 2 16 -2q29 -10 52.5 -34.5t38 -55.5t18.5 -64.5t-2 -60.5zM350 -233q-45 -57 -102.5 -104.5 t-104.5 -70.5q-4 -2 -10 -4t-10 2t0 9.5t8 9.5q61 78 122.5 153.5t108.5 169.5q27 53 43.5 112.5t-6.5 129.5q-2 8 0 8l11 -6q41 -35 46 -92t-10.5 -116.5t-43 -114.5t-52.5 -86zM20 -455q-2 -2 -2 -6v-2q0 -2 -2 0q-6 0 -6 4v6q-4 76 3 132.5t20.5 98.5t32 73.5t40.5 60.5 q27 33 52.5 76t40 90t13.5 96t-28 92q-8 12 4 13q6 0 8.5 -1.5t6.5 -5.5q55 -41 67.5 -93t-3 -107.5t-48.5 -107.5t-65 -93q-43 -55 -80.5 -135t-53.5 -191zM90 -408q-10 -23 -17 -43t-12 -49q-2 -4 -2 -10t-4 -6q-2 0 -6 12l-4 12q-4 35 -3 58.5t17 62.5q6 14 16.5 31.5 t22 32t20.5 24t13 4.5q6 -6 1 -25.5t-9 -27.5q-8 -18 -16.5 -35.5t-16.5 -40.5z" />
<glyph unicode="-" horiz-adv-x="954" d="M680 496q-61 4 -130 19t-128 38q-4 2 -13.5 6t-9.5 10t9.5 9.5t13.5 3.5q29 6 75 5t74 -5q25 -4 68 -4t88 4t86 14t59 27q8 8 10.5 6t1.5 -6.5t-3 -10.5l-2 -6q-14 -29 -39 -50t-52.5 -34.5t-56 -20.5t-51.5 -5zM440 424q-55 4 -113.5 14.5t-105.5 18.5q-14 0 -14 8 q0 4 7 7t13 5q80 23 165 17.5t171 -15.5q55 -6 111.5 -11t116.5 17q6 2 7 -2t-3 -8q-25 -35 -72 -47t-100.5 -14t-103.5 3t-79 7zM109 479q-2 -4 -5.5 -2t0.5 8q27 68 65 112t81 68.5t90 33t94 6.5q63 -2 126 -12.5t121 -17.5t112.5 -6t101.5 23q2 0 6 -3t-6 -13 q-47 -47 -103.5 -58.5t-119 -6.5t-127 17.5t-127.5 14.5q-78 4 -163 -33t-146 -131zM188 487q-16 -14 -34.5 -30.5t-34.5 -38.5q-10 -6 -10 -2q0 12 2 14q0 2 2 4q8 33 22.5 53.5t44.5 44.5q12 8 29.5 17.5t34 14.5t29 5t14.5 -8t-14.5 -17t-22.5 -14q-35 -23 -62 -43z" />
<glyph unicode="." horiz-adv-x="516" d="M272 -41q-10 0 -31.5 3t-21.5 20q0 6 18.5 15t41 25.5t41 44t18.5 70.5q0 53 -21 80q-4 6 -10 13.5t-4 9.5q4 0 9 -3.5t7 -5.5q41 -23 62.5 -58.5t21.5 -68.5q0 -66 -30.5 -105.5t-100.5 -39.5zM197 39q-25 -10 -25 12q0 16 12.5 31.5t23.5 34t15 42t-12 58.5 q-4 10 -14.5 22.5t-6.5 14.5t17.5 -3t17.5 -7q35 -16 52.5 -49t17.5 -58q0 -39 -31.5 -64.5t-66.5 -33.5zM137 150q0 10 6.5 23t20.5 13q10 0 16 -13t6 -23q0 -8 -6 -21.5t-16 -13.5q-14 0 -20.5 12.5t-6.5 22.5z" />
<glyph unicode="/" horiz-adv-x="585" d="M483 881q-43 -117 -100 -240t-119 -229q-4 -4 -13 -19.5t-15 -15.5q-2 4 0 22.5t6 24.5q6 27 18 64.5t25.5 77.5t27 77t23.5 64q4 12 18.5 53t33 97t37.5 120.5t34.5 125t25 111t7.5 76.5v15q0 4 2 6q4 0 8 -6.5t4 -8.5q18 -39 22 -93t-1 -112.5t-17.5 -113.5t-26.5 -96z M401 399q-18 -53 -41.5 -106t-48 -105.5t-48 -99.5t-44.5 -86q-6 -2 -11 -2h-9q-6 0 -3 1t3 9q41 166 100 325t127 318q43 102 81 208t60 229q0 10 4 10q2 0 7 -17q14 -59 -3.5 -152t-49 -192.5t-68 -191t-56.5 -148.5zM115 -174q0 -6 2 -12.5t-2 -1.5q-8 0 -9 6 q-41 74 -53 156.5t-5 169.5t29.5 175.5t53.5 172.5q43 119 92 232.5t94 223t79 212t46 200.5q0 4 1 8t6 4q4 2 4 -5t4 -9q12 -109 -12.5 -220.5t-68.5 -227t-97.5 -232.5t-96.5 -236q-27 -74 -48 -153.5t-32.5 -160.5t-9 -158.5t22.5 -143.5zM162 -29q-2 -41 3 -78.5 t11 -78.5v-10.5t-4 -4.5q-10 4 -12 8q-2 2 -2 7q-23 33 -32 64.5t-7 98.5q0 16 6 49t13 65t16.5 54.5t17.5 20.5q2 0 3 -11.5t0 -25.5t-2 -27.5t-1 -19.5q-4 -37 -7 -62.5t-3 -48.5z" />
<glyph unicode="0" horiz-adv-x="833" d="M555 238q-4 -6 -11 -15.5t-14.5 -17.5t-14.5 -13.5t-9 -3.5q-4 0 -1 8.5t25 59.5q27 57 44.5 131t25.5 150.5t11 150.5t3 133q0 31 -5 74t-18 84t-37 69.5t-62 28.5q-49 0 -90.5 -26.5t-73 -58t-53 -59.5t-31.5 -30q14 39 38.5 81t58.5 76t74 55.5t87 21.5q63 0 101 -41 t58.5 -98.5t25.5 -121t5 -108.5q0 -66 -7 -134.5t-23 -133.5q-6 -23 -16.5 -55.5t-25 -69.5t-32 -73.5t-33.5 -63.5zM524 764q0 14 -1 43t-6 58.5t-14 52t-26 22.5q-12 0 -30.5 -10t-36.5 -35q-57 -74 -91 -143.5t-53.5 -142t-31 -150.5t-21.5 -168q-6 2 -10 23.5t-7 48 t-4.5 51t-1.5 32.5q0 102 26 203t73 193q12 25 35.5 58.5t51 64t60.5 52t64 21.5q29 0 46 -30.5t26.5 -71.5t11.5 -82t2 -63q0 -117 -23.5 -246t-70.5 -234q-4 -4 -8.5 -9t-4.5 11q0 55 7.5 111.5t15.5 113t15 113t7 113.5zM266 47q12 0 26.5 5t4.5 -7q-12 -16 -47 -16 q-68 0 -114 58t-73.5 137t-40 162t-12.5 132q0 154 49.5 306.5t151.5 269.5q25 29 55.5 57.5t65.5 51t72.5 36.5t78.5 14q92 0 152.5 -42t96.5 -106.5t51.5 -143t15.5 -152.5q0 -72 -11.5 -151.5t-32 -158.5t-49 -154t-63.5 -138q-51 -92 -125 -149.5t-182 -57.5 q-8 0 -27.5 1t-25.5 5l-13 6q-8 4 13 4q76 -4 139 34t112.5 103.5t86 150.5t61.5 175t36 178t11 160q0 57 -11 123t-39 121t-76 92t-120 37q-37 0 -73 -16q-88 -41 -151.5 -119t-105.5 -173.5t-62.5 -197.5t-20.5 -190q0 -27 4 -70t14 -93t25.5 -100.5t37 -91.5t50 -66.5 t65.5 -25.5zM131 553q4 0 6 -14.5t2 -16.5q4 -27 5 -51.5t6 -46.5q4 -25 14 -78t28.5 -108.5t44 -96.5t58.5 -41q6 0 11 1t5 -5q0 -23 -51 -22q-29 0 -50.5 21.5t-37.5 56t-27.5 76.5t-17.5 83t-9 76t-3 55v22.5t2 38t5 35t9 15.5z" />
<glyph unicode="1" horiz-adv-x="626" d="M483 1137q-2 -12 -14 -24.5t-25.5 -23t-25.5 -16.5t-15 -4q-2 2 5.5 13.5t16.5 24.5t17.5 29.5t10.5 28.5q6 35 0 78q0 14 4 14t10 -10q2 -6 4 -10q6 -16 12 -43.5t0 -56.5zM410 1161q-35 -53 -89.5 -85t-113.5 -58q-35 -14 -71 -33.5t-58 -60.5q-2 -6 -4 -6q-4 0 -4 14 q-6 37 14 67.5t51 54t62.5 40t50.5 26.5q35 18 78 30.5t73 25.5q16 6 14.5 -2.5t-3.5 -12.5zM358 1016q2 -10 -8 -21q-14 -14 -39.5 -32.5t-54.5 -34.5q-16 -8 -39.5 -24.5t-46.5 -36t-38 -43t-13 -48.5q0 -10 -6 -4q-4 4 -9 16q-16 57 1.5 104.5t46.5 63.5q39 23 88 38.5 t96 23.5q4 0 12 1t10 -3zM569 946q25 -45 22 -113.5t-19.5 -141.5t-37 -140.5t-32.5 -108.5q-20 -76 -51 -153.5t-58 -134.5q-6 -16 -14 -17q-6 0 -6 7.5v13.5q4 123 37.5 239.5t74.5 233.5q25 72 47.5 147.5t22.5 163.5v12.5t4 6.5t7 -6.5t3 -8.5zM281 475 q-33 -113 -24 -241t77 -232q4 -6 -8 -2q-57 55 -86 117.5t-37 128t0 133t24 129.5q25 90 55.5 176t59.5 168q-31 -12 -62.5 -25.5t-59 -29t-48 -36t-29.5 -46.5q-2 -4 -5 -1t-3 13q-2 55 23.5 88t63.5 54.5t84 39t83 39.5q25 14 48.5 38t41 54.5t24.5 70.5t-1 89q-2 10 2 9 t6 -5q20 -53 20 -146t-20 -202q-8 -45 -24.5 -98t-36 -107.5t-41 -105.5t-41.5 -90q-4 -6 -9.5 -18.5t-9.5 -10.5q-6 2 -6 15.5v15.5q2 20 7 47.5t12.5 57.5t15.5 57.5t16 48.5q2 8 10.5 35.5t17.5 65.5t18.5 81t15.5 84q-23 -23 -50.5 -85.5t-52 -135t-44 -140t-27.5 -98.5 zM399 -8q-12 0 -20 8q-29 23 -44.5 44.5t-25.5 68.5q-4 18 -6 45.5t-2 52.5t4 42t12 17q2 0 5.5 -8t6.5 -19.5t5 -21.5t2 -14q4 -27 6 -49.5t8 -44.5q18 -61 47 -111q2 -2 4 -6t-2 -4z" />
<glyph unicode="2" horiz-adv-x="790" d="M680 852q-23 -84 -68 -142.5t-94 -103.5q-6 -4 -21.5 -16t-19.5 -8q-6 4 5.5 19t17.5 22q18 25 38.5 61.5t38 77.5t27.5 80t10 69q0 27 -10 57.5t-32.5 57.5t-62.5 42t-97 11q-55 -4 -99.5 -27.5t-75 -55t-49 -63.5t-20.5 -52q-2 -12 -2 -13.5t-4 -3.5q-2 0 -5 6.5 t-3 10.5q-8 43 11 100t77 109q53 47 131 61t143 -6q43 -12 79 -44t58.5 -72t30.5 -87t-4 -90zM674 174q-16 -18 -34.5 -38.5t-47.5 -35.5q-12 -6 -28.5 -11t-31 -7t-24.5 -1t-8 9q0 4 13 10t17 9q18 10 34 17t30 17q39 25 80 54q14 10 10 -2.5t-10 -20.5zM582 168 q-2 -4 -19 -8q-74 -10 -144.5 2t-142.5 31q-49 14 -101 16t-105 -27q-8 -4 -9 2q0 4 2.5 9.5t4.5 9.5q63 131 160.5 268t195.5 256q74 90 85 156.5t-52 93.5q-39 16 -79 7t-76 -34.5t-61.5 -62.5t-35.5 -78q-2 -10 -8 -10t-7 6v6q-4 51 21 101.5t66.5 86t97 49t112.5 -11.5 t74 -69.5t3.5 -99t-48.5 -110t-78 -100.5q-41 -43 -83 -95t-79.5 -107.5t-70.5 -107.5t-53 -95q8 4 30.5 5t30.5 1q14 25 30.5 48.5t32 42t26.5 28.5t17 8q2 -2 -2 -13.5t-11 -25.5t-14 -27.5t-9 -17.5l-23 -43q10 -2 21.5 -2t21.5 -4q47 72 101.5 135.5t111.5 128.5 q29 33 62.5 72t62.5 83t50.5 97t27.5 119q2 39 -9.5 81t-35 80.5t-57 69.5t-76.5 47q-86 33 -173 15.5t-153 -68.5q-10 -10 -13 -11t-5 1t1 8t7 12q23 35 76 66t127 41q35 6 78.5 1t87.5 -21.5t84 -45t71 -73.5q31 -47 44 -95.5t14 -95.5t-8 -89t-21 -73 q-27 -66 -58.5 -111.5t-56.5 -74.5q-72 -86 -152.5 -163t-150.5 -140q12 0 22.5 -2t18.5 -4q49 -10 99 -26.5t89 -35.5q15 -8 13 -12zM670 119q-41 -53 -80 -83t-77 -44.5t-75 -15.5t-73 4q-49 6 -100.5 16t-98.5 15t-88 2t-70 -21q-6 -6 -7 -1t1 9q27 45 71 57.5t96 7 t107.5 -19.5t104.5 -22q63 -10 137 12t148 100q8 8 8 -1t-4 -15zM403 92q0 -6 -8 -7t-10 -1q-29 -4 -75 0t-72 8q-18 2 -51 2t-67 -4t-63.5 -14t-40.5 -31q-10 -18 -11 -7t1 17q6 31 26.5 53.5t47 37t53.5 20.5t47 6q55 -4 103.5 -17.5t97.5 -41.5q4 -2 13 -8.5t9 -12.5z " />
<glyph unicode="3" horiz-adv-x="720" d="M463 852q-2 -2 -10.5 -9t-14.5 -3q-4 4 -2 13t4 11q16 33 24.5 81t-1.5 77q-12 39 -50 52t-84 6t-87 -33.5t-60 -69.5q-2 -4 -5 -6t-5 2q-4 4 -4 12q0 35 19.5 67.5t50 58.5t69.5 39t80 11q63 -6 97 -41t42.5 -82t-8 -98t-55.5 -88zM395 885q-31 -53 -69.5 -111.5 t-73.5 -138.5q-8 -6 -13.5 -10t-11.5 -11q29 90 67 166t60 127q27 57 9.5 69.5t-51 1.5t-69.5 -33.5t-48 -35.5q-8 -8 -13 -2v11q20 66 80 102.5t117 26.5q29 -6 40 -22.5t11 -40t-10.5 -49t-24.5 -50.5zM668 434q6 -66 -5.5 -123t-32 -103t-44 -80t-41.5 -52 q-43 -43 -103.5 -66.5t-124 -30t-120 0t-91.5 20.5q-27 10 -22 23q2 6 12 3t19 -6q78 -10 154.5 5.5t141 54.5t114.5 98.5t75 138.5q14 47 7 117t-43 128.5t-105.5 88t-177.5 -5.5q8 14 20 31.5t23.5 31t20.5 21.5t13 6q4 -4 0 -18.5t-10 -24.5q14 4 33.5 4h30.5 q29 31 57.5 64t52 72.5t35.5 88t10 111.5q-2 39 -19.5 67.5t-43 47t-55 29t-56.5 12.5q-53 4 -94 -8.5t-78 -34.5q-10 -8 -12 -6q-2 4 1 8t5 8q10 18 42 40t76 33t97 7t107 -37q70 -43 90 -112.5t5.5 -144.5t-56 -145.5t-97.5 -113.5q68 -23 124.5 -88.5t64.5 -159.5z M545 539q33 -59 31.5 -121t-23 -115t-57 -95t-74.5 -63q-4 -4 -18.5 -8t-16.5 0t5 14.5t11 14.5q12 14 27.5 36.5t30 49.5t25 53.5t14.5 48.5q2 6 2 26.5t-4 47.5t-17.5 55.5t-40.5 51.5q-29 23 -61.5 29.5t-61 4.5t-52 -11t-32.5 -19q-10 -10 -10 -2t2 14q12 31 50 56.5 t92 29.5q53 2 104 -28.5t74 -69.5zM449 477q18 -41 13 -89t-29.5 -96t-65.5 -89t-93.5 -65.5t-114 -28t-124.5 25.5q-12 6 -10 20.5t18 6.5q63 -29 132 -4.5t123 74t82 109.5t9 105q-16 39 -68.5 49.5t-97.5 -28.5q-10 -8 -9 -2t5 12q18 33 50 49.5t67 17.5t66 -15.5 t47 -51.5zM258 74q0 -10 -28.5 -19.5t-47.5 -11.5q-59 -4 -94 7t-74 40q-14 12 -16 16.5t2 5.5t11 -1t14 -5q33 -16 73.5 -21t75.5 -6t59.5 -1t24.5 -4z" />
<glyph unicode="4" horiz-adv-x="759" d="M487 1198q14 -29 18.5 -65.5t-1.5 -73.5t-19.5 -71t-29.5 -56q-47 -66 -103.5 -130.5t-113.5 -121.5q-2 -4 -13.5 -11t-17.5 -3q-4 2 0 12t8 14q6 16 17.5 39t24.5 46.5t26.5 45t25.5 35.5q10 10 38 54t57.5 97.5t50 106.5t16.5 82q-2 6 0 11t6 3q6 0 10 -14zM668 475 q-2 -10 -7.5 -19.5t-21.5 -15.5q-72 -29 -142.5 -23.5t-148.5 17.5q-68 10 -132 1t-118 -56q0 20 5.5 50t12.5 55.5t14 42t13 12.5q4 0 5.5 -21.5t1.5 -34.5l-7 -49q8 14 23.5 25.5t23.5 17.5q33 86 86.5 164t112.5 156q41 55 83 114.5t60 135.5q6 6 13 6q2 -4 1 -6.5 t-1 -6.5q14 -43 -6.5 -100t-53 -114.5t-69.5 -108.5t-58 -82q-23 -35 -49 -70t-51 -65q35 4 72 3t71 -3q41 74 69 143.5t22 138.5v2q0 4 2 4q4 0 8 -4q2 -2 2 -6q16 -35 19 -69.5t-3 -70.5t-19.5 -72t-29.5 -72h17.5t17.5 -2q10 31 21.5 65.5t19.5 69.5t11 63.5t-5 46.5 q-6 12 -7 14.5t3 4.5q2 0 7 -3t9 -8q25 -25 36 -58.5t14 -68t-3 -67.5t-18 -55l-10 -19q16 0 32 -6q14 35 22.5 68.5t12.5 74.5q0 8 2 9q4 -2 5 -5.5t4 -5.5q4 -10 11 -50t-5 -87zM737 492q-6 -23 -16 -49.5t-39 -49.5q-10 -8 -25.5 -17t-31 -14.5t-26.5 -6.5t-9 7 q-4 6 10 17.5t21 15.5q14 10 24 17.5t23 17.5q16 14 33.5 30.5t27.5 39.5q6 12 9 7t-1 -15zM440 1253q12 -76 -13.5 -142.5t-70.5 -131t-98 -126.5t-96 -130q-47 -76 -74 -169t-4 -192q-6 -6 -14 -26q-53 119 -32 229.5t81 202.5q43 68 93 129t94 120.5t78 119t46 120.5 q0 8 2 9q4 0 5 -6.5t3 -6.5zM487 350q0 -6 -7 -8t-11 -2q-23 -4 -73 -6t-87 0q-72 4 -136 -1t-103 -42q-10 -10 -7 1t5 17q14 29 37.5 49.5t51 32.5t53.5 18.5t42 6.5q66 0 116 -17.5t103 -33.5q4 -2 10 -6.5t6 -8.5zM750 440q-29 -88 -75 -136t-97 -71q-10 -27 -26.5 -58.5 t-36 -62t-39 -60t-34.5 -52.5l-7 -7t-7 -1q-2 2 -2 10q4 55 19.5 106.5t37.5 102.5h-26q-31 0 -60.5 3t-60.5 7q-25 -76 -23 -160t58 -151q8 -10 3 -9t-9 5q-84 70 -98.5 157t7.5 170q-59 10 -113.5 13.5t-107.5 -21.5q-10 -8 -11 -2t9 15q39 51 88 62t104.5 6t113 -17.5 t112.5 -9.5q35 -2 73 5t74.5 27.5t68.5 53t56 81.5q4 10 7.5 5t1.5 -11zM432 -113q-4 0 -8 2t-8 5q-4 2 -8 6q-23 23 -35.5 41t-22.5 59q-4 12 -3 30.5t5 35t9.5 26.5t11.5 8q4 0 9 -21.5t7 -31.5q4 -35 12.5 -74t30.5 -75q4 -11 0 -11z" />
<glyph unicode="5" horiz-adv-x="776" d="M791 1214q-4 -31 -12.5 -53t-28.5 -45q-10 -12 -26.5 -21.5t-31 -15.5t-24 -7t-9.5 5q-2 6 12.5 18.5t20.5 16.5q14 12 23.5 21.5l21.5 21.5q14 16 23.5 29.5t19.5 36.5q2 4 8.5 8.5t2.5 -15.5zM721 1178q2 -4 -2 -6.5t-8 -4.5q-63 -35 -133 -31.5t-136 19.5 q-41 10 -79.5 20.5t-92.5 -1.5q-6 -4 -6 0q0 6 6 10q27 29 61 39t68.5 10t69.5 -7t63 -12q41 -8 92.5 -14t86.5 -16q10 0 10 -6zM569 1067q-2 -4 -10 -8t-12 -4q-12 -4 -32.5 -4t-44.5 2t-44 4t-33 4q-57 8 -117.5 9t-101.5 -21q-10 -4 -10 3t8 15q41 53 94 70.5t84 9.5 q47 -12 99.5 -29.5t101.5 -34.5q2 0 10 -5t8 -11zM659 598q33 -66 37 -132.5t-6 -126.5t-29.5 -109.5t-33.5 -77.5q-29 -55 -74 -104.5t-97.5 -88.5t-106.5 -64.5t-99 -37.5q-12 -4 -23.5 -5.5t-11.5 1.5q-2 6 7 11t20 11q76 47 146.5 103.5t123.5 126t85 153.5t34 184 q0 61 -29 124t-79 110t-115.5 70.5t-137.5 9.5q-23 -4 -22.5 18.5t4.5 44.5q6 41 14 82t13 82q-16 4 -31 4q-10 -41 -18.5 -77t-30.5 -76q-2 -4 -6.5 -10.5t-10.5 -6.5t-6 8.5t-2 10.5q-4 39 0 78.5t10 80.5q-35 0 -43 -28.5t-10 -51.5q-4 -35 -7 -62.5t-10.5 -52t-19.5 -48 t-33 -52.5q-2 -2 -7 -6t-9 -2q-2 4 -2 15q4 35 7 79.5t9 87.5q6 25 11.5 62t15.5 76t28.5 70.5t51.5 45.5q18 8 16 1t-10 -15q-20 -16 -32.5 -47t-18.5 -88q29 35 55.5 47t61.5 12q39 0 78.5 -6t78.5 -14t78 -16.5t74 -8.5q68 -2 139.5 40t110.5 136q4 10 8 7.5t0 -11.5 q-18 -72 -48 -119t-68 -73.5t-80 -36.5t-81 -8q-51 4 -97 15t-91 26q-4 -39 -9 -74t-18 -76l-8 -28q39 8 88 0.5t98.5 -30t93 -63.5t74.5 -100zM20 586q-8 0 -5 12t10.5 27.5t19.5 32t23 24.5q25 23 40 27t44 14q10 4 19 -1t-13 -17q-16 -10 -29.5 -18.5t-30.5 -20.5 q-33 -27 -53.5 -54.5t-24.5 -25.5zM502 662q51 -51 71.5 -118t16.5 -134.5t-29.5 -130t-64.5 -103.5q-2 -6 -14.5 -18.5t-16.5 -7.5q-6 0 0 16t10 22q12 23 23.5 57t19.5 70.5t11 71.5t-1 59q0 6 -5 31t-20.5 53.5t-42 57t-65.5 43.5q-98 37 -181 13.5t-136 -73.5 q-14 -16 -12 -3.5t10 22.5q33 51 88 85t115.5 44t120 -3t102.5 -54zM422 215q-31 -57 -75 -106.5t-96 -95.5t-112.5 -92t-124.5 -95q-14 -10 -14 -6q0 6 6 10q63 66 117.5 120t100.5 104t83 99.5t66 106.5q45 88 46 147.5t-46 116.5q-23 29 -56.5 43.5t-69.5 14.5t-72 -12.5 t-62 -37.5q-4 0 -5.5 -2t-1.5 2q-6 0 7 13q20 37 59 58.5t84 26.5t90 -9.5t80 -51.5t47 -81t9 -90t-19 -93t-41 -90zM326 0q2 0 -4.5 -7t-16.5 -16.5t-20.5 -19.5t-14.5 -14q-27 -20 -51 -41t-51 -41q-70 -51 -152 -84q-12 -6 -12 3t10 19q14 14 27.5 24.5t28 22t33 24.5 t47.5 32q20 12 48.5 30.5t56.5 34t47.5 25.5t23.5 8z" />
<glyph unicode="6" horiz-adv-x="819" d="M623 1153q12 8 15 7t2 -7t-5 -13t-6 -12q-47 -63 -105.5 -135.5t-113.5 -156.5q-92 -133 -157 -277.5t-65 -292.5q0 -88 56.5 -142t142.5 -71q12 -2 28.5 -6t16.5 -8q0 -8 -21.5 -9t-31.5 -1q-123 0 -190.5 76.5t-67.5 195.5q0 70 19.5 144.5t53 150.5t78.5 150.5 t99 142.5q59 78 122.5 147.5t129.5 116.5zM291 303q0 -76 33.5 -99.5t105.5 -23.5q33 0 59.5 16.5t46 41t29.5 55.5t10 61q0 10 -3 22.5t-9 22.5q-4 4 -6 13.5t10 9.5t21.5 -11.5t15.5 -27.5t9 -32.5t3 -26.5q0 -90 -53 -150.5t-145 -60.5q-86 0 -141.5 46t-55.5 136 q0 68 27.5 151.5t69.5 166.5t91.5 158t92.5 124q10 12 15 9t-3 -23q-27 -72 -64.5 -141.5t-73.5 -139.5t-60.5 -143.5t-24.5 -153.5zM348 387q-10 -10 -14 -8t0 16q12 33 34.5 66t52.5 59.5t65.5 42t76.5 15.5q59 0 104.5 -25t76 -64.5t46 -92t15.5 -105.5q0 -86 -32 -154.5 t-87 -116t-129 -72t-158 -24.5q-176 0 -282.5 96.5t-106.5 270.5q0 123 40 236.5t104 217.5q41 68 98 144t124.5 144.5t140.5 127t145 92.5q14 6 19 4t-7 -14q-68 -70 -146.5 -145.5t-150.5 -157.5q-61 -72 -116.5 -148.5t-95.5 -157.5t-63.5 -168t-23.5 -177 q0 -150 95 -226.5t243 -76.5q70 0 129 22.5t103 64.5t69.5 99t25.5 125q0 43 -11 84t-34.5 73.5t-58.5 53t-80 20.5q-35 0 -64.5 -13t-56 -32.5t-48.5 -45t-42 -50.5zM555 453q-23 0 -47.5 -11.5t-46 -28t-41 -36t-31.5 -35.5q-4 -6 -11 -12t-7 12q0 29 18.5 56.5t45 49 t57 35t55.5 13.5q72 0 110.5 -50.5t38.5 -117.5q0 -23 -4 -28t-8 -5q-2 0 -10 31q-10 47 -38 87t-81 40z" />
<glyph unicode="7" horiz-adv-x="667" d="M651 1204q-10 -29 -20 -54.5t-33 -47.5q-8 -8 -22.5 -16.5t-27.5 -12.5t-23.5 -4t-10.5 8q0 4 12.5 15.5t18.5 15.5q10 10 22.5 18.5t22.5 18.5q16 16 26.5 30.5t22.5 32.5q10 16 12 9t0 -13zM575 1167q2 -4 -14 -12q-63 -25 -128.5 -18.5t-135.5 18.5q-41 8 -85 12 t-91 -12q-14 -4 -2 12q20 33 55 47.5t73 16.5t74.5 -3t59.5 -9q47 -10 96 -21.5t84 -21.5q14 -5 14 -9zM424 1069q0 -6 -6 -9t-8 -3q-12 -4 -33 -4t-42.5 1t-42 3t-32.5 4q-16 2 -43 3t-57.5 -3t-59 -13.5t-45.5 -25.5q-8 -10 -8 1t4 15q12 29 32.5 48.5t43.5 31.5 t45.5 18.5t38.5 6.5q45 0 98 -18.5t101 -41.5q2 -4 8 -6t6 -8zM635 870q12 -49 -6.5 -118.5t-50 -142t-67.5 -138t-54 -106.5q-35 -74 -80 -148t-76 -133q-8 -20 -14 -18t-7 10t1 16q20 125 78.5 239.5t123.5 229.5q41 70 79 146.5t61 164.5q0 10 1 11.5t5 1.5q2 -4 2 -7.5 t4 -7.5zM508 946q-16 -66 -47 -129t-68 -126.5t-75.5 -128t-69.5 -132.5q-25 -53 -43.5 -114.5t-24.5 -124t1 -123t34 -109.5q6 -12 4 -14q-4 -2 -6 1t-4 5q-55 53 -74.5 118.5t-16.5 136t25.5 140.5t53.5 133q59 123 129.5 234.5t122.5 218.5h-48q-51 2 -100 14t-95 20.5 t-88 8.5t-79 -19q-8 -4 -7 2.5t5 12.5q27 49 70 60t94 4t105 -22.5t104 -17.5q63 -4 128.5 31t112.5 127q4 10 8.5 7t-0.5 -15q-31 -98 -75 -144q12 -70 -4.5 -146.5t-40.5 -127.5q-41 -86 -98.5 -171t-112.5 -161q-4 -2 -12.5 -13t-14.5 -9q-4 4 -2 16t6 19q6 20 17.5 50.5 t25.5 62.5t29.5 62.5t25.5 51.5q12 23 31 60.5t38.5 82.5t37.5 93.5t31 91.5q-17 -11 -33 -17zM279 -68q-10 2 -17 11l-8 8q-16 23 -29.5 42t-17.5 58q-2 20 1 49t9 55.5t13.5 44t13.5 15.5q4 -2 5 -30.5t1 -39.5q0 -25 1 -51t5 -49q4 -33 8 -50.5t15 -45.5q4 -17 0 -17z " />
<glyph unicode="8" horiz-adv-x="862" d="M733 971q4 -41 -5 -83t-28 -77q-37 -72 -93 -117t-117.5 -83t-123 -76.5t-108.5 -100.5l-43 -55q-2 0 -2 6q-2 8 7 30.5t13 33.5q20 51 62.5 94t90.5 79.5t98.5 73.5t89 77t61 88t16.5 110q-6 61 -55 91t-107.5 27.5t-109.5 -35t-66 -98.5q-8 -35 -1 -74.5t22 -72.5 q8 -20 6 -21q-6 -2 -23 15q-27 31 -41 76t-10 86q4 61 39 103t84 62.5t107.5 20.5t108.5 -19.5t86 -60.5t42 -100zM571 528q-66 -43 -117 -87t-87 -122q-20 -43 -18.5 -73.5t20 -43t52.5 -4t81 45.5q49 39 75.5 98t22.5 107q-4 23 -11.5 41t-17.5 38zM750 227 q-29 -121 -126.5 -190.5t-250.5 -71.5q-70 0 -130.5 18.5t-106.5 53.5t-75.5 83t-35.5 107q-8 70 10 136.5t55 126t88 112.5t109 98q4 4 9 8.5t9 6.5q-53 45 -85 106.5t-32 126.5q0 94 45.5 157.5t115 95.5t151.5 33t153.5 -29.5t124.5 -93t64 -157.5q12 -115 -45.5 -217 t-157.5 -170q39 -37 61.5 -84t28.5 -94q8 -72 -24.5 -139.5t-92.5 -114.5q-10 -6 -23.5 -9t-13.5 1q0 8 9.5 21.5t19.5 23.5q76 98 79 187.5t-69 193.5l-24 -16q20 -27 31.5 -59t15.5 -56q4 -47 -12.5 -96.5t-50 -89t-83 -66.5t-106.5 -27q-47 0 -73.5 15.5t-38 40 t-10.5 53.5t11 57q23 74 72 126t107.5 96t119 84t106.5 90.5t71.5 116t15.5 157.5q-8 63 -49 107t-98.5 67t-124 23t-124 -25t-97.5 -74t-44 -123q-4 -59 21.5 -119.5t75.5 -105.5q37 23 76.5 46.5t71.5 51t53.5 60.5t25.5 76q2 29 -10.5 44t-30.5 20t-42 2t-44 -11 q-25 -10 -26 -5t3 11q10 18 43 29.5t69 7.5t65.5 -26.5t35.5 -69.5q2 -31 -8 -64t-30.5 -64.5t-46 -58t-52.5 -43.5q-78 -47 -147.5 -96t-119.5 -108.5t-79 -135.5t-24 -174q2 -49 24.5 -88t60 -67.5t88 -44t107.5 -15.5q68 0 121 17.5t95 48t75 70.5t61 87q6 10 9.5 12 t-0.5 -14z" />
<glyph unicode="9" horiz-adv-x="808" d="M662 864q0 -39 -3.5 -74.5t-13.5 -70.5q-2 -6 -9 -31.5t-13 -25.5q-4 0 -3 13t1 15v55q0 55 -7.5 110.5t-31 99.5t-64.5 71t-108 27q-59 0 -101.5 -23.5t-70 -62.5t-41 -90.5t-13.5 -104.5q0 -61 27 -112.5t94 -55.5q4 0 11.5 -3t7.5 -7q0 -2 -8.5 -5t-12.5 -3 q-47 -6 -80 12t-54.5 52t-31.5 76t-10 79q0 63 18.5 121.5t54.5 103.5t88 72.5t120 27.5q123 0 188.5 -71.5t65.5 -194.5zM764 635q-25 -111 -91.5 -231.5t-159.5 -225t-204.5 -180.5t-224.5 -96q-14 -4 -11 3t13 11q215 92 369.5 271.5t232.5 412.5q27 82 31 181.5 t-25.5 185.5t-95.5 143t-176 57q-74 0 -133.5 -29.5t-102.5 -78.5t-65.5 -113.5t-22.5 -136.5q0 -49 11.5 -94t36 -81t61.5 -57.5t90 -21.5q47 0 83 13.5t75 29.5q45 113 45 215q0 31 -4 59.5t-15.5 50t-34 34t-59.5 12.5t-62.5 -19.5t-42 -45t-26.5 -53.5t-18 -46 q-2 -4 -5.5 -11.5t-5.5 -7.5t-2 6.5v10.5q0 43 12.5 83t35 70.5t57.5 49t80 18.5q49 0 79.5 -17.5t49 -47t25.5 -68.5t7 -82q0 -84 -27.5 -173t-71.5 -173t-99.5 -161t-108.5 -136q-6 -6 -15 -15.5t-16 -5.5q-4 4 1.5 10.5t9.5 16.5q47 94 106.5 198.5t102.5 215.5 q-37 -27 -91.5 -44.5t-89.5 -17.5q-61 0 -105 28t-71.5 72t-40 99t-12.5 108q0 82 27.5 155t78 128t120 88t153.5 33q121 0 197.5 -58.5t115.5 -146.5t44 -194.5t-15 -200.5zM377 211q0 -10 -14.5 -34.5t-35 -50.5t-40 -48.5t-29.5 -30.5q-43 -35 -99.5 -66.5t-119.5 -48.5 q-4 -2 -11.5 -2t-7.5 4l5 5q2 2 6 5t8 7q18 12 42.5 27.5t48.5 32t45.5 31.5t35.5 26q41 29 71.5 62.5t65.5 68.5q6 6 11.5 11t13.5 5l4 -2v-2z" />
<glyph unicode=":" horiz-adv-x="423" d="M352 600q-25 -8 -52.5 -5t-50 12t-39.5 21.5t-24 24.5q-4 10 1.5 19.5t15.5 9.5q20 0 35.5 -2l31 -4t31.5 0t41 10t54.5 41t39.5 80q4 8 11.5 8t11.5 -10q16 -41 11 -75t-23.5 -60.5t-44 -44t-50.5 -25.5zM354 743q-29 -23 -56.5 -20.5t-53.5 18.5q-8 0 -21 17q-2 4 2 10 t8 8q10 10 23.5 12.5t26.5 10.5q18 12 28.5 29.5t17.5 31.5t14 22.5t17 6.5q23 -6 31 -25.5t5 -42t-15.5 -44.5t-26.5 -34zM254 872q10 10 24.5 15.5t18.5 -0.5q8 -6 3 -20.5t-15 -28.5q-10 -10 -21.5 -13.5t-19.5 2.5q-4 4 -2 18.5t12 26.5zM272 -41q-10 0 -31.5 3 t-21.5 20q0 6 18.5 15t41 25.5t41 44t18.5 70.5q0 53 -21 80q-4 6 -10 13.5t-4 9.5q4 0 9 -3.5t7 -5.5q41 -23 62.5 -58.5t21.5 -68.5q0 -66 -30.5 -105.5t-100.5 -39.5zM197 39q-25 -10 -25 12q0 16 12.5 31.5t23.5 34t15 42t-12 58.5q-4 10 -14.5 22.5t-6.5 14.5t17.5 -3 t17.5 -7q35 -16 52.5 -49t17.5 -58q0 -39 -31.5 -64.5t-66.5 -33.5zM137 150q0 10 6.5 23t20.5 13q10 0 16 -13t6 -23q0 -8 -6 -21.5t-16 -13.5q-14 0 -20.5 12.5t-6.5 22.5z" />
<glyph unicode=";" horiz-adv-x="495" d="M379 47q-14 -55 -54 -120.5t-98 -106.5q-2 -2 -12 -7.5t-16 -0.5q-2 2 1 11t5 13q10 27 32.5 68t34.5 69q12 27 19.5 68t7.5 82t-10 78t-33 55q-2 0 -2 4q0 2 2 4q4 4 16 -4q29 -10 52.5 -33.5t38 -54.5t18.5 -64.5t-2 -60.5zM350 -233q-45 -57 -102.5 -104.5 t-104.5 -70.5q-4 -2 -10 -4t-10 2t0 9.5t8 9.5q61 78 122.5 153.5t108.5 169.5q27 53 42.5 112.5t-5.5 129.5q-6 8 2 8q-2 0 9 -6q41 -35 46 -92t-10.5 -116.5t-43 -114.5t-52.5 -86zM20 -455q0 -2 -1 -3t-1 -3v-2q-2 -2 -2 0q-6 0 -6 4v6q-4 76 3 132.5t20.5 98.5t32 73.5 t40.5 60.5q27 33 53.5 76t41 90t12.5 96t-29 92q-4 12 4 13q6 0 8.5 -2.5t6.5 -4.5q55 -41 66.5 -94t-3 -107.5t-47.5 -106.5t-65 -93q-43 -55 -79.5 -135t-54.5 -191zM90 -408q-10 -23 -16 -43t-13 -49q0 -4 -1 -10t-5 -6q-2 0 -6 12l-4 12q-4 35 -3 58.5t17 62.5 q6 14 16.5 31.5t22 32t20.5 24t13 4.5q6 -6 1 -25.5t-9 -27.5q-8 -18 -16.5 -35.5t-16.5 -40.5zM410 590q-25 -8 -52.5 -5t-50 12t-40 21.5t-23.5 24.5q-4 8 1 17.5t15 9.5q20 0 35.5 -2t31 -3t32 1t40.5 10q25 10 54.5 42t40.5 79q2 6 10 6t12 -8q16 -41 11 -75 t-23.5 -60.5t-43.5 -44t-50 -25.5zM412 733q-29 -25 -56.5 -21.5t-54.5 17.5q-8 0 -20 16q-2 4 2 11.5t8 9.5q10 8 23.5 10t25.5 12q18 12 28.5 29t17.5 32t14.5 23.5t17.5 6.5q23 -6 31 -25.5t5 -43.5t-15.5 -45.5t-26.5 -31.5zM311 862q10 10 24.5 15.5t18.5 -3.5 q8 -6 3 -20t-15 -27q-25 -25 -41 -10q-4 4 -2 17.5t12 27.5z" />
<glyph unicode="&#x3c;" horiz-adv-x="931" d="M870 1063q-4 -35 -22.5 -66.5t-43 -59.5t-52 -48.5t-52.5 -30.5q-72 -29 -152.5 -50.5t-158.5 -35.5q-2 0 -14.5 -1t-16.5 5q0 4 8.5 12.5t12.5 8.5q29 18 79 44.5t87 39.5q12 2 58 23.5t98.5 51t98.5 62.5t58 59q4 2 6 4t6 2v-20zM862 1139q-33 -70 -90 -111t-128 -69.5 t-147.5 -51t-146.5 -55.5q-86 -41 -162.5 -115.5t-105.5 -183.5q-4 -2 -7 -6t-7 -8q2 74 26.5 134t62.5 107t85 81t98 57q72 31 145.5 54t141 47.5t127 55.5t102.5 76h6q4 0 2 -4t-2 -8zM901 362q0 -4 -2 -7t-4 -7l-6 -6q-25 -23 -43.5 -35t-59.5 -18q-16 -2 -36.5 -2t-38 3 t-29.5 8t-8 11q2 4 21.5 7t25.5 3q23 4 42 6.5t36 6.5q27 6 47 12t47 18q8 4 8 0zM788 356q0 -2 -8 -1t-14 1q-86 16 -166 55.5t-158 88.5q-6 4 -26.5 19.5t-53 30.5t-76.5 26.5t-96 9.5l15 14q72 72 171 110t202 72q63 23 127.5 49.5t121.5 75.5q4 8 9 4q4 -4 2 -7t-7 -9 q-12 -43 -58 -80t-102.5 -65.5t-113.5 -51t-92 -36.5q-29 -12 -62.5 -24.5t-68.5 -23.5q35 -8 70.5 -22t69.5 -31.5t62.5 -34t49.5 -26.5q49 -27 99 -63t91 -64q14 -9 12 -17zM238 707q4 0 1 -7.5t-8.5 -14.5t-11.5 -14t-6 -9q-14 -20 -28.5 -37t-24.5 -33l-8 -14l-48 -17 q2 12 7.5 28.5t19.5 37.5q10 14 27.5 31.5t34 30.5t30 19.5t15.5 -1.5zM879 295q-55 -51 -110.5 -73.5t-107 -25.5t-99.5 10t-91 36q-59 31 -113.5 67.5t-107.5 69.5t-105.5 55.5t-107.5 22.5q-16 0 -8 6t10 6q66 25 126 10.5t118.5 -46.5t115 -71.5t115.5 -70.5 q37 -18 80 -31.5t90 -14.5t94 11t94 45q12 8 10.5 2t-3.5 -8zM563 350q-4 -6 -14 -5t-12 5q-31 4 -76 24.5t-72 41.5q-8 6 -47 24.5t-87 36t-96 28.5t-73 3q-8 -4 -8 2l6 6l6 6q27 20 58.5 29.5t64.5 10.5t62.5 -5t50.5 -18q57 -33 115.5 -76t105.5 -90q4 -2 12 -10.5 t4 -12.5z" />
<glyph unicode="=" horiz-adv-x="1083" d="M772 745q-78 4 -157.5 15.5t-151.5 27.5q-6 0 -15.5 5.5t-9.5 9.5t9.5 7t13.5 3q35 6 89 11t89 -3q12 0 61.5 2t107.5 8.5t111.5 18.5t73.5 31l8 4h3q4 -4 0.5 -9.5t-3.5 -11.5q-16 -29 -44.5 -51t-61.5 -37.5t-65.5 -23t-57.5 -7.5zM485 657q-63 0 -131.5 9.5 t-124.5 13.5q-6 4 -12 4t-4 4q-2 6 4 8t12 2q98 33 197.5 32t204.5 -7q66 -4 134.5 -6t141.5 20q2 4 4 0q0 -6 -4 -10q-31 -35 -86 -50t-117.5 -19.5t-122 -2.5t-96.5 2zM98 698q-2 -2 -7 -6t-5 0q0 6 2 8q0 2 2 5q31 70 74 115.5t93 72.5t104.5 38t109.5 11q74 0 148.5 -7 t145.5 -12t135.5 -1t121.5 26q2 0 5 2t3 -4l-8 -8q-53 -53 -119.5 -68.5t-140.5 -14.5t-153 11.5t-154 7.5q-45 0 -94.5 -10t-97.5 -30.5t-90 -53.5t-75 -82zM184 711q-39 -27 -75 -74q-2 -2 -6.5 -4t-4.5 2v16q0 4 2 6q16 31 27.5 53.5t46.5 45.5q14 10 36.5 19t43 14.5 t35 6.5t14.5 -8q2 -6 -18.5 -18t-24.5 -14q-20 -14 -38 -23.5t-38 -21.5zM774 350q-76 6 -154.5 22.5t-150.5 39.5q-4 4 -15.5 6t-11.5 8t11.5 9t15.5 3q16 2 39.5 4t48.5 2t48.5 -1t41.5 -5q12 -2 62.5 -4t109 0t113.5 10.5t78 24.5q4 6 8 7t4 -1q0 -4 -4 -9t-4 -9 q-18 -29 -49 -49.5t-65 -34t-66.5 -19.5t-59.5 -4zM485 281q-66 4 -135 17t-121 21q-6 4 -12 6.5t-6 6.5q0 2 6 5t12 3q98 25 199.5 16.5t208.5 -22.5q63 -10 130 -13.5t142 13.5q2 6 9 0q0 -2 -4.5 -5t-4.5 -5q-31 -33 -88 -45.5t-120.5 -12.5t-122 6.5t-93.5 8.5zM98 346 q-4 -4 -6 -4q-2 -2 -6 -2v2q0 2 2 4q0 2 2 4q35 68 80 111t97 65.5t107.5 29.5t110.5 5q76 -4 151 -15t145.5 -19.5t135 -8.5t119.5 21q8 0 8 -7q2 0 -1 -2t-7 -2q-59 -49 -126.5 -61t-140.5 -6t-149.5 20.5t-150.5 18.5q-47 2 -96 -5.5t-98.5 -25.5t-94.5 -48t-82 -75z M184 354q-20 -16 -39.5 -32.5t-38.5 -38.5q-10 -4 -10 -2v16q0 4 2 6q16 29 29.5 51.5t52.5 40.5q12 8 35 16.5t43.5 13.5t35.5 5t15 -6q0 -10 -19.5 -19.5t-25.5 -11.5q-43 -25 -80 -39z" />
<glyph unicode="&#x3e;" horiz-adv-x="999" d="M897 647q-2 -4 -10 -2t-15 6q-96 35 -178 98.5t-162 137.5q-47 45 -101 88t-126 72q-4 0 -4 2q2 6 10 8q45 8 100.5 -15.5t107.5 -58.5t99.5 -74t77.5 -61q51 -41 103.5 -91t87.5 -89q4 -6 9 -11.5t1 -9.5zM979 559q-8 -35 -29.5 -65.5t-48.5 -56t-57.5 -43t-57.5 -23.5 q-72 -27 -157.5 -42.5t-159.5 -15.5q-10 -2 -19.5 -2t-11.5 2q-4 8 5.5 14.5t13.5 6.5q14 8 36.5 18t47 20.5t49 18.5t41.5 12q14 4 62 21.5t104.5 40t105.5 50.5t66 54q6 10 10 8t0 -18zM645 700q-4 -4 -13 -1t-11 8q-33 16 -80 46.5t-72 57.5q-10 8 -52 38t-93.5 61.5 t-101.5 57t-77 25.5q-4 -4 -9 -1t-5 7l19 9q31 14 67.5 14t72.5 -9t67.5 -24.5t52.5 -34.5q55 -47 115.5 -107.5t109.5 -119.5q4 -4 9 -13.5t1 -13.5zM977 635q-39 -68 -101.5 -103.5t-136 -57t-153.5 -38t-154 -41.5q-45 -14 -90 -39.5t-86 -61.5t-73.5 -81t-51.5 -100 q-4 -12 -4 -13q-4 0 -4 4.5v8.5q10 76 38.5 133t69.5 99t93.5 70.5t107.5 47.5q63 23 129 36t129 29q-45 12 -82 35t-76 51q-61 47 -117.5 98.5t-110.5 98.5t-108.5 85t-113.5 58h-4q-4 0 -2 2q-2 4 4 5.5t10 1.5q74 6 137.5 -24t122 -77t115.5 -102t119 -103 q31 -23 64.5 -44t68.5 -34.5t72.5 -15.5t74.5 15q-18 2 -37.5 8t-36 13t-25.5 15.5t-5 14.5t29.5 3t35.5 -3q37 -6 73 -7t65 15q4 4 14 8t0 -10zM928 408q0 -2 -1 -4.5t-1 -4.5q-2 -4 -2 -6q-18 -45 -69.5 -76.5t-112 -54t-119 -38t-93.5 -27.5q-63 -23 -134.5 -36.5 t-125.5 -25.5q-20 0 -26 2q0 6 7 11.5t13 9.5q86 59 185.5 88.5t203.5 56.5q66 16 133.5 37.5t133.5 67.5q8 2 8 0zM309 264q2 -4 -2 -12t-10 -15.5t-12 -13.5t-6 -8q-20 -16 -35 -31.5t-29 -31.5q-14 -23 -26.5 -44.5t-26.5 -37.5q0 -4 -4 -6.5t0 2.5q-4 4 -4 14v6 q0 23 6 46.5t35 57.5q10 12 28.5 27.5t37 28t31.5 18.5t17 0z" />
<glyph unicode="?" horiz-adv-x="675" d="M539 1153q-6 -80 -46 -138.5t-77 -103.5q-4 -4 -17.5 -17t-17.5 -9q-6 2 2 17.5t12 23.5q37 59 58.5 129.5t13.5 132t-53 104.5t-144 49q-53 2 -95 -14t-71.5 -41.5t-43 -52.5t-7.5 -45q4 -12 3 -15.5t-4 -1t-7 7.5t-6 9q-8 14 -8 37.5t8 50.5t26.5 52.5t47.5 45.5 q66 47 143.5 48t142 -32.5t105.5 -96t35 -140.5zM547 864q-70 -96 -147.5 -180t-116.5 -152q-4 -8 -8.5 -15t-8.5 -3q-6 2 -3 11.5t7 19.5q18 72 61.5 141.5t94.5 140.5q25 33 52.5 71t50 82t34.5 97t6 115q-8 82 -59 142.5t-122 91t-152.5 26.5t-151.5 -49q-12 -10 -14 -8 q-4 8 6 18q23 33 77 56.5t122.5 24.5t143.5 -25.5t140 -96.5q33 -35 51.5 -76t25.5 -84t6 -85t-7 -74q-23 -66 -47.5 -111t-40.5 -78zM260 416q16 2 12 -2l-6 -6q-39 -16 -81 1t-62 70q-18 53 -15 108.5t19 104.5q14 49 35.5 93t46 85t49.5 78t45 70q53 86 60.5 135 t-62.5 90q-39 14 -76 11t-65.5 -19t-44 -43t-9.5 -59q2 -12 -4 -6l-10 10q-23 37 -7.5 75.5t53.5 66.5t90.5 36t103.5 -19q53 -27 74.5 -65.5t18.5 -82.5t-26.5 -93t-56.5 -94q-47 -61 -87 -136t-75 -159q-16 -41 -19 -88.5t7 -87t33.5 -62t58.5 -12.5zM236 496 q10 -31 26.5 -37t28.5 -6q10 0 13 -4.5t-9 -8.5q-8 -2 -22.5 -6t-30 -1t-30.5 14.5t-24 39.5q-8 25 -0.5 62t20.5 70.5t27.5 57t22.5 19.5q2 -2 1 -13t-5 -24.5l-8 -27t-4 -19.5q-6 -37 -10 -61t4 -55zM213 10q-45 -8 -90 4.5t-55 32.5q-4 6 1 14.5t15 8.5q18 0 30.5 -2 t25 -3.5t27.5 1t38 10.5t48.5 34.5t35.5 69.5q0 6 8 6t12 -6q14 -37 9 -65.5t-21 -50t-40 -36t-44 -18.5zM215 123q-25 -18 -49.5 -15t-46.5 15q-4 0 -9.5 4t-9.5 10q-2 4 1 9.5t8 7.5q10 6 21 8t22 12q16 10 25 25.5t16.5 28t12.5 19.5t15 5q20 -6 26.5 -22.5t3.5 -37 t-13.5 -40t-22.5 -29.5zM127 236q10 10 22.5 14t16.5 0q6 -6 2 -19.5t-14 -23.5q-8 -8 -18.5 -11t-16.5 1q-4 4 -3 16.5t11 22.5z" />
<glyph unicode="@" horiz-adv-x="1511" d="M1071 188q-43 0 -69.5 25t-40 61.5t-18.5 77.5t-5 74q0 20 4 62t10 87.5t14.5 85t16.5 58.5q4 0 4 -6v-8q0 -57 -2 -112.5t-2 -113.5q0 -20 3 -57t12.5 -74t26.5 -63.5t46 -26.5q35 0 66.5 29.5t58.5 77t49.5 105.5t38.5 115.5t24.5 106.5t8.5 80q0 94 -30 163t-83 113 t-128 64.5t-165 20.5q-109 0 -209 -35t-179 -78t-129 -78t-58 -35q-4 0 0 4t6 9q6 10 25.5 27.5t27.5 25.5q111 104 254.5 165.5t296.5 61.5q215 0 331 -119.5t116 -335.5q0 -41 -9.5 -98t-27 -118.5t-44 -123t-62.5 -109.5t-81 -78t-98 -30zM1077 291q-4 0 -2 5t2 9 t9.5 18.5t13.5 22.5q63 88 99 194.5t36 215.5q0 150 -87 212t-228 62q-57 0 -105.5 -12t-93.5 -31.5t-88 -46.5t-88 -55q-137 -86 -211 -209t-74 -287q0 -86 19.5 -145.5t46 -98.5t54.5 -59t44 -33q23 -18 15.5 -18t-27.5 10q-111 63 -159 158.5t-48 230.5q0 141 60.5 263 t159.5 211t227 140.5t263 51.5q80 0 149 -18.5t119 -57.5t77.5 -100.5t27.5 -147.5t-25.5 -178t-64.5 -168q-6 -12 -20.5 -34.5t-32 -46t-36 -41t-32.5 -17.5zM471 340q0 -61 42 -99t101 -38q31 0 67 14t69.5 35.5t63.5 46.5t50 47v39q0 84 15.5 173t40.5 169 q-47 -33 -106.5 -75t-112 -93t-88 -109.5t-35.5 -121.5q0 -16 10 -20.5t26 -4.5q29 0 52.5 11.5t48.5 11.5q4 0 6 -1t6 -1q-23 -23 -58.5 -47.5t-68.5 -24.5q-41 0 -61.5 32.5t-20.5 71.5q0 55 25.5 107.5t65.5 99.5t89.5 88t97.5 74t90 55.5t64 30.5q10 2 14.5 -3t0.5 -26 q-16 -92 -36 -184t-20 -188q0 -37 8.5 -80t28 -81t50 -62.5t75.5 -24.5q57 0 106.5 32.5t89.5 85t69.5 119t50 134t30.5 129t10 106.5q0 121 -36.5 210t-104 148.5t-162 89t-209.5 29.5q-168 0 -320.5 -62.5t-269 -172t-186 -258t-69.5 -318.5q0 -133 47 -236.5t130 -174 t194.5 -106.5t240.5 -36q47 0 95 4t95 19q29 8 34 8t5 -2q0 -4 -6 -10t-33 -17q-47 -16 -118.5 -25.5t-130.5 -9.5q-133 0 -246 43t-195 121t-128 187.5t-46 242.5q0 57 5 112.5t20 111.5q33 139 121 256.5t207.5 203.5t261 135.5t280.5 49.5q131 0 239.5 -33t186.5 -99.5 t121 -168t43 -238.5q0 -80 -26.5 -193.5t-79 -218t-130 -178t-178.5 -73.5q-78 0 -127 47t-71 116q-63 -57 -141 -96t-165 -39q-43 0 -74.5 20.5t-53 51.5t-33 69.5t-11.5 75.5q0 115 45.5 212.5t119 171t166.5 120.5t192 62q16 4 32.5 4t32.5 -4q4 0 8.5 -3.5t4.5 -9.5 q-6 -25 -48.5 -51.5t-101.5 -59t-127 -75.5t-124 -98.5t-94 -125t-38 -157.5zM885 -53q-18 -10 -44 -17.5t-50.5 -11.5t-46 -6t-31.5 -2q-66 0 -134.5 11t-133 35t-121 59.5t-95.5 84.5q-14 18 -29.5 43t-27.5 52.5t-20.5 56.5t-8.5 51q0 2 1 4t1 4q23 -47 46.5 -94 t58.5 -86q92 -98 212 -135t251 -37q82 0 159 12q10 0 24.5 2t18.5 -2q2 -2 -7 -9t-23 -15z" />
<glyph unicode="A" horiz-adv-x="1269" d="M711 1466q-4 6 -11.5 19.5t-3.5 17.5t13.5 -2t11.5 -8q37 -27 68.5 -74t57 -103t46 -117.5t33.5 -117.5q31 -135 52 -266t21 -270q0 -4 1 -24.5t-7 -24.5q-6 4 -13 20t-9 23q-25 76 -44.5 173t-35.5 177q-12 61 -22.5 117.5t-24 109.5t-30.5 107.5t-42 113.5 q-4 8 -13 28.5t-19.5 41t-18.5 38t-10 21.5zM1202 -51q-23 12 -31 15t-30 18q-49 29 -90 74.5t-74 101t-58.5 118t-44.5 123.5q-41 -27 -97 -32t-103 -5q-59 0 -117.5 4.5t-118.5 4.5q-57 -106 -107 -205.5t-79 -185.5q0 -2 -2 -9.5t-6 -7.5q-6 0 -6 14.5v18.5 q0 82 39.5 183.5t89.5 199.5l-31 2q-12 -29 -33.5 -80t-41 -106.5t-35 -106.5t-15.5 -82q0 -6 -6 -6q-8 0 -12.5 13.5t-7.5 29.5t-4 33.5t-1 23.5q0 72 18.5 151t49.5 144l-27 4q-18 -45 -34.5 -89t-28.5 -91q0 -4 -2 -10t-6 -4q-4 8 -5.5 19.5t-1.5 19.5q0 86 31 166 q10 20 21 20q43 12 87 14t91 2q102 0 202.5 -15t200.5 -15q49 0 90 8l-4 33q-23 -6 -48.5 -8.5t-47.5 -2.5q-80 0 -165 16.5t-163 39.5q-4 4 -16 7t-12 9q0 4 12 7t16 3q29 2 56.5 3t56.5 1q47 0 94 -1t96 -1h51.5t51.5 2l-4 23h-27q-98 0 -195.5 18.5t-195.5 18.5 q-84 0 -148.5 -20.5t-110.5 -47t-75 -53.5t-41 -39l-4 -2q-2 0 -2 4q0 2 2 4q37 72 90 120t131 73q78 166 161 329.5t175 323.5q2 4 8 13.5t13 9.5q2 -2 2 -4v-5q0 -16 -2 -24q-39 -166 -115 -319.5t-156 -303.5l39 2q6 12 31.5 53.5t55.5 85.5t54.5 79.5t30.5 35.5l2 -6 q0 -10 -12 -45t-28.5 -76t-32 -76.5t-21.5 -50.5q12 0 24.5 -1t24.5 -1q37 74 79 155t72.5 165t42 170t-13.5 170q0 -10 -5 -41t-13 -65t-16.5 -59.5t-16.5 -25.5q-6 0 -5 8.5t1 10.5q0 53 7 105t7 106q0 72 -22 139q0 2 -6 17.5t4 15.5q4 0 14 -11q20 -20 40 -55t36 -75 t30.5 -78.5t22.5 -65.5q27 -88 44.5 -177t30.5 -178t27.5 -179.5t32.5 -178.5q18 -86 44 -168t63 -155.5t85 -136t111 -109.5q10 -10 7 -13t-19 7zM1198 123q2 -12 -2 -11t-9 7t-10.5 14t-5.5 10q-49 90 -77.5 183.5t-45 188.5t-27.5 192.5t-26.5 199t-40 206t-69.5 212.5 q-2 4 -6.5 14.5t0.5 12.5q4 0 10 -6l8 -9q45 -53 80 -141t61.5 -188.5t44 -198.5t27.5 -172q16 -117 34.5 -246t47.5 -244zM590 643q59 -6 117.5 -14t117.5 -13q-23 109 -39 215.5t-30 217.5q-27 -106 -73 -207t-93 -199zM1264 -29q-41 18 -72 36t-53 48q-35 47 -54.5 94.5 t-31.5 88.5q-4 16 -7.5 36.5t1.5 20.5q8 0 20 -26.5t23 -45.5q31 -63 77.5 -127.5t102.5 -105.5q16 -14 10 -18.5t-16 -0.5zM53 365h-4h-2q0 6 2 12l4 12q16 35 31.5 52.5t50.5 37.5q20 12 57 24.5t60 12.5q4 0 11 -1t7 -7t-21.5 -16.5t-27.5 -14.5q-78 -47 -115 -71.5 t-53 -40.5z" />
<glyph unicode="B" horiz-adv-x="1036" d="M131 -33q-14 -14 -18 -12t0 9t6 11q16 18 25.5 27.5t21.5 20.5q-49 66 -71.5 140.5t-27 154t7 161.5t29.5 160q37 154 85.5 300t80.5 282q-66 -12 -118 -33t-68 -45q-6 -10 -11 -8t3 18q16 35 59 62.5t98.5 46t120 28.5t123.5 8q133 -4 222 -51t92 -139q0 -57 -40 -114.5 t-96.5 -107.5t-120 -90t-108.5 -63l-8 -28q31 27 82 43t107.5 16t110.5 -19.5t95 -62.5q55 -61 70.5 -140t-9.5 -155q-23 -76 -76 -124t-108 -73q-6 -4 -22.5 -9t-20.5 1q-2 4 10.5 15.5t18.5 15.5q55 37 94 100.5t48 132t-15.5 132t-95.5 98.5q-29 14 -76 21.5t-94.5 4 t-87 -21.5t-56.5 -57q37 23 84 35t95.5 11t91.5 -18.5t71 -52.5q35 -43 40 -90t-10 -92t-49 -84t-77 -66q-57 -35 -127 -68.5t-139.5 -69.5t-133 -76t-108.5 -85zM377 553q-37 -92 -60.5 -185.5t-52.5 -170.5q-10 -27 -14 -25q-6 2 -6 11.5v19.5q6 156 45 308.5t84 307.5 q29 96 54.5 197.5t29.5 218.5h-35q2 -55 -3 -109.5t-16 -93.5q-29 -111 -69.5 -229.5t-85.5 -224.5q-2 -4 -9.5 -19.5t-13.5 -13.5q-4 2 -5 18.5t1 22.5q2 25 9.5 61.5t14.5 75.5t16 76t18 63q2 10 11 47t19 89.5t21.5 112.5t19.5 118q-16 0 -24 -2q-10 -76 -30 -154 t-44.5 -157.5t-49 -158.5t-42.5 -159q-16 -68 -24.5 -141.5t-8.5 -146t12.5 -142.5t38.5 -133l19 18q-6 14 -12.5 35t-10.5 49q-4 23 -5 57.5t1 67.5t6 55.5t12 22.5q2 0 5.5 -10.5t5.5 -24.5t4 -26.5t2 -18.5q2 -18 4 -40.5t5 -47.5t6 -48.5t9 -39.5q47 43 100.5 77 t105.5 62.5t101.5 55t86.5 53.5q63 43 81.5 109.5t-22.5 119.5q-27 35 -73 49.5t-94 11t-87 -21.5t-51 -47zM702 866q4 -2 -9 -21.5t-17 -27.5q70 10 124 49t87 93.5t41 119t-13 129.5q-20 66 -67 111t-108.5 73.5t-133 41t-143.5 11.5t-137.5 -13.5t-114.5 -34.5 q-10 -4 -11 -4t-3 2q-2 6 10 14q51 45 130 67.5t166 22.5t175 -23.5t158.5 -71.5t116.5 -123t51 -175q2 -61 -16.5 -111.5t-49.5 -89.5t-71 -66.5t-83 -45.5q68 -31 117 -95.5t70 -128.5q25 -84 11.5 -159.5t-45.5 -137t-72 -105.5t-68 -63q-59 -39 -121 -60t-121 -32.5 t-113.5 -15.5t-97.5 -6q-33 -4 -33 2q-2 4 11.5 7t23.5 5q80 14 158 39t158 66q39 20 80.5 47.5t77.5 65.5t61.5 85t33.5 105q10 72 -3 142.5t-68 135.5q-53 63 -111.5 86t-126.5 19q-16 0 -16 2q0 4 22.5 14t28.5 14q18 12 38.5 28.5t22.5 12.5zM727 1100q0 66 -69.5 95.5 t-192.5 39.5q14 -63 18 -116.5t-1 -105.5t-18 -108.5t-30 -124.5q43 20 94.5 62.5t95.5 88.5t73.5 92t29.5 77zM444 1413q70 4 159 -15.5t161 -62.5q37 -23 61.5 -55.5t38 -68t15.5 -72.5t-9 -68q-2 -4 -4 -11t-6 -14.5t-8 -12.5t-8 -3q-6 0 -5 14.5t5 30.5 q10 57 -9.5 100.5t-58.5 73t-90 48t-105.5 28.5t-105.5 11t-88 -3q-51 -6 -101 -19.5t-93 -29.5t-74 -34.5t-43 -35.5q-12 -16 -15 -10q0 6 5 19q14 41 53 74.5t90 58t112.5 39t122.5 18.5zM344 33q-68 -27 -107.5 -47.5t-78.5 -53.5q-4 -2 -8.5 -8t-8.5 -4t0 11.5t9 13.5 q20 29 53 56.5t92 51.5q20 8 46 17.5t49.5 15.5t38.5 8t20 -4q2 -4 -12.5 -12t-33 -17.5t-36 -17.5t-23.5 -10z" />
<glyph unicode="C" horiz-adv-x="1003" d="M575 86q74 12 142.5 45t124.5 84q4 2 16 14.5t16 8.5t-2 -12.5t-10 -14.5q-41 -59 -107.5 -97t-138.5 -61q-59 -16 -126.5 -11t-127.5 34q-18 8 -22 13t0 7t13 2t18 -2q23 -4 52.5 -7t59 -4t54 -1t38.5 2zM301 688q-10 -72 -10 -140.5t9 -129t28.5 -107.5t48.5 -78 q33 -33 81 -50t104 -17t118.5 16.5t124.5 50.5q12 8 16 5q4 -4 -3 -9.5t-13 -9.5q-53 -41 -112.5 -65.5t-120 -30.5t-117 7t-101.5 50q-43 37 -69.5 89.5t-40 114.5t-15.5 130t4 133q8 104 41 211t87.5 197t130 157.5t170.5 94.5q47 12 96 10t91 -18.5t72.5 -48t41.5 -76.5 q10 -49 -8.5 -95.5t-51.5 -80t-74 -48t-77 -0.5q-2 0 -3 6.5t7 4.5q25 -4 56.5 11t57 41.5t41 63.5t9.5 76q-6 29 -26 50.5t-50.5 34.5t-68.5 17.5t-79 -4.5q-78 -14 -144.5 -68.5t-117.5 -132t-86 -173t-47 -189.5zM463 10q23 -2 46 -2t23 -6q0 -2 -8 -3t-17 -1h-19.5 h-12.5q-63 0 -124.5 18.5t-114 52t-93.5 83t-61 112.5q-41 125 -47 244t10 233q8 66 31.5 149t63.5 169t100.5 170t144.5 153q88 74 195.5 98.5t206 8.5t174 -68.5t100.5 -132.5q2 -4 4 -17.5t-2 -17.5q-2 -2 -6 10.5t-8 16.5q-86 117 -195 148.5t-215.5 6t-200.5 -94 t-149 -152.5q-96 -145 -146.5 -309t-46.5 -338q2 -80 17.5 -168t60.5 -168q45 -82 124 -136.5t165 -58.5zM168 780q16 109 52 211.5t94.5 187.5t144.5 146t203 86q41 8 92 7t102 -18.5t95 -52t73 -96.5q27 -59 18.5 -116.5t-35 -103.5t-65.5 -76.5t-76 -34.5q-23 -4 -24.5 1 t22.5 13q39 12 79 62.5t48 127.5q4 39 -10 77t-41 66.5t-63.5 49t-77.5 26.5q-88 12 -162 -12t-128 -62t-88 -75t-42 -49q-63 -80 -110.5 -173t-78.5 -196q0 -2 -3 -14t-6 -25.5t-7 -25t-6 -11.5q-4 0 -4 12.5v26t2 25.5t2 16z" />
<glyph unicode="D" horiz-adv-x="1200" d="M1018 713q-2 -6 -7 -16.5t-11.5 -21.5t-12.5 -18.5t-8 -5.5l2 11q2 10 5 22t6 23.5t3 15.5q31 164 0.5 282.5t-103.5 194.5t-178.5 113t-221.5 39q-84 0 -165 -13.5t-147.5 -34t-113 -45t-58.5 -47.5q-14 -25 -8 7q16 53 87 98t165 73.5t197.5 38t187.5 -11.5 q55 -12 110.5 -34.5t105.5 -54.5t92 -76t71 -101q55 -111 54 -228.5t-52 -209.5zM1151 727q-39 -115 -103.5 -207t-138 -164.5t-151.5 -126t-146 -90.5q-20 -10 -34.5 -16t-14.5 -2q-4 2 11.5 13t31.5 24q115 92 222.5 194.5t193.5 233.5q43 68 65.5 148.5t22.5 166.5 t-23.5 170t-72.5 156q-66 94 -159 149.5t-199.5 77t-219 13t-217.5 -39.5q-16 -4 -19 -6t-5 2t6 8.5t14 8.5q45 25 116.5 45t162 24t192.5 -15t207 -75q113 -61 175 -155.5t87 -193.5t20.5 -192.5t-24.5 -150.5zM260 25q-10 16 -25.5 52t-23.5 85q-4 25 -5 55.5t1 58t6 46 t12 18.5q2 0 5 -11.5t6.5 -25.5t4.5 -27.5t1 -19.5q4 -53 13 -106.5t28 -102.5q72 88 164 178t180 183.5t160.5 191.5t105.5 203q23 72 9.5 149.5t-52.5 141.5q-39 61 -110.5 102t-157.5 57q-35 6 -69 10.5t-71 4.5q6 -31 7.5 -67t-1 -70.5t-6.5 -66.5t-10 -56 q-29 -111 -67.5 -222.5t-81.5 -214.5q-4 -6 -11.5 -19t-11.5 -13t-4 16t2 23q2 25 8 60.5t13.5 72.5t15.5 72.5t16 60.5q4 12 15.5 59t23.5 108.5t23.5 130t15.5 126.5h-24q-4 -80 -22.5 -164t-44.5 -169t-53.5 -171t-47.5 -172q-4 -18 -11.5 -63.5t-11.5 -101.5t-4 -118.5 t9 -119t27.5 -101.5t53.5 -63zM940 743q-45 -106 -124 -204.5t-171 -189.5t-189.5 -173t-176.5 -156q-16 -14 -42 -2.5t-38 27.5q-43 57 -63.5 129t-25 148.5t5 155.5t27.5 153q41 170 93.5 328.5t76.5 302.5q-111 -12 -197.5 -50t-115.5 -92q0 -4 -3 -4t1 17q16 57 79.5 99 t151.5 65.5t189.5 27.5t197.5 -12q104 -18 181 -78.5t121.5 -141.5t51.5 -173.5t-30 -176.5zM500 1208q25 -53 19.5 -139t-24 -179t-42 -179t-35.5 -140q-25 -98 -59.5 -196.5t-57.5 -171.5q-10 -29 -14 -29q-6 0 -6 11.5v21.5q6 152 43.5 299t83.5 299q27 92 51 192.5 t28 210.5q0 14 5 17q2 0 4 -6.5t4 -10.5zM743 358q2 -2 -8 -16t-25.5 -31.5t-30.5 -35t-22 -23.5l-87 -87t-91 -75l-184 -117q-4 -2 -11.5 -4t-11.5 0t-3 6.5t3 8.5t7 8q35 25 78.5 61.5t91.5 75.5q35 27 83 68t94 77.5t79.5 62t37.5 21.5z" />
<glyph unicode="E" horiz-adv-x="950" d="M973 1419q14 10 12 1t-6 -15q-18 -29 -48 -49.5t-63.5 -32.5t-66.5 -18.5t-58 -6.5q-63 0 -130.5 12.5t-135.5 26.5q-4 0 -14 4.5t-10 8.5q-4 6 7 10t15 4q14 4 38 7t50.5 5t50 2h39.5q45 -4 93.5 -4t91.5 4t79 14.5t56 26.5zM1001 1487q10 4 6.5 -2t-6.5 -8 q-53 -47 -116.5 -59.5t-132 -9.5t-141 12.5t-146.5 4.5q-43 -2 -90 -16t-89 -40t-76 -65.5t-52 -91.5q-4 -8 -5 -8t-2 2t-1 6.5v6.5q12 74 44.5 125t77.5 82.5t98.5 46t106.5 16.5q74 2 144.5 -5t137 -13.5t128 -5t114.5 21.5zM328 1327q4 -6 -12.5 -20.5t-24.5 -18.5 q-16 -12 -30.5 -23.5t-27.5 -27.5q-16 -18 -27 -36.5t-22 -41.5q-4 -14 -8 -14q-2 0 -2 14v15q4 31 12.5 55t28.5 51q8 12 27.5 23.5t38 19.5t33 10t14.5 -6zM881 1282q10 4 9 -1t-5 -9q-27 -31 -77 -45.5t-107.5 -19.5t-114 -3t-92.5 2q12 -41 11 -99t-10.5 -125 t-23.5 -134.5t-29 -126.5q55 -4 108.5 -11.5t102.5 -10.5t94.5 0t88.5 20q10 4 10 -2t-4 -10q-49 -49 -108.5 -61.5t-125 -8.5t-133 14.5t-135.5 7.5q-43 -2 -86 -14t-83 -36.5t-74 -60.5t-54 -85q-2 -8 -6 -8t-4 7t2 11q10 59 34.5 98t59.5 68q35 147 79 294.5t73 278.5 q-2 0 -13.5 1t-11.5 6q0 4 6 8l12 8q86 41 176.5 44t184.5 -5q59 -4 119.5 -8t126.5 16zM430 1206q2 -51 0 -96t-12 -80q-18 -74 -41 -153.5t-51 -155.5q8 2 18 2h21l30 96q29 90 52.5 186.5t29.5 200.5h-47zM342 1208q-16 -123 -59 -252t-78 -264q16 6 29.5 11.5t25.5 9.5 q10 41 20.5 78.5t20.5 66.5q4 12 14.5 47t22.5 84t24.5 106.5t18.5 112.5h-39zM817 651q10 8 9 -1t-5 -13q-16 -29 -41.5 -51.5t-54.5 -35.5t-58.5 -20.5t-52.5 -5.5q-63 4 -132.5 17.5t-133.5 27.5q-4 2 -13 5.5t-9 9.5q-2 4 7 9t13 5q14 4 35.5 6t45.5 4t45.5 1t35.5 -3 q37 -4 81 -4t88 6t80.5 16.5t59.5 26.5zM862 266q4 2 4 -2t-2 -8q-45 -49 -99 -61.5t-113.5 -9.5t-121 15.5t-120.5 12.5q-76 2 -155 -35t-132 -127q-6 -8 -8 -8t-1 6t1 8q8 23 15 35t15 29q-29 57 -41 115.5t-14 121.5q0 47 8 70t56 47q78 41 166 41t176 -10 q57 -6 114.5 -9t118.5 17q10 4 8 -3t-6 -11q-27 -33 -74 -45.5t-100 -15.5t-102 -1t-78 0h-12q-14 -49 -30 -93t-30 -85q31 10 58.5 15.5t58.5 3.5q59 -2 118.5 -12.5t116 -17.5t108.5 -6.5t97 23.5zM295 440q-12 2 -38 5.5t-56 -1.5q-20 -2 -34.5 -16t-16.5 -35 q-4 -61 2 -117.5t20 -115.5l25 30q-2 25 -2 53.5t3 52t7 38t10 14.5q4 0 6 -10t4 -22.5t3 -24.5t1 -19q2 -12 3 -23t4 -24q10 6 18 12.5t18 10.5q3 92 23 192zM848 199q0 -6 -4 -15q-12 -29 -35 -50t-49.5 -35.5t-54 -21.5t-48.5 -7q-72 0 -130 16t-115 37q-4 2 -12.5 6 t-10.5 10q-2 4 8.5 8.5t14.5 4.5q12 2 31.5 3t41 1t42 -1t34.5 -1q35 -2 76 -3t79 4t71.5 15t52.5 29q6 6 8 0zM211 567q0 -6 -13.5 -18t-30.5 -26.5t-32.5 -27t-19.5 -16.5q-16 -16 -30.5 -31.5t-25.5 -37.5q-10 -18 -10 -5t2 19q4 16 13.5 44t35.5 54q12 10 29.5 21.5 t35 18.5t31 9t15.5 -4zM772 59q2 -8 -6 -12q-25 -20 -69 -29.5t-94 -13.5t-97 -4h-76q-51 0 -107.5 7t-97.5 18q-4 2 -11 3t-7 5t7 7t11 5q78 25 159 21.5t163 -13.5q51 -8 103 -12t110 18q12 4 12 0zM287 129q0 -6 -13.5 -15.5t-30 -19.5t-31.5 -19t-22 -14 q-16 -14 -28 -24t-25 -27q-10 -10 -14 -10h-2v2v4q10 31 21.5 51.5t39.5 42.5q12 8 28.5 17.5t33 14.5t29 5t14.5 -8z" />
<glyph unicode="F" horiz-adv-x="735" d="M23 469q-6 -14 -7.5 -5t0.5 13q14 80 58 129q8 70 29.5 149t46 158.5t48 156.5t40.5 142q-47 0 -91 7l-16 4q-2 6 14 14q80 41 172.5 44t184.5 -5q59 -4 118.5 -6t124.5 18q10 2 11 -4q0 -4 -6 -10q-23 -27 -59 -40t-79 -19.5t-87 -6.5h-83q10 -49 8.5 -113.5t-11 -134 t-25 -139t-29.5 -129.5q78 -10 148.5 -15t128.5 28q6 2 6 -3q0 -6 -2 -10q-37 -49 -84 -64.5t-98.5 -12.5t-106.5 13.5t-107 10.5q-66 0 -134 -38t-113 -132zM221 211q2 51 6 106.5t15 108.5q-8 2 -38 7t-59 7q-27 2 -34 -7t-9 -34q-10 -104 8.5 -206.5t61.5 -184.5 q4 -6 2 -10t-8 2q-68 82 -92.5 165t-28.5 177q-2 41 17.5 76t60.5 53q68 29 135.5 25t140.5 -13q43 -4 91.5 -7t95.5 20q6 4 8 2t0 -6.5t-4 -8.5q-18 -33 -54 -47t-77 -18t-81 -2t-67 2q-18 -61 -38.5 -114.5t-34.5 -98.5q-8 -27 -13 -25q-4 2 -4 11.5v19.5zM31 1214 q-4 -14 -7.5 -7t-0.5 14q10 74 42.5 125t77.5 82.5t98.5 47t106.5 17.5q72 2 141.5 -5t136 -13.5t127 -5.5t113.5 20q6 2 6 -2l-6 -8q-53 -47 -116.5 -59.5t-132 -9.5t-140 12.5t-141.5 4.5q-45 -2 -92 -16t-88 -39.5t-74 -65t-51 -92.5zM627 1296q-66 4 -140.5 16.5 t-140.5 28.5q-4 0 -15.5 4.5t-11.5 10.5q0 4 9.5 7t13.5 3q14 4 35.5 7t45 5t46.5 2h39q31 -2 79 -2t97 5.5t91 14.5t65 25q10 10 10 2q0 -4 -3 -8t-5 -8q-16 -29 -43 -50.5t-57.5 -36.5t-60 -21.5t-54.5 -4.5zM494 502q-53 4 -109.5 18.5t-110.5 32.5q-2 0 -9 4t-7 10 q0 4 10.5 8.5t20.5 6.5q16 4 47 7t57 -1q33 -4 72 -5t73.5 4t63.5 17t43 31q2 6 8 6h2q2 -4 1 -10t-3 -10q-23 -59 -71.5 -90t-87.5 -29zM256 870q2 10 13.5 44t25.5 81t27.5 102.5t19.5 110.5h-47q-16 -129 -62.5 -263t-82.5 -271q16 8 31.5 14t31.5 10q10 45 21.5 91 t21.5 81zM365 1018q-23 -86 -42.5 -159t-50.5 -154h7h13t17 -5q8 33 18.5 63t20.5 64q25 86 45.5 173t28.5 208h-41q0 -47 -3 -101t-13 -89zM197 145q6 -35 16 -68.5t23 -68.5q2 -4 3 -11t-3 -7t-10.5 4t-10.5 8q-25 31 -40 57.5t-25 85.5q-4 23 -5.5 58t0.5 67.5t7.5 55 t13.5 22.5q2 0 5 -10t5 -23.5t3 -27t1 -17.5q4 -35 7.5 -65.5t9.5 -59.5zM106 1241q-16 -20 -29.5 -39.5t-23.5 -42.5q-2 -4 -6 -3t-2 18q4 35 10 57t35 51q10 12 28.5 23.5t35 19.5t30 10t15.5 -6q2 -6 -13.5 -20.5t-23.5 -18.5q-33 -24 -56 -49zM33 408q-4 -8 -8 -5 q-2 2 0 21q8 29 18 52.5t33 45.5q8 8 25.5 16.5t33 13.5t25.5 6t6 -5q-12 -16 -31.5 -34.5t-39 -39t-37 -39t-25.5 -32.5z" />
<glyph unicode="G" horiz-adv-x="1003" d="M301 682q-10 -72 -10 -139.5t10 -127t29.5 -107.5t50.5 -81q39 -41 101.5 -58t140.5 -7q20 80 47.5 153.5t53.5 143t44 137.5t18 133q0 6 2 6t5.5 -6t3.5 -8q25 -76 15.5 -152.5t-35 -156.5t-58.5 -163t-53 -171q-10 -39 -12.5 -91.5t7 -106.5t33 -107.5t66.5 -94.5 q2 -4 6 -8l2 -2h-6q-2 0 -4 2q-55 37 -91 84t-53.5 97.5t-20.5 100.5t5 91q-61 -14 -121.5 -4t-111.5 37q-10 4 -21.5 16t-9.5 14l32 -5q31 -5 71 -10t80 -8t58 -1q6 2 13.5 3t17.5 5q0 10 2 19.5t6 19.5q-72 -16 -139 -4t-121 57q-43 37 -68.5 89.5t-39 113.5t-15.5 128 t5 132q8 104 40.5 211t87 198t129 157.5t169.5 93.5q43 12 92 10t92 -18.5t74.5 -46t40.5 -74.5q10 -49 -8.5 -95.5t-51.5 -80t-74 -48t-77 1.5q-14 4 -7 9q4 2 6.5 0t6.5 -2q25 -4 55.5 10t56 40.5t41 62.5t9.5 73q-6 31 -26 53.5t-50.5 36.5t-68.5 18.5t-81 -4.5 q-76 -14 -141.5 -68.5t-116.5 -133t-86 -175t-47 -192.5zM463 6q29 -4 33 -6t-31 -2q-57 0 -115.5 18.5t-110 52t-92.5 83t-61 108.5q-45 129 -53 247t10 236q10 63 32.5 145.5t62.5 168.5t99.5 170t143.5 153q88 74 196.5 97.5t207 7t174 -70.5t100.5 -134q2 -4 6 -16.5 t0 -14.5t-8 8.5t-15 22.5q-86 117 -194.5 147.5t-214 6t-198.5 -93t-148 -152.5q-96 -141 -143.5 -308t-45.5 -339q2 -84 18.5 -170t59.5 -168q41 -80 122 -133.5t165 -63.5zM172 782q14 106 49 210t93.5 188t144.5 145t203 86q39 8 89 7t100 -18.5t94 -52t73 -96.5 q27 -59 19.5 -117.5t-33 -104.5t-63.5 -76.5t-75 -34.5q-6 -2 -15 -1t-9 5t2 3t22 7q14 6 34 21.5t37 40t31.5 57t18.5 71.5q4 41 -10 78t-42 66.5t-64.5 50t-75.5 26.5q-121 18 -219.5 -31.5t-174 -137t-127 -195t-77.5 -203.5q0 -2 -4.5 -14t-8.5 -26.5t-7 -26t-5 -11.5 t-3 11.5t0 27t2 28.5t1 17zM874 59q-12 -45 -35.5 -113.5t-41.5 -125.5q-6 -16 -11 -17q-8 0 -9 7.5t-1 11.5q-6 55 -2 105t16.5 99.5t30 98.5t35.5 104q25 72 45.5 140.5t24.5 154.5q0 10 1 11.5t5 1.5l6 -13q20 -43 17 -106.5t-17 -131t-34 -129t-30 -98.5zM881 385 q-29 -78 -64 -162t-72 -162q-2 -2 -7 -13t-11 -9q-4 2 -4 13v18q0 18 4 45.5t10 55.5t13.5 54.5t15.5 44.5q4 12 18.5 66.5t28.5 119t22.5 126t0.5 92.5q-4 10 0 14q4 0 7 -5t7 -9q18 -29 28.5 -67t13.5 -78t0 -77.5t-11 -66.5zM760 -219q25 -51 59 -96q6 -6 2 -11 q-6 -4 -12 0q-4 2 -6 4q-29 16 -47.5 33t-36.5 64q-6 16 -11.5 41.5t-7.5 49t-1 40t8 14.5q10 0 17 -24.5t9 -30.5q8 -23 12.5 -43.5t14.5 -40.5z" />
<glyph unicode="H" horiz-adv-x="1169" d="M756 475q-88 8 -181.5 23.5t-175.5 38.5q-4 2 -18 6t-14 8q0 6 14 8t18 2q41 4 104.5 5t104.5 -5q39 -6 91.5 -10t105.5 -2t103 10t87 25q16 6 37 24.5t31 36.5q-66 -43 -145.5 -53t-166.5 -4t-176.5 18t-175.5 17q-55 2 -113.5 -4.5t-112.5 -25t-99 -49t-74 -75.5 q-4 -10 -3 -3t1 11q16 82 76.5 124t132.5 65q27 111 61.5 219t64 210.5t49 199t17.5 186.5q2 4 1 8t3 4q4 2 5.5 -5t1.5 -9q27 -90 20.5 -187.5t-30 -198t-57.5 -204t-62 -207.5l53 6q10 47 21.5 96.5t23.5 85.5q4 12 13 50t19.5 91.5t21.5 115t18.5 119t8.5 104.5t-5 73 q0 18 2 19q4 0 8 -5t6 -10q23 -35 34 -84t14 -103t-2 -107.5t-15 -92.5q-25 -86 -53.5 -176t-61.5 -176h35h10q8 35 20.5 70t22.5 69q27 96 53.5 197.5t30.5 218.5q0 10 2 10q4 0 5 -4t3 -8q18 -45 17.5 -114.5t-13 -146.5t-32 -156t-35.5 -142q76 -6 146.5 -16.5 t142.5 -18.5q27 111 60.5 218.5t63 209t49 197.5t17.5 184q0 10 4 10t6 -4t2 -6q27 -92 20 -191.5t-31.5 -201.5t-59.5 -207.5t-64 -212.5q12 -4 25.5 -2t27.5 2q8 51 22.5 105.5t27.5 93.5q4 12 13 50t19.5 91t21.5 114.5t18 120t8.5 105.5t-5.5 74q-4 14 2 16q4 2 8.5 -3 t6.5 -9q23 -35 35 -84t15 -102.5t-2 -106.5t-15 -92q-25 -92 -58 -186.5t-67 -186.5l51 8q10 35 22.5 73t22.5 75q29 98 54.5 199.5t29.5 215.5v11.5t2 1.5q4 0 8 -13q25 -55 18.5 -143t-25 -183t-43 -184.5t-36.5 -142.5q-23 -98 -57.5 -202.5t-61.5 -182.5q-6 -25 -16 -24 q-4 2 -3 12t1 20q4 88 17.5 175t35.5 180q-51 -35 -116.5 -51.5t-112.5 -12.5zM346 211q4 98 19 192q-35 4 -69 9.5t-67 11.5q-8 -111 6.5 -218.5t61.5 -197.5l4 -8q0 -10 -12 0q-82 90 -105.5 201.5t-15.5 230.5l-45 8q-10 0 -17.5 4.5t-7.5 8.5t8.5 6t14.5 4 q117 25 233.5 18.5t237.5 -20.5q76 -8 153.5 -14.5t163.5 14.5q8 2 11 -2q0 -2 -9 -10q-35 -33 -94 -46q-10 -111 2 -218t62 -185q6 -6 0 -6q-2 0 -4.5 2t-6.5 4q-39 33 -62.5 77t-35.5 95t-15 107.5t-1 113.5q-43 -4 -88 -4t-88 2t-82 5t-68 5q-16 -55 -34.5 -105 t-30.5 -91q-4 -10 -8.5 -19.5t-8.5 -5.5q-4 0 -3 10.5t1 20.5zM905 119q10 -39 18.5 -70t22.5 -49q2 -2 4 -5t-2 -5q-8 0 -22 10q-23 16 -40.5 36.5t-27.5 82.5q-4 25 -4 59.5t2 66t7 54.5t11 20q4 0 6.5 -10t4.5 -22.5t3 -24.5t1 -18q4 -35 7 -65.5t9 -59.5zM319 145 q12 -74 39 -137q4 -14 2 -14q-10 0 -22 12q-27 31 -40 55.5t-24 83.5q-4 23 -5 58t1 67.5t7.5 55t11.5 22.5q2 0 5 -10t5 -23.5l4 -27t2 -17.5q4 -35 7 -65.5t7 -59.5zM70 475q-27 -14 -37 -24.5t-25 -26.5q-8 -10 -8 -6v10q8 31 20.5 49.5t40.5 40.5q14 12 40 20.5 t50.5 11.5t43 2t18.5 -7t-23.5 -16.5t-29.5 -14.5q-25 -10 -47.5 -19.5t-42.5 -19.5z" />
<glyph unicode="I" horiz-adv-x="536" d="M418 1040q-29 -111 -71 -229.5t-87 -224.5q-2 -4 -8 -19.5t-14 -13.5q-4 0 -3 17.5t1 23.5q2 25 8 61.5t14 75.5t16.5 76t16.5 63q4 12 13 50t20.5 91.5t22.5 115t19.5 119t10.5 104.5t-6 73q-4 8 -2 13.5t4 5.5q4 0 6 -5t6 -10q23 -35 35 -84t15 -103t-2 -107.5 t-15 -92.5zM399 586q-25 -98 -59.5 -200.5t-60.5 -180.5q-4 -10 -8.5 -19.5t-6.5 -5.5q-4 0 -5 10.5t-1 20.5q6 154 44 307.5t85 308.5q29 96 52.5 197.5t31.5 218.5q0 10 6 10q2 0 4 -4l4 -8q23 -55 18 -144t-23.5 -184.5t-43.5 -184.5t-37 -142zM211 8q6 -12 4 -12 q-4 0 -8 2t-6 2q-57 68 -84 146.5t-32 162.5t6 170t30 168q27 113 61.5 224.5t64 217t49 204t17.5 188.5q0 10 4 12q2 0 5.5 -6t3.5 -8q29 -98 18.5 -204t-40.5 -216.5t-66.5 -225t-63.5 -227.5q-16 -72 -25.5 -149.5t-6.5 -156.5t19.5 -154t49.5 -138zM233 145 q10 -66 41 -137q2 -4 3.5 -10t-3.5 -6q-4 0 -12 4q-4 2 -6 6q-27 31 -42 57.5t-26 85.5q-4 23 -5 58t1 67.5t7.5 55t13.5 22.5q2 0 5 -10t5 -23.5t3 -27t1 -17.5q4 -35 6 -65.5t8 -59.5z" />
<glyph unicode="J" horiz-adv-x="698" d="M745 1419q-4 -29 -25.5 -51t-50 -37.5t-60 -25t-58.5 -9.5q-33 0 -77 8.5t-84 20.5t-67.5 24.5t-27.5 22.5q0 4 8 6t21.5 4t28 2h24.5q41 0 91 -4t91 -2q33 0 55.5 2t42 7.5t38 12.5t42.5 19q4 4 8 0zM766 1485q0 -20 -19.5 -34.5t-45 -24t-53 -14.5t-42.5 -5 q-76 0 -153.5 16.5t-153.5 16.5q-90 0 -161.5 -42t-112.5 -118q-4 -6 -10.5 -6t-2.5 10q33 100 104.5 159.5t186.5 59.5q86 0 171 -19.5t171 -19.5q31 0 64.5 7.5t42.5 11.5q2 2 8 3t6 -1zM186 1360q0 -4 -12 -14.5t-28.5 -21.5t-32 -20.5t-21.5 -13.5q-18 -16 -32.5 -33.5 t-30.5 -35.5q-2 0 -2 -3.5t-4 -3.5q-2 0 -3 7q0 25 14.5 51t36 47.5t49 35t54.5 13.5q12 0 12 -8zM651 997q2 -100 -20.5 -209.5t-63.5 -221t-93 -220t-109.5 -205t-114.5 -178.5t-105 -139q-2 -2 -6 -7t-8 -10.5t-8 -6.5t-4 7q-2 6 23.5 56.5t63.5 124t84 159.5t87 165 t71.5 139.5t38.5 83.5q23 61 46.5 129.5t43 142.5t30.5 151.5t9 157.5q0 16 2 17q4 0 6.5 -3.5t6.5 -17.5q6 -20 13 -58.5t7 -56.5zM485 1206q-16 -168 -51 -302t-77 -242.5t-88 -196.5t-83 -162q-39 -78 -72.5 -155.5t-59 -158.5t-41 -167t-15.5 -182q0 -23 -4 -19 q-4 0 -7 11.5t-7.5 26.5t-7.5 29.5t-3 24.5q-10 94 1.5 177t35 160t56 148.5t63.5 145.5q33 78 81 180.5t95 216t86 233.5t53 232q-78 4 -160.5 17.5t-154.5 33.5q-4 2 -8 4.5t-4 6.5q-2 6 9 10t13 4q66 16 123 16q78 0 153.5 -15t153.5 -15q25 0 52.5 5t37.5 9q8 4 8.5 -1 t-1.5 -9q-18 -23 -44 -36t-55 -22q6 -27 8 -48t4 -38q12 -104 -11 -219.5t-68 -231.5t-106.5 -227.5t-125.5 -205.5q-16 -23 -23.5 -14.5t3.5 34.5q12 33 38.5 91.5t55.5 121t53.5 117.5t32.5 80q53 166 76.5 300t19.5 234q-10 -2 -18.5 -2h-16.5zM127 10q0 -12 -6 -44 t-14.5 -68.5t-16.5 -70.5t-10 -50q-10 -43 -15.5 -86t-9.5 -90q0 -4 -1 -12.5t-7 -8.5q-4 2 -6 12.5t-4 14.5q-4 18 -9 48t-5 46q0 51 10 107.5t24.5 103.5t30.5 77.5t31 28.5q4 -2 5 -4t3 -4z" />
<glyph unicode="K" horiz-adv-x="1169" d="M1130 1327q0 -37 -17 -78t-41.5 -80t-55.5 -70.5t-60 -51.5q-78 -57 -171 -109.5t-181 -87.5q-4 -2 -18.5 -7t-18.5 -1t6.5 15t16.5 15q14 14 37.5 35t49 40.5t51.5 38t46 28.5q14 8 64.5 46t108 88t107.5 101t62 84q8 14 12 10q2 -2 2 -8v-8zM238 567 q76 -10 147.5 -29.5t132.5 -72.5q72 -61 147.5 -136t139.5 -147q4 -4 12 -15t4 -17q-2 -4 -15 1t-18 9q-18 10 -43.5 27.5t-52 38t-51.5 40t-41 35.5q-10 10 -54 46t-103.5 76t-124 74.5t-115.5 47.5q-16 4 -15.5 20.5t2.5 28.5q4 25 11.5 61.5t14.5 75.5t15.5 76t16.5 63 q6 18 22.5 92t32.5 164.5t24.5 174t-1.5 122.5q-4 18 2 19q4 0 6 -5t6 -10q23 -35 35 -84t15 -103t-2 -107.5t-15 -92.5q-23 -86 -51.5 -171t-61.5 -171q23 33 43.5 63t36.5 56l2 10q20 98 50 198.5t34 217.5q4 10 6 10t4 -4l4 -8q23 -55 17 -144t-25 -186q25 20 48.5 39 t51.5 37q78 53 160 102.5t159 100.5t142.5 104.5t112.5 116.5q6 6 8 2q2 0 1 -5t-1 -7q-31 -84 -93.5 -148.5t-141 -120t-164.5 -104.5t-164 -104q-96 -66 -180 -156t-133 -201zM336 580q-10 0 -27.5 1t-32.5 -1q8 16 19.5 32.5t21.5 32.5q12 16 30 35.5t35 35t30.5 22.5 t17.5 -1q2 -2 -3 -10t-13 -19.5t-15.5 -20.5t-9.5 -13q-23 -29 -33 -50t-20 -44zM1120 25q-4 -4 -11 -1t-15 7q-59 27 -111.5 65.5t-102 83.5t-97.5 93.5t-97 95.5q-35 33 -74 67.5t-79.5 64t-85 51t-89.5 28.5q27 39 86.5 88t129 96t137 90t110.5 70q72 45 144.5 96 t134.5 125q6 8 12 6q0 -4 -2 -7t-2 -7q-10 -51 -60.5 -107.5t-114 -108t-129 -95.5t-104.5 -70q-37 -25 -76.5 -47.5t-80.5 -44t-79 -39t-71 -31.5q53 0 122 -33t136.5 -79t125 -96t87.5 -83q66 -72 130.5 -139.5t113.5 -116.5q16 -16 12 -22zM281 1479q29 -98 18.5 -204 t-40.5 -216.5t-66.5 -225t-63.5 -227.5q-16 -72 -25.5 -149.5t-6.5 -156.5t18.5 -153.5t50.5 -138.5q8 -16 6 -16q-4 0 -8 4t-6 4q-57 68 -84 146.5t-33 162.5t5 170t30 168q27 113 61.5 224.5t64 217t50 204t18.5 188.5q0 12 2 12q2 2 5.5 -5t3.5 -9zM1249 -41q0 -4 -4 -6 l-8 -4q-78 -29 -150.5 -26t-141 24.5t-131 56.5t-118.5 70q-55 35 -106 80t-100.5 92t-97.5 92t-95 80l-64 -213q-4 -10 -7 -18.5t-7 -6.5t-5 11.5t-1 19.5q2 59 10 120.5t21 123.5q-12 8 -30.5 18t-35.5 21q-4 2 -10 7t-4 9q0 2 10 2q74 -6 144.5 -48t141 -100.5 t142.5 -126t150 -128.5q98 -76 225 -120t258 -28q14 4 14 -2zM229 -8q-4 0 -12 4q-4 2 -6 6q-27 31 -42 57.5t-26 85.5q-4 23 -5 58t1 67.5t7.5 55t13.5 22.5q2 0 5 -10t5 -23.5t3 -27t1 -17.5q4 -45 7 -73.5t7 -51.5q10 -66 41 -137q2 -4 3 -10t-3 -6zM971 33 q14 -2 35.5 -7.5t33.5 -9.5q53 -14 89 -21t85 -9h11.5t7.5 -4q0 -8 -21 -11q-25 -4 -43 -4t-47 2q-16 2 -38.5 6.5t-45 11.5t-42 14t-27.5 15t-6 15q0 2 8 2z" />
<glyph unicode="L" horiz-adv-x="915" d="M395 1040q-29 -111 -70.5 -229.5t-86.5 -224.5q-2 -4 -10.5 -19.5t-12.5 -13.5q-6 0 -5 17.5t3 23.5q2 25 9 61.5t14.5 75.5t16.5 76t17 63q6 18 22.5 92t32 164.5t23.5 174t0 122.5q-4 18 0 19q4 0 7 -5t7 -10q23 -35 35.5 -84t15.5 -103t-2.5 -107.5t-15.5 -92.5z M303 1479q29 -98 18.5 -204t-40 -216.5t-66.5 -225t-63 -227.5q-25 -106 -34 -210.5t13 -213.5q6 10 13.5 14.5t15.5 10.5v50.5t2 46t6 32.5t12 12q2 0 5 -10t5.5 -23.5t4.5 -27t2 -17.5q2 -16 2 -24t4 -19q4 2 13 5.5t20 5.5q10 147 46.5 293.5t82.5 295.5q29 96 54 197.5 t30 218.5q0 10 6 10q2 0 2 -4t4 -8q23 -55 16.5 -144t-25 -184.5t-43 -184.5t-36.5 -142q-23 -86 -51.5 -175t-55.5 -167q39 6 83 8t81 1t64.5 -2t35.5 -1q59 -2 123 -14.5t111 -20.5q16 -4 16 -8t-6 -6t-10 -4q-90 -29 -181 -24t-190 15q-37 4 -77 6.5t-78.5 -1 t-74.5 -14.5t-65 -36q-45 117 -38.5 246t36.5 258q27 113 62 224.5t64.5 217t49 204t17.5 188.5q4 12 6 12q2 2 4 -5t4 -9zM874 256q4 6 7.5 -1t-0.5 -17q-12 -31 -23.5 -53.5t-44.5 -45.5q-14 -10 -34.5 -18t-39 -12.5t-33 -4.5t-14.5 9q-2 6 17.5 16t27.5 14 q16 10 32.5 19.5t33.5 21.5q16 16 35.5 32.5t35.5 39.5zM885 195q6 10 6 1.5t-2 -12.5q-31 -70 -71 -106.5t-86 -54t-96 -20.5t-99 -3q-137 2 -267.5 11t-234.5 -11q-4 0 -8 -1t4 5q49 49 110.5 59.5t130 3t140 -21.5t139.5 -16q86 -2 177 36t157 130zM571 100q0 -4 -8 -6 t-12 -2q-31 -6 -83 -8t-95 2q-10 0 -47 3t-85 2t-97.5 -11t-84.5 -35q-8 -8 -12 -2q0 2 3 9t5 9q29 45 89.5 69t121.5 30q66 6 141.5 -7.5t143.5 -33.5q2 0 11 -6.5t9 -12.5z" />
<glyph unicode="M" horiz-adv-x="1425" d="M475 1481q-8 18 -4 18q6 0 14.5 -9t10.5 -11q20 -31 44.5 -67t47 -85t41 -113.5t28.5 -152.5q12 -100 5 -197.5t-23 -195.5q-2 -4 -4 -20.5t-8 -16.5q-4 0 -8.5 15.5t-4.5 21.5q-4 23 -8 53.5t-7 64t-4 65.5t-1 56q0 8 -1 36t-3 64.5t-7 81t-12 87.5q4 -63 0 -127 t-10 -128.5t-10 -129t0 -129.5q6 -127 51 -258.5t143 -223.5q12 -12 11 -12q-4 -2 -15 4q-72 41 -119 98.5t-76.5 125t-44 140t-16.5 146.5q0 6 -1 11t-1 12q-41 -117 -91 -225.5t-98 -209t-90 -189.5t-67 -165q-4 -10 -6 -10q-4 0 -4 6v8q2 96 39 201.5t87 219.5 t105.5 233.5t96.5 244.5q25 80 42 166t21 172t-6 169t-37 155zM729 301q23 -47 59 -88q14 86 55.5 171t93.5 171t109.5 172t106.5 174q37 63 62.5 137t37 151t6 152.5t-31.5 143.5q-6 10 -2 14t13 -5t11 -13q25 -35 40.5 -91.5t22.5 -125t7 -144.5t-6 -151 q-8 -100 -29.5 -219t-52.5 -218q-2 -4 -7 -18t-12 -14q-4 2 -6 17t-2 20q0 23 1 54.5t3 65t5.5 65.5t7.5 54q2 12 7 56.5t9 99.5q-25 -57 -39 -102.5t-24.5 -88.5t-17.5 -90t-13 -110t-5 -133t14 -137.5t39 -132t66 -118.5q8 -12 5 -14q-4 -2 -11 4q-66 53 -103.5 120 t-56 140.5t-19.5 150.5t7 150q4 27 7.5 53.5t7.5 55.5q-47 -76 -94.5 -147.5t-88.5 -142.5t-72.5 -139.5t-47.5 -135.5q-4 -10 -5 -11q-4 0 -4 8.5v10.5v32.5t4 32.5q-16 8 -28.5 15.5t-23.5 17.5t-22.5 24.5t-23.5 37.5q-10 20 -20.5 48.5t-17.5 56.5t-8 47.5t5 19.5 q4 0 9.5 -7.5t11.5 -17.5t10 -20.5t6 -14.5q10 -25 21.5 -48t23.5 -46zM772 680q45 88 93 171t77 132q49 88 102.5 173t92.5 151q4 10 9 18t9 4q4 0 2 -10t-4 -21q-29 -147 -103.5 -278t-156.5 -264q-29 -45 -50.5 -75t-36.5 -57.5t-25.5 -60.5t-14.5 -84q8 23 18.5 43.5 t20.5 38.5q57 98 129 196.5t141 184.5q4 4 15.5 17.5t15.5 11.5t-1 -18.5t-7 -24.5q-10 -23 -25.5 -55.5t-33 -66.5t-36 -65.5t-32.5 -52.5q-8 -12 -35 -49t-57.5 -92t-60.5 -125t-44 -148q-6 12 -15 31t-22 60q-37 129 -40 261t-1 271q2 88 1 176t-29 187q-2 8 0 12 q4 0 12 -12q37 -39 55.5 -114t26.5 -158t9 -161.5t1 -126.5v-20zM233 858q35 106 79 215t77 195q4 10 9 20t10 8q4 0 3 -13t-1 -23q-18 -168 -73.5 -334t-123.5 -328q-41 -102 -88 -205.5t-78 -224.5q-4 -10 -3 -12t-1 -2q-6 4 -6 18q-10 61 12.5 154.5t57 192.5t71.5 190.5 t55 148.5zM145 371q51 117 110.5 240.5t115.5 236.5q2 6 11 22.5t17 14.5q4 0 2 -18.5t-6 -26.5q-6 -29 -16 -69t-23.5 -82t-28 -82t-26.5 -66q-6 -12 -21.5 -52t-37 -95.5t-45 -118t-44 -119t-36 -100.5t-17.5 -62q-4 -20 -8 -21q-4 0 -5 8.5t-3 12.5q-10 25 -9 72t11 100 t25.5 108.5t33.5 96.5zM1366 547q-10 -92 -31.5 -184.5t-38.5 -163.5q-8 -27 -12 -25q-4 0 -5 9.5t-3 19.5q-16 137 4 274t45 281q16 86 26.5 177t0.5 195q0 8 4 13q4 0 5 -5t5 -8q31 -45 36 -123.5t-1 -164.5t-17.5 -166t-17.5 -129zM438 1329q-4 43 -11 80t-17 76 q-2 4 -2 10t2 6q6 0 12 -6l8 -8q23 -31 37 -60.5t18 -97.5q2 -27 0 -65.5t-7 -73.5t-12 -59.5t-13 -22.5q-4 0 -6.5 11t-3.5 25.5t-1 30v21.5v66.5t-4 66.5zM1188 1356q-2 37 -7 69.5t-16 67.5q-2 4 -3 10t3 4q4 -4 7.5 -6t7.5 -4l4 -4q23 -29 36 -55.5t15 -87.5 q0 -23 -5 -58t-12.5 -66.5t-16.5 -53t-17 -17.5q-4 2 -4 13.5v24.5t2 25.5t2 18.5q4 33 5 61.5t-1 57.5zM1260 143q12 -35 27.5 -63.5t31.5 -56.5q2 -2 4 -7.5t-2 -5.5q-6 0 -9 2t-7 4t-7 4q-29 23 -47 43.5t-37 73.5q-6 20 -12 51t-8 59.5t0 49t10 20.5q2 0 6 -9t7.5 -20.5 t6.5 -22.5t5 -15q10 -29 16.5 -55.5t14.5 -51.5z" />
<glyph unicode="N" horiz-adv-x="1114" d="M551 1030q18 -109 22.5 -237.5t8.5 -237.5q0 -6 -1 -22.5t-10 -18.5q-4 0 -10 17.5t-8 23.5q-8 25 -15.5 57.5t-13.5 66.5t-10 67.5t-6 62.5q0 6 -3 34.5t-9.5 66.5t-14.5 82t-18 85q0 -86 -3 -169t3 -167q4 -53 12 -103t19 -101q14 -72 42.5 -143.5t68.5 -135t92.5 -116 t113.5 -83.5q10 -4 9 -9t-9 -3q-84 18 -147.5 68.5t-111.5 120t-79 151.5t-47 164q-6 35 -12 69.5t-11 69.5q-31 -98 -66.5 -192.5t-68 -180.5t-57.5 -165.5t-37 -151.5q-2 -2 -2 -4l-4 -4q-6 0 -6 8q-14 94 7 193.5t59 204t81 214t72 222.5q18 70 26.5 148.5t4.5 155 t-25.5 148.5t-60.5 131q-10 12 -7 17q4 4 12.5 0t14.5 -11q41 -41 73 -78.5t56.5 -82.5t43 -100.5t32.5 -131.5zM799 553q12 59 22 104t23.5 86t31 83t44.5 94q4 6 13 21t15 13q4 0 2 -18t-4 -25q-6 -27 -15 -61.5t-19.5 -72.5t-20.5 -74.5t-17 -63.5q-8 -35 -17 -85 t-18.5 -111.5t-14.5 -131t-3 -143.5q-18 10 -37.5 25.5t-38.5 44.5q-43 61 -66.5 129.5t-37.5 142.5t-20.5 150.5t-14.5 150.5q-10 96 -18 194.5t-43 202.5q-4 10 -5 11.5t3 3.5q6 0 12 -11q27 -27 46.5 -77t34.5 -111t26.5 -130t19.5 -133.5t15.5 -118.5t13.5 -89 q14 119 30.5 212t34.5 150q16 51 39 106.5t49.5 110t54 103.5t52.5 86q6 10 12 18.5t10 3.5q4 -4 1 -13t-7 -19q-27 -80 -50.5 -143.5t-47 -125t-44 -128t-40.5 -148.5q-12 -53 -28.5 -112.5t-26 -122t-6 -127t29.5 -125.5q-2 35 0 78.5t7 83.5t10.5 71t7.5 41zM758 176 q23 -25 47 -44t53 -36q-16 92 -6 191.5t34.5 202t57.5 205t64 200.5q45 143 72.5 298t31.5 308q0 16 2 17q6 0 6 -11q18 -88 20.5 -171t-8 -163.5t-29 -160.5t-42.5 -162q-31 -111 -63.5 -222.5t-58.5 -219t-38 -211t-4 -195.5q0 -8 -4 -8t-5 3t-3 5q-8 20 -9.5 22.5 t-7.5 22.5q-4 16 -12 22.5t-12 8.5q-35 12 -59.5 22.5t-65.5 51.5q-16 16 -34.5 44.5t-33 56.5t-20.5 49.5t0 23.5q2 0 10 -7.5t16.5 -16.5t15.5 -19.5t9 -12.5q37 -55 76 -94zM158 858q25 94 58.5 192.5t55.5 176.5q4 10 7.5 18t7.5 6q4 0 4 -10v-20q2 -150 -39 -299.5 t-92 -294.5q-33 -92 -66 -187.5t-49 -206.5q-2 -10 -2 -11t-4 -1q-2 0 -6 15q-12 55 1 139t35.5 175t49.5 174t39 134zM119 422q37 104 83 218t93 216q2 4 10 18.5t12 14.5q4 -2 5.5 -18.5t-3.5 -22.5q-4 -25 -11 -60.5t-17 -73.5t-20.5 -73t-18.5 -59q-6 -18 -27.5 -90 t-44 -159t-40 -169t-13.5 -121q0 -18 -6 -18q-2 0 -5 7t-7 11q-16 35 -21.5 84t-2.5 102.5t12.5 103.5t21.5 89zM1032 1370q8 41 12.5 79t8.5 81q0 4 2 9t6 5q2 0 8 -10q2 -4 2 -8q6 -20 9 -36.5t4 -35t0 -42t-7 -54.5q-4 -25 -13 -59.5t-19.5 -66.5t-19.5 -53.5t-15 -19.5 q-4 0 -4 11.5t2 24.5t4 27.5t2 22.5l18 125v0zM313 1284q-8 35 -19 67.5t-30 61.5q-8 12 -4 14q4 0 12 -4l9 -4q27 -25 46 -49t31 -82q6 -23 8.5 -56.5t1.5 -66t-5.5 -55.5t-12.5 -20q-4 0 -6 10t-4 23.5t-4 25.5t-2 16q-4 33 -8.5 61.5t-12.5 57.5z" />
<glyph unicode="O" horiz-adv-x="1187" d="M1139 920q0 -94 -17.5 -200t-53.5 -208t-89 -194.5t-126 -163t-165 -112.5t-203 -42q-102 0 -177 60.5t-121 158.5t-63.5 225t-5 258.5t52.5 258t109.5 225t168 159t225.5 60.5q100 0 167.5 -45t109.5 -114.5t60.5 -154.5t18.5 -165q0 -96 -16.5 -187.5t-57.5 -177.5 q-12 -29 -13 -19.5t3 27.5q14 74 25.5 146.5t11.5 148.5q0 72 -14.5 156t-49 155.5t-96 119.5t-155.5 48q-80 0 -149.5 -30.5t-126 -81.5t-99.5 -120t-74 -142q-25 -61 -41 -154.5t-18 -196t12 -207t53 -186.5t102.5 -134t159.5 -52q100 0 190.5 56.5t163 141.5t124 182 t73.5 181q20 74 31.5 165t6.5 184t-28.5 181.5t-70.5 157t-120 110.5t-177 42q-156 0 -268.5 -78t-185 -196.5t-107.5 -262t-35 -274.5q0 -61 8 -124t12 -104q2 -16 -3 -17t-11 15q-8 27 -14 63t-11.5 76t-8.5 79.5t-3 74.5q0 143 38 287.5t116 259.5t197.5 187.5 t283.5 72.5q123 0 209 -55t140.5 -140t78 -187.5t23.5 -196.5zM946 901q0 -88 -20.5 -185.5t-60.5 -190.5t-97 -174t-131 -138q-35 -27 -75 -45t-87 -18q-41 0 -68.5 17t-48.5 48q-16 23 -10 23t23 -17q18 -16 36.5 -28.5t49.5 -12.5q57 0 109 40t87 81q53 57 94 128 t69 147.5t42 155.5t14 157q0 51 -9 112.5t-34.5 115.5t-69.5 91t-114 37q-76 0 -135 -32.5t-106.5 -83t-85 -113t-70.5 -121.5q-6 -12 -9 -14t-3 2q-2 4 0 12q23 76 61.5 149.5t92.5 131t122 93.5t147 36q76 0 131.5 -41t89 -101.5t50 -131.5t16.5 -130zM575 100 q-47 -25 -100 -24q-74 0 -127 41t-89 100t-52.5 129t-16.5 129q0 12 2.5 37t5.5 48.5t8 42t13 18.5t7 -32t3 -89q2 -45 18.5 -113t47.5 -130t76 -107.5t104 -45.5q51 0 92 9q20 4 30.5 3.5t-22.5 -16.5z" />
<glyph unicode="P" horiz-adv-x="1083" d="M1085 1079q10 -88 -5 -158.5t-31 -117.5q-35 -90 -94.5 -165t-130 -130t-146.5 -92t-141 -51q-16 -4 -34 -7.5t-16 0.5q-4 4 12.5 12.5t30.5 14.5q115 55 215.5 131t172.5 182q35 51 61.5 113.5t36.5 130.5t0 138.5t-47 138.5q-47 86 -121 140t-162 81.5t-181 33 t-179 -9.5q-12 -2 -14.5 -2t-6.5 2q0 4 7 6.5t14 6.5q37 16 97 27.5t134 7t157 -28t167 -78.5t138 -144.5t66 -181.5zM956 1165q18 -49 21.5 -98t-3.5 -95t-22.5 -88t-36.5 -75q-4 -4 -10 -13.5t-12 -18.5t-12.5 -14t-8.5 -3q-2 0 1.5 8t6.5 18.5t7 18.5l6 12q18 35 24.5 85 t3.5 103.5t-16.5 103.5t-38.5 83q-8 12 -32.5 37.5t-65.5 54.5t-96.5 53.5t-124.5 30.5q-68 6 -136.5 3t-129 -13t-106.5 -24.5t-69 -26.5q-10 -6 -19 -8.5t-9 -0.5q-2 4 4 10.5t10 10.5q33 33 99.5 61.5t147.5 46t166 18.5t152 -22q43 -14 89.5 -37.5t86 -56.5t72.5 -74 t51 -90zM256 416q16 92 44 187t56 194q29 92 53.5 188t28.5 207q0 10 1 10h3t7 -12q23 -51 17.5 -136t-24 -176.5t-42 -176.5t-35.5 -134q-10 -37 -18.5 -68.5t-18.5 -66.5q74 49 144.5 99.5t132 106.5t109.5 119.5t77 137.5q47 123 -3.5 222.5t-189.5 142.5 q-104 31 -211 30q18 -70 17 -151.5t-17 -137.5q-29 -109 -70 -222t-81 -212q-2 -4 -10.5 -20.5t-14.5 -14.5q-4 0 -2 17.5t2 21.5q2 25 8 60t12.5 71.5t14.5 72.5t18 61q4 14 16.5 65t24.5 118.5t22.5 140.5t14.5 130q-16 0 -25 -2q2 -84 -15 -171t-44 -176t-57.5 -179 t-50.5 -178q-16 -68 -24.5 -143.5t-6.5 -151.5t18.5 -148.5t48.5 -134.5q6 -10 1 -9t-11 5q-55 63 -81.5 139t-33 157t5 165t29.5 164q20 86 47 172t51.5 169t46 161.5t31.5 154.5q-59 -8 -114.5 -23.5t-106.5 -31.5q-16 -4 -18 0t5 8t9 6q57 35 128 58.5t146.5 32.5 t155.5 4t158 -27q82 -25 135 -76t78.5 -115.5t21.5 -137.5t-36 -140q-43 -86 -109 -157t-146.5 -130t-172 -109.5t-181.5 -95.5q-4 -2 -22.5 -9t-20.5 -3q0 2 11.5 11t23.5 18q31 16 39 49zM393 391q31 16 77 43t89 51.5t75 41t34 12.5q2 -2 -7.5 -13.5t-23.5 -25 t-28.5 -25.5t-22.5 -18q-41 -29 -81 -51.5t-81 -40.5q-35 -16 -71 -28.5t-72 -27.5q-10 -29 -17.5 -57.5t-13.5 -52.5q-2 -10 -5 -20.5t-5 -10.5q-4 2 -5.5 15.5t-1.5 21.5v43.5t3 44.5q-14 -4 -27.5 -12.5t-11.5 -24.5q0 -61 6 -111q10 -70 37 -133l5 -10t1 -8q-4 -2 -19 8 q-23 29 -39 56.5t-26 84.5q-4 18 -5 49t1 58q0 16 6 28.5t26 22.5q12 6 42 19.5t63 27.5t60.5 26.5t37.5 16.5z" />
<glyph unicode="Q" horiz-adv-x="1175" d="M889 174q63 -66 123.5 -130t124 -121.5t135 -105.5t160.5 -79q6 -4 6 -9t-13 -5q-94 0 -185 50t-176 131t-164 183t-151.5 204.5t-138 196t-123.5 156.5q-2 4 -5 8t-3 9q25 -10 60.5 -42t71.5 -71t68 -78t50 -61q68 104 102.5 228t34.5 247q0 51 -8 114.5t-31.5 116.5 t-66.5 90t-113 37q-78 0 -139.5 -29.5t-109.5 -78t-87 -107.5t-69 -119q-18 -35 -13 2q20 68 60.5 138.5t95.5 127t121.5 93.5t144.5 37q76 0 131.5 -42t89 -104.5t50 -135.5t16.5 -132q0 -145 -43 -281.5t-127 -255.5l74 -114q115 143 172 303t57 342q0 100 -17.5 198.5 t-62.5 177t-122.5 128t-198.5 49.5q-106 0 -191.5 -40t-150 -106.5t-111.5 -153.5t-76.5 -181.5t-43 -191.5t-13.5 -181q0 -59 8 -109.5t14 -97.5q4 -29 -3 -19.5t-11 19.5q-29 70 -33 150.5t-4 158.5q0 143 35 286.5t110.5 259.5t194.5 188.5t289 72.5q119 0 204 -51 t139 -133t80 -184.5t26 -202.5q0 -193 -54.5 -371t-175.5 -332q-6 -10 -12 -18t-12 -19zM399 614q-41 0 -67.5 -18t-43 -47t-22.5 -62.5t-6 -64.5q0 -51 12.5 -107.5t38 -104.5t68.5 -79t104 -31q53 0 111 21q-4 12 -8 24.5t-8 26.5q-23 -16 -53.5 -25.5t-59.5 -9.5 q-18 0 -41 9.5t-43.5 24.5t-34.5 34.5t-14 38.5v4h2q23 -27 52.5 -50.5t66.5 -23.5q31 0 58.5 12.5t49.5 28.5q-18 86 -47 166t-59 164q-10 18 -6 20t14 -12q55 -72 87 -148.5t66 -156.5q43 -100 104.5 -186.5t131.5 -159.5q72 -80 145.5 -131.5t169.5 -100.5q8 -4 7.5 -6 t-7 -3t-13.5 -1h-9q-59 0 -130 42t-138.5 98.5t-126 115.5t-93.5 94l-4 4q-41 -10 -81 -12t-80 -2q-86 0 -151 27.5t-108 77t-63 116t-20 144.5q0 37 7 78.5t21.5 80.5t38 73t53.5 56q4 2 6 4q4 4 7 5q4 0 4 -3q0 -6 -8.5 -15t-12.5 -13q-41 -47 -61.5 -110.5t-20.5 -125.5 q0 -66 19.5 -131t57.5 -117.5t95.5 -85t130.5 -32.5q37 0 72 9t68 21l-23 37q-29 -14 -59.5 -22t-61.5 -8q-72 0 -122 34.5t-82.5 89t-48 118t-15.5 122.5q0 37 9 76t28.5 69.5t52.5 50t80 19.5q43 0 90 -41t87 -97t65.5 -114.5t25.5 -95.5l-6 -10q-6 -2 -12 4t-10 14 t-7.5 16.5t-5.5 12.5q-12 27 -31.5 74t-46 93t-60.5 79.5t-75 33.5zM121 502q-2 23 -2 47v45q0 125 27.5 266t92 262t170 201t259.5 80q102 0 170.5 -44t109.5 -113.5t58.5 -155.5t17.5 -170q0 -98 -15.5 -185.5t-54.5 -173.5q-14 -33 -17 -31t3 33q16 74 26.5 147.5 t10.5 151.5q0 70 -12.5 155t-46 158.5t-92 123t-150.5 49.5q-98 -2 -173 -36t-132.5 -92.5t-97.5 -134t-66 -161.5q-35 -106 -48.5 -216t-23.5 -208q-4 -33 -7 -28t-7 30zM743 145q14 -10 42 -33.5t58.5 -50t57.5 -51t37 -37.5q33 -37 85 -80t111.5 -80.5t119 -67.5 t106.5 -40q20 -4 16 -8t-18.5 -7t-30.5 -5t-20 -2q-86 0 -171 42t-161 104t-134.5 137t-88.5 140q-2 4 -5.5 14.5t-3.5 14.5v10z" />
<glyph unicode="R" horiz-adv-x="1138" d="M535 395q66 -59 123 -125.5t110 -138.5q2 -4 11 -15.5t5 -15.5q-2 -2 -15 3.5t-17 9.5q-16 10 -38 26.5t-45.5 35t-46 37.5t-36.5 36q-10 8 -49 42t-88.5 72.5t-100.5 71.5t-84 41q-6 2 -17 6t-9 15q16 78 40.5 151.5t47.5 151.5q29 96 54.5 196.5t29.5 216.5q0 10 2 11 q6 0 10 -15q25 -55 20.5 -143t-22 -183.5t-43 -182.5t-43.5 -138l-6 -16q76 51 157.5 102t152.5 103.5t123 108.5t70 118q12 41 -3 82t-53 76.5t-95 62.5t-127 37q-92 12 -186 6q8 -61 3 -123.5t-16 -107.5q-27 -111 -67.5 -228.5t-83.5 -220.5q-4 -6 -12.5 -20.5 t-14.5 -12.5q-4 2 -2 18.5t2 22.5q2 25 9.5 61t14.5 74.5t16 74.5t17 63q4 12 13.5 52t19.5 95t20.5 118.5t16.5 123.5l-29 -4q-6 -78 -24.5 -158t-42 -161t-49 -163.5t-43.5 -162.5q-16 -72 -25.5 -150t-6.5 -153.5t18.5 -146.5t50.5 -128q4 -10 0 -10t-11 6 q-51 59 -77.5 133t-33.5 155t2 167t27 168q35 154 84.5 303t81.5 288q-51 -12 -100 -29.5t-92 -37.5q-10 -4 -13 -2q-2 2 2.5 7t8.5 7q102 84 249.5 119t301.5 18q80 -10 146.5 -44.5t109.5 -85t56 -112t-13 -122.5q-31 -72 -97.5 -133.5t-149.5 -114.5t-175 -98t-172 -84 q33 0 67.5 -10.5t68.5 -25.5t64 -34t48 -37zM1102 907q-31 -106 -93.5 -181t-138 -124t-153.5 -74.5t-135 -33.5q-16 -4 -29.5 -3t-11.5 5q-4 4 9 8t28 10q111 41 213 106.5t180 174.5q37 51 55 118.5t13 137t-34.5 135t-86.5 112.5q-68 57 -148 90t-164 45.5t-170 5.5 t-166 -28q-14 -4 -16 -5t-4 3q0 2 16 14q33 20 87.5 38t123 24t148.5 -1t163 -38q86 -29 162 -89.5t121 -148.5q43 -86 44 -167t-13 -134zM61 1241q41 59 109 97t147.5 56.5t166.5 16.5t169 -20.5t153 -55.5t118 -90q33 -39 50 -83t18 -90t-10 -89t-32 -80 q-4 -8 -20.5 -27.5t-20.5 -15.5q-4 2 6.5 22.5t14.5 30.5q16 53 13 105.5t-20.5 97.5t-46 81t-61.5 58q-78 51 -176 73t-199.5 16.5t-198 -35t-165.5 -78.5q-18 -16 -25 -10q-4 2 1 9t9 11zM1153 -49q12 2 12 -2t-10 -8q-74 -27 -143.5 -29t-133 13.5t-118.5 43t-101 60.5 q-53 39 -101 87t-93 96t-90 93t-92 80q-35 -115 -64 -203q-4 -10 -8 -18t-8 -6t-4 11v19q4 57 8 117t18 119q-14 8 -27.5 14t-29.5 15q-6 6 -6 8t5 2h9q82 -6 149.5 -50t131 -103.5t125 -126t131.5 -117.5q39 -29 89 -52.5t107.5 -40t120 -23.5t123.5 1zM836 250 q57 -51 109 -114.5t102 -102.5q14 -14 12 -21q-4 -4 -10.5 -2t-14.5 4q-55 18 -103 51t-93 74t-87 86t-85 88q-29 29 -63 64t-70.5 64.5t-76.5 49t-83 19.5l80 35q31 14 75.5 34.5t85.5 39t72 29.5t33 9q2 -4 -7.5 -14t-24.5 -22.5t-29.5 -22.5t-20.5 -12q-39 -23 -73 -42.5 t-68 -35.5q47 -18 96 -52t94 -73t84 -74.5t66 -58.5zM172 123q6 -35 16.5 -67.5t24.5 -55.5q2 0 3 -3t-3 -3t-9 3t-9 3q-27 16 -42.5 39.5t-25.5 83.5q-4 23 -4 57.5t2 66.5t6 54.5t12 22.5q2 0 5.5 -10.5t5.5 -24t3 -25.5t1 -16q4 -35 6 -65.5t8 -59.5zM1069 -6 q33 -2 50.5 -1t45.5 5q2 0 10.5 1t10.5 -1q2 -4 -5 -10t-12 -8q-33 -10 -60.5 -14.5t-80.5 1.5q-18 2 -40.5 8.5t-41 13.5t-29 14t-4.5 11q4 2 26 -3t30 -7q29 -6 53 -8t47 -2z" />
<glyph unicode="S" horiz-adv-x="765" d="M614 1448q41 0 94.5 -15.5t86.5 -50.5q23 -20 -7 -12q-29 4 -58.5 13.5t-63.5 9.5q-127 2 -184.5 -73t-65.5 -190q-6 -80 3 -158.5t21.5 -156.5t21.5 -155.5t1 -157.5q-2 -23 -5 -27t-6 2t-6.5 17.5t-5.5 19.5q-12 82 -30.5 165t-35 167t-25.5 168t-1 170q6 55 26.5 103 t54.5 84t81 56.5t104 20.5zM250 1178q6 55 28.5 111.5t60.5 102.5t92 73.5t122 27.5q2 0 11 -1t16.5 -3t6.5 -4t-16 -4q-55 -10 -102 -37t-82 -66t-56.5 -87t-25.5 -99q-8 -98 8.5 -197.5t38 -198t36.5 -197.5t7 -198q-4 -39 -18.5 -82t-38 -79.5t-58 -62t-77.5 -32.5 q-33 -4 -28 3.5t24 17.5q74 41 101.5 96t35.5 137q8 94 -7.5 192.5t-36 197t-35.5 196t-7 193.5zM195 43q86 0 145 31.5t98 84t59.5 121t26.5 142.5q8 92 -4 184t-27.5 183.5t-27.5 183.5t-4 186t58 149.5t151 55.5q35 0 89 -12.5t89 -34.5q37 -25 -6 -14q-25 6 -64 14 t-59 8q-80 0 -137.5 -35t-65.5 -123q-10 -94 4.5 -187t32.5 -187.5t31.5 -188.5t5.5 -188q-6 -78 -30.5 -152t-70 -133t-112 -95t-156.5 -36q-25 0 -63.5 8t-77.5 21.5t-73 33t-50 41.5q-18 20 12 11q35 -18 85.5 -45t140.5 -27zM182 115q51 0 94 16t89 43v-6 q0 -18 -19.5 -35.5t-48.5 -32t-64.5 -22.5t-72.5 -8q-14 0 -39 5t-50.5 14t-48 21.5t-30.5 28.5q-23 25 -14.5 28t22.5 -7q33 -10 74.5 -27.5t107.5 -17.5z" />
<glyph unicode="T" horiz-adv-x="925" d="M614 1040q-29 -111 -70.5 -229.5t-86.5 -224.5q-2 -4 -10.5 -19.5t-12.5 -13.5q-6 0 -5 17.5t3 23.5q2 25 8 61.5t13.5 75.5t16.5 76t17 63q4 8 12.5 41t17.5 79t19.5 101.5t18.5 108.5l-25 6q-10 -72 -29.5 -146.5t-43 -149t-46 -151.5t-40.5 -153q-16 -72 -24.5 -149.5 t-6.5 -156.5t18.5 -153.5t49.5 -138.5q6 -14 4 -14q-4 0 -6 2l-5 4q-57 68 -84.5 146.5t-35 162.5t3 170t28.5 168q35 152 82 292t80 275q-123 20 -230.5 38t-199.5 -1q-6 0 -6 2q0 4 3 5.5t5 3.5q70 41 148.5 45t163.5 -7.5t174.5 -29t179.5 -19.5q55 -2 115.5 9.5 t116.5 35t102.5 62.5t74.5 92q4 10 8 10v-6v-4q-23 -78 -69.5 -128t-107 -81t-129 -42t-134.5 -9q10 -63 1 -147.5t-27.5 -170.5t-39 -162.5t-32.5 -123.5q-25 -98 -57.5 -200.5t-59.5 -180.5q-4 -10 -9 -18.5t-9 -6.5t-3 11.5t1 19.5q6 154 45 307.5t84 308.5 q25 86 48 174.5t34 188.5q-10 2 -17.5 2h-17.5q0 -41 -3.5 -80t-13.5 -72zM670 1477q80 -10 161.5 -16.5t141.5 -6.5q20 0 20 -6q0 -8 -20 -14q-104 -41 -220 -37t-235 22q-72 10 -147.5 20.5t-163.5 0.5q-8 -2 -8 2t4 6t8 6q39 29 100.5 38t128 8t128 -9t102.5 -14z M362 1413q86 -12 175.5 -30.5t173.5 -41.5q4 -4 17 -7t13 -9q0 -4 -12 -6t-18 -6q-18 -4 -46 -4t-57.5 1t-58.5 3t-49 6q-14 2 -70.5 8t-124 8t-130 -1t-89.5 -17q-8 -4 -10 -4h-2q0 8 8 16q20 27 56 45.5t75 28.5t78.5 12t70.5 -2zM430 145q6 -35 15.5 -69.5t23.5 -67.5 q8 -16 2 -16q-4 0 -12 4q-4 2 -6 6q-27 31 -42.5 57.5t-25.5 85.5q-4 23 -5 58t1 67.5t6 55t12 22.5q2 0 5.5 -10t5.5 -23.5l4 -27t2 -17.5q4 -35 7 -65.5t7 -59.5zM1024 1427q45 39 76 84q4 8 8 9q2 0 2 -15q0 -8 -2 -14q-8 -35 -18.5 -55.5t-49.5 -49.5q-14 -12 -38.5 -23 t-47 -19.5t-40 -9.5t-19.5 7q0 2 6 7.5t15.5 11.5t17.5 11t12 7q20 10 40 22.5t38 26.5z" />
<glyph unicode="U" horiz-adv-x="1136" d="M430 313q78 74 140.5 148t116.5 165t100.5 208.5t91.5 277.5q25 92 42 178t13 168q0 16 2 17q4 0 6 -6.5t4 -10.5q31 -96 20.5 -201.5t-39 -215t-66.5 -222t-64 -225.5q-16 -70 -24.5 -147.5t-5.5 -154.5t19.5 -150.5t51.5 -137.5q2 -2 2 -6v-4q-6 0 -9 2l-4 4 q-80 86 -108 211q-29 -35 -58.5 -67.5t-82.5 -67.5q-86 -57 -191.5 -79t-210.5 28q-61 31 -94 81t-48.5 108t-18.5 118.5t-5 109.5q-4 96 9.5 186.5t36 169.5t51 142.5t55.5 106.5q2 4 7 9t7 5q4 -2 1 -11.5t-5 -13.5q-31 -92 -55.5 -188t-36.5 -194.5t-9 -198t27 -199.5 q10 -41 31 -85t68 -79q27 -20 55.5 -28.5t55 -9.5t50 3t43.5 11q92 23 159 82t114 120q18 20 31 47q-2 39 2 90.5t10 96.5t10 75.5t2 28.5q-47 -104 -111.5 -183t-111.5 -128q-31 -33 -69 -57.5t-74.5 -34.5t-67.5 0t-45 47q-29 84 -41 185.5t-2 205.5q23 209 99.5 411.5 t215.5 370.5q8 10 15.5 14.5t-5.5 -16.5q-45 -70 -87 -159.5t-75.5 -189t-59 -204t-36.5 -202.5q-10 -98 -8 -193.5t31 -169.5q10 -27 27.5 -34t36 -2t37 18.5t32.5 25.5zM463 150q-23 -12 -47.5 -24.5t-50 -20t-54 -7.5t-59.5 11q-59 20 -85 68t-40 93q-33 98 -30 195.5 t16 208.5q8 78 33.5 171t64.5 185t87 172t101 131l15.5 15.5t15.5 7.5q2 -2 -18 -35t-49 -88t-58 -126t-56.5 -152t-45.5 -167q-18 -84 -24.5 -163.5t-5.5 -146t6 -113t9 -62.5q10 -41 30 -85t54 -60q35 -16 87.5 -10t93.5 28q2 2 12 8t21.5 13.5t20.5 12.5t11 3 q2 -4 -2 -12t-13 -18.5t-20.5 -19.5t-19.5 -13zM1018 575q-25 -98 -58.5 -200.5t-58.5 -177.5q-4 -10 -8 -20.5t-8 -8.5q-6 2 -6 13.5v21.5q8 154 46 305t85 305q29 96 54.5 195.5t29.5 214.5q0 14 4 14q6 0 10 -14q23 -55 16.5 -142.5t-26 -181.5t-44 -182.5t-36.5 -141.5z M1040 1024q-29 -111 -61.5 -227.5t-91.5 -221.5q-4 -6 -13.5 -21t-15.5 -13q-4 0 -4 16t2 27q2 25 8 60.5t15.5 73.5t18.5 73.5t17 60.5q4 12 13.5 48t19.5 85t20.5 107.5t17.5 116t9 108.5t-4 88q-4 18 2 18q4 0 8.5 -4t6.5 -8q25 -35 36 -84t14 -102.5t-2.5 -106.5 t-15.5 -94zM856 139q6 -41 13.5 -73.5t25.5 -63.5q2 -2 3 -7t-3 -5q-10 0 -21 10q-23 27 -37 51.5t-26 85.5q-4 25 -6 59.5t0 67.5t7 54.5t13 21.5q2 0 5.5 -11.5t6.5 -24.5t4 -26.5t1 -17.5q6 -64 14 -121z" />
<glyph unicode="V" horiz-adv-x="1021" d="M965 1249q-2 -25 -9.5 -58.5t-17.5 -63t-20.5 -50t-16.5 -16.5q-2 0 -2 10v23.5t2 26t2 18.5q6 33 8 61.5t7 59.5q4 39 5 73.5t-5 71.5q0 4 -2.5 10t2.5 6q6 0 14 -9t10 -13q12 -25 19.5 -58t3.5 -92zM991 1393q35 -82 42 -163t-4 -162t-38.5 -161t-62.5 -155 q-47 -102 -99.5 -200.5t-101.5 -193t-91 -183.5t-67 -175q-4 -10 -9 -8t-5 8q-4 98 28.5 197.5t83 200t109 201.5t105.5 206q31 66 55.5 137.5t39.5 147t18 150.5t-11 146q-4 18 0 17q2 0 8 -10zM326 592q0 -6 -1 -25.5t-8 -19.5q-4 -2 -10 15.5t-10 27.5q-8 27 -18.5 64.5 t-19.5 77.5t-16 79t-10 68l-8 56t-16 99.5t-23.5 123t-29 125.5t-31.5 108.5t-33 70.5q-10 14 -6 19q4 4 10 -1t10 -10q33 -25 63 -69.5t54.5 -96t41 -105.5t22.5 -97q18 -121 26.5 -256t12.5 -254zM455 303q-41 137 -65.5 282.5t-43.5 293.5q-14 109 -32.5 217t-57.5 225 q-4 10 -4 11t4 3q4 0 14 -10q43 -43 73 -133t51.5 -191.5t35.5 -196.5t25 -153q10 -47 17 -96t11 -98q14 55 39 113.5t50.5 113.5t51 103.5t42.5 82.5q43 92 98 185.5t102 156.5q18 25 21 25q4 -4 1 -13.5t-7 -19.5q-41 -147 -112 -286.5t-142 -280.5q-41 -78 -82 -158 t-62 -178q-4 -23 -11 -28t-17 30zM518 0q6 -4 3 -5t-9 3q-80 37 -137.5 101.5t-97 144.5t-64.5 170t-41 178q-23 123 -35 246t-27.5 240.5t-36 225t-57.5 197.5q-2 4 -3 7t3 8q2 2 6.5 -4.5t6.5 -10.5q63 -86 95 -195.5t48 -231.5t27.5 -250t33.5 -249q14 -78 39 -158.5 t60 -157.5t81 -143.5t105 -115.5zM508 51q-12 12 -31.5 32.5t-36.5 43.5q-12 20 -26.5 54t-25.5 67t-16 58.5t1 27.5q2 0 9 -9.5t13 -21.5t12.5 -23.5t10.5 -15.5q16 -29 28.5 -52.5t22.5 -49.5q12 -27 25.5 -46.5t15.5 -17.5q2 0 1 11.5t-2 26t-2 27.5t-1 19 q-4 78 13.5 139.5t39.5 112.5q47 104 110.5 209t129.5 197q4 4 16 18t16 12q6 -2 1 -19t-7 -24q-8 -25 -21 -57.5t-27.5 -68t-30 -68.5t-27.5 -55q-6 -12 -22.5 -47t-37 -85.5t-43 -107.5t-42 -111.5t-32 -99.5t-12.5 -72q0 -14 -6 -14t-16 10z" />
<glyph unicode="W" horiz-adv-x="1554" d="M1509 1319q-2 -25 -11 -68t-20.5 -84t-22.5 -70.5t-19 -25.5q-2 2 -2 12.5t1 23.5t2 25.5t3 18.5q2 14 6 38.5t7 50.5t6 49.5t5 39.5q4 39 4 74t-4 74q0 4 1 10t5 6q12 0 17 -16q10 -29 18 -63t4 -95zM1532 1462q31 -82 36 -173t-7.5 -183t-38 -181t-58.5 -167 q-43 -102 -90 -201.5t-92 -195t-83 -185.5t-60 -176q-2 -6 -8.5 -9t-6.5 9q-4 98 26 198.5t76 202t98 204t95 208.5q27 66 51.5 147.5t41 167.5t20.5 172t-8 158q-4 20 2 15l2 -3q2 -2 2 -4t2 -4zM858 1257q-2 -25 -9 -58.5t-15.5 -63t-17.5 -50t-17 -16.5q-2 0 -2 10.5 t1 23.5t2 25.5t3 18.5q12 59 14 125q4 37 3 68.5t-7 70.5q0 4 -3 17.5t3 13.5q4 0 12 -12l9 -13q8 -18 14 -34.5t9 -33t3 -39t-2 -53.5zM1372 879q6 -4 2 -20.5t-4 -22.5q-8 -25 -19.5 -59t-24.5 -69.5t-26.5 -68.5t-25.5 -55q-6 -12 -21.5 -48t-34 -86.5t-39 -108.5 t-37 -113.5t-28.5 -101.5t-12 -73q0 -10 -4 -14q-2 -2 -4 0q-2 0 -11 8q-10 14 -28.5 35.5t-32.5 44.5q-12 20 -24.5 54t-22.5 68t-14.5 58.5t2.5 28.5q2 0 8 -9.5t12 -21.5t11 -23.5t7 -15.5q14 -27 25.5 -52.5t22.5 -51.5q10 -27 22 -46.5t14 -17.5q2 0 2 11.5t-1 26 t-2 27.5t-1 19q-4 78 9.5 141.5t35.5 114.5q45 104 103.5 212t116.5 200q4 4 13 16.5t11 12.5zM1085 0q-74 37 -126 103.5t-86.5 143.5t-55 156.5t-29.5 147.5q-4 31 -6 60.5t-2 39.5q-37 -86 -77.5 -172t-77.5 -169t-68 -161.5t-49 -148.5q-2 -8 -8 -14q-6 0 -6 14 q-2 98 26.5 196.5t72.5 200t95 205t94 209.5q27 66 48.5 138.5t36 147t16.5 151.5t-11 149q-2 10 -4 13t2 3q6 0 11 -10q20 -55 29.5 -109.5t13.5 -109.5q25 -45 41 -114t29.5 -142.5t22.5 -145t19 -125.5q10 -47 15.5 -98t9.5 -98q14 57 35.5 116.5t44 116t43 105.5 t37.5 86q18 45 42.5 100t50 108.5t51.5 101.5t46 81q10 14 17.5 23.5t11.5 7.5q4 -4 1 -13.5t-7 -19.5q-20 -74 -49 -155t-62 -163t-66.5 -161.5t-66.5 -151.5q-35 -80 -74 -162t-55 -180q-4 -23 -9 -28t-16 30q-51 193 -73.5 386.5t-51.5 389.5q-6 -59 -10 -100t0 -98 q4 -74 10.5 -146.5t8.5 -136.5q0 -6 -1 -26.5t-8 -20.5q-2 -2 -4 3t-5 13t-6 15.5t-3 11.5q-10 41 -22.5 100.5t-22.5 116.5q-16 -51 -20.5 -103.5t8.5 -125.5q14 -78 36.5 -159t54 -157t72.5 -143.5t93 -116.5q6 -4 3.5 -7t-10.5 1zM788 1245q4 -4 0 -14t-6 -19 q-14 -74 -39.5 -146.5t-56.5 -143t-64.5 -141t-66.5 -142.5q-35 -78 -70.5 -160t-54.5 -182q-4 -20 -8 -26.5t-14 30.5q-39 139 -60.5 285.5t-38.5 298.5q-10 106 -28.5 217.5t-53.5 230.5q-2 12 0 15q2 2 6.5 -3.5t8.5 -9.5q25 -29 45 -81t36.5 -114.5t29 -132t22.5 -135 t17 -123t16 -96.5q8 -47 13 -97t9 -99q14 57 35.5 115.5t45.5 113.5t45.5 104.5t35.5 83.5q39 94 85 186.5t89 158.5q6 10 12 19t10 7zM289 594q2 -6 0 -26.5t-6 -20.5q-4 -2 -8.5 17.5t-8.5 27.5q-6 27 -15 65.5t-18.5 79.5t-16.5 80t-9 68q-2 14 -7 56t-14.5 100.5 t-21.5 124t-25.5 127t-27 109.5t-27.5 71q-12 16 -6 20q4 4 10 -2l10 -10q29 -25 54.5 -70t47 -97t36 -105.5t20.5 -96.5q16 -123 23.5 -261t9.5 -257zM737 874q6 -2 2 -18t-6 -22q-8 -25 -19.5 -59t-24.5 -69.5t-26.5 -68.5t-25.5 -55q-8 -16 -31.5 -82t-50.5 -149 t-50.5 -166t-29.5 -134q-2 -14 -6 -14q-6 -2 -16 8q-10 12 -28.5 33.5t-31.5 44.5q-10 20 -23.5 55t-23.5 69t-14 59.5t2 27.5q2 0 7 -9.5t11 -22.5t11.5 -25.5t9.5 -16.5q12 -27 22.5 -50.5t20.5 -49.5q10 -29 23.5 -48.5t15.5 -15.5v12q0 11 -2 24t-3 27.5t-1 20.5 q0 78 13 140.5t34 113.5q43 104 101 212t114 202q4 4 13 15t13 11zM145 584q-20 123 -30.5 250t-20.5 247.5t-27.5 231t-50.5 203.5q-2 4 -3 7t3 7q2 2 6.5 -4t6.5 -10q55 -86 82.5 -198t42 -236t23.5 -253t30 -251q12 -78 35.5 -158t56.5 -155t74 -142.5t90 -118.5 q2 -2 0 -5t-10 1q-68 43 -119 105.5t-88 139.5t-62 163t-39 176z" />
<glyph unicode="X" horiz-adv-x="1013" d="M92 25q-4 -18 -6 -19q-4 2 -5 8t-1 11q-6 94 12.5 183t56 175t90 167t111.5 157l45 57q-84 188 -164.5 365.5t-177.5 306.5q-6 8 -6 12q2 4 8 0t11 -6q63 -51 115 -121t97.5 -150.5t84 -170t77.5 -179.5l35 43q-10 20 -32.5 64.5t-53.5 99.5t-64.5 116.5t-68.5 116 t-65.5 97.5t-53.5 61q-16 12 -10 17q4 2 18 -2q41 -16 87.5 -57.5t88 -92.5t76.5 -106.5t56 -100.5l71 -153l23 24q-41 92 -88 186.5t-113 184.5q-6 10 -8 10t2 4l16 -8q57 -39 119 -128t117 -196q104 123 208.5 255.5t170.5 250.5q2 4 4 8.5t8 0.5q2 -2 1 -8.5t-1 -8.5 q-31 -113 -98.5 -222.5t-151.5 -217t-176 -213t-172 -209.5q-49 -66 -97 -140.5t-87 -153.5t-68 -159.5t-41 -158.5zM1038 8q12 -6 12.5 -7t-14.5 -1q-82 12 -152.5 54t-131 103.5t-112.5 138.5t-95 157q-66 -78 -137.5 -153t-128.5 -128q-10 -10 -17.5 -18.5t-11.5 -6.5 t3 14.5t11 22.5q39 76 89 150t106.5 144.5t116 140t116.5 139.5q72 88 156 196.5t145 223.5q6 14 11 14q4 0 2 -9t-2 -16q-4 -43 -31 -100t-65 -119.5t-82 -127t-85 -120.5l19 -41q49 -109 100 -225.5t86 -208.5q4 -10 7 -21t-1 -14q-2 0 -10 9.5t-16 19.5 q-72 96 -128.5 200.5t-109.5 215.5q-25 -31 -49.5 -62.5t-48.5 -64.5q39 -76 88 -150.5t106.5 -141t121.5 -121t132 -87.5zM819 971q-80 -102 -176 -205.5t-188 -196.5q-4 -2 -16.5 -15t-16.5 -9q-4 2 3 20.5t13 26.5q14 25 41 62.5t56.5 77.5t57.5 78t46 60 q47 61 103.5 137t106.5 152t90 143.5t54 108.5q6 23 8 23t5.5 -7.5t3.5 -17.5q2 -45 -16.5 -105.5t-48.5 -122t-63.5 -117.5t-62.5 -93zM203 139q-16 -41 -29.5 -75.5t-23.5 -63.5q-2 -4 -7.5 -10t-9.5 10q-6 35 0 76t35 106q10 25 26.5 56.5t35 59.5t34 46t23.5 12 q0 -2 -4 -14t-9.5 -26.5t-10.5 -28t-7 -17.5q-14 -39 -26.5 -67.5t-26.5 -63.5zM954 143q33 -31 65 -56.5t66 -47.5q4 -4 10.5 -9t4.5 -7q-4 -4 -11.5 -3.5t-17.5 3.5q-20 6 -36.5 10t-34 13t-37 23.5t-43.5 39.5q-20 20 -46 52t-47.5 63.5t-34 56t-6.5 28.5q2 2 12.5 -6 t20.5 -19.5t19.5 -21.5t13.5 -14q29 -31 53 -55.5t49 -49.5z" />
<glyph unicode="Y" horiz-adv-x="915" d="M199 0v-10q-8 0 -13 10q-29 74 -24.5 158t29 172t66.5 177t91 173q-55 37 -91 93t-62 120q-33 76 -55.5 153.5t-43 151.5t-43 140.5t-53.5 119.5q0 8 2 6q63 -45 99 -110.5t59.5 -141t44 -156.5t53.5 -155q23 -51 50.5 -95t68.5 -83l26 43q-14 18 -21 33.5t-1 19.5 q4 0 14.5 -7t22.5 -21q20 23 31 45q-37 68 -65 141.5t-52 150.5q-20 66 -43 127.5t-64 133.5q-2 4 -5 7t-1 5q4 4 14 -2q43 -18 77 -68.5t60.5 -110t46 -118t32.5 -92.5l43 -113q115 168 220 327.5t158 313.5l4 10q4 4 5.5 -5t1.5 -11q-10 -117 -61.5 -229.5t-122 -224 t-152.5 -224.5t-152 -227q-45 -74 -84 -156t-66.5 -165t-39.5 -161.5t-4 -144.5zM604 537q-31 -49 -65.5 -101.5t-70.5 -101.5t-68.5 -94t-59.5 -82q-10 -14 -18.5 -21.5t-10.5 -5.5q-4 0 0 12.5t8 22.5q66 168 165.5 323.5t203.5 313.5q63 98 129 197.5t115 228.5 q4 10 3 12t3 2q4 -2 4 -8v-12q0 -45 -18.5 -102.5t-49 -122t-67.5 -131t-75 -128t-71.5 -113.5t-56.5 -89zM799 1026q-72 -111 -158 -229.5t-170 -218.5q-4 -4 -18.5 -19.5t-20.5 -11.5q-4 4 3 21.5t11 23.5q14 29 35 66.5t43.5 76.5t46 76t41.5 63q8 12 33 52.5t55.5 94.5 t65.5 117.5t63.5 124t49 112.5t22.5 83q4 20 6 21q4 0 6 -9.5t5 -13.5q8 -43 -0.5 -100.5t-26 -117.5t-42.5 -116.5t-50 -95.5zM260 1260q23 -76 44.5 -161t35.5 -165q2 -4 1 -13.5t-5 -13.5q-4 -2 -12.5 6.5t-10.5 12.5q-10 14 -22 36.5t-22.5 47t-19.5 49t-16 43.5 q-6 20 -25.5 70.5t-45 105.5t-53 104.5t-50.5 67.5q-12 12 -8 12q2 2 8.5 0t10.5 -4q33 -10 64.5 -32.5t57 -51t43 -58t25.5 -56.5zM272 106q-8 -39 -11 -68.5t-3 -51.5v-10.5t-6 -6.5q-4 0 -9 5.5t-7 11.5q-4 10 -8.5 20t-6.5 23.5t0 35t8 54.5q6 27 18.5 65.5t27 74.5 t27.5 58.5t22 18.5q2 -2 1 -14.5t-5.5 -27.5t-8.5 -29.5t-6 -20.5q-10 -35 -17.5 -69t-15.5 -69z" />
<glyph unicode="Z" horiz-adv-x="976" d="M995 1417q10 10 13.5 5t-4.5 -17q-20 -31 -37 -71t-41.5 -90t-63.5 -114.5t-104 -146.5q-84 -104 -179.5 -198.5t-193.5 -180.5q-6 -4 -20.5 -17.5t-18.5 -8.5q-4 4 5 20t14 23q16 25 41.5 58.5t54 68t56.5 65.5t50 53q12 12 50 57.5t86.5 106t98.5 128t87 122.5 q-20 -12 -65.5 -57t-103.5 -107.5t-121.5 -134.5t-120 -137.5t-100.5 -115.5t-61 -71q-92 -109 -167.5 -235.5t-110.5 -255.5l-33 -39q2 76 23.5 153.5t55.5 154.5t80 148.5t101 135.5q115 131 245 253t232 242q-39 -8 -75.5 -10t-75.5 0q-74 4 -146.5 15.5t-142.5 19.5 t-134.5 7t-121.5 -19q-8 -4 -8 2q0 8 8 12q59 47 128 57.5t142.5 4t149.5 -20.5t149 -16q96 -4 198.5 29.5t180.5 121.5zM506 551q-66 -78 -141.5 -155t-139.5 -138q41 6 86 7t88 0t80 -3t62 -2q72 -4 147.5 -17.5t132.5 -23.5q20 -4 19 -12q-2 -4 -8.5 -5t-12.5 -3 q-111 -25 -221.5 -17t-224.5 17q-70 4 -143.5 6t-155.5 -25q-8 -4 -8 0q14 33 34.5 72t41 71.5t36 53t21.5 16.5q2 -2 0 -13t-7.5 -26.5t-11.5 -29t-8 -19.5q-8 -16 -15 -34.5t-18 -34.5q10 4 20.5 7l24.5 7q90 145 205 275t240 263q78 86 156.5 174.5t146.5 198.5 q4 10 5 11.5t3 -1.5q6 -6 2 -18q-8 -61 -62.5 -145t-123 -170t-139 -163t-111.5 -124zM969 180q8 6 12 4t-4 -12q-51 -63 -105.5 -98t-112 -51.5t-115.5 -19.5t-116 -3q-80 0 -159.5 6t-151.5 9t-133 0t-107 -17q-4 -2 -12 -3t2 7q45 47 111.5 60.5t145.5 10.5t162 -15.5 t161 -14.5q104 -4 214 24.5t208 112.5zM614 1485q66 -4 132.5 -17.5t119.5 -21.5q20 -4 21 -10q0 -4 -7.5 -6.5l-13.5 -4.5q-100 -23 -200.5 -15.5t-202.5 22.5q-66 10 -133.5 14t-139.5 -14q-18 -4 -12 2l10 10q31 27 88.5 38t120 12t121.5 -3t96 -6zM221 174 q80 -2 168 -14.5t166 -30.5q4 -2 15.5 -6t11.5 -10q0 -4 -12.5 -8.5t-16.5 -4.5q-18 -2 -50 -3t-67 -1h-66.5h-50.5q-47 2 -98 -2t-97 -11t-82 -19.5t-50 -26.5q-8 -8 -10 -4q-2 2 0 7t4 9q12 29 38.5 52.5t60.5 40t70.5 24.5t65.5 8zM319 1417q74 -8 155 -25.5t149 -39.5 q4 -2 14 -4t8 -11q0 -4 -10 -7t-14 -3q-16 -2 -40 -3t-49.5 -1t-49 1t-42.5 3q-35 2 -87 4t-105 0t-99.5 -10t-70.5 -27q-4 -4 -6 -4h-4q-2 4 0 9.5t4 7.5q20 31 52 52t66.5 35.5t68 19.5t60.5 3zM866 182q27 10 49.5 25.5t49.5 34.5q4 4 10 6t8 0q2 -4 -4 -15q-4 -4 -6 -8 q-23 -29 -42.5 -48t-60.5 -38q-16 -8 -41.5 -15t-49 -10t-40 -2t-16.5 9q0 6 24.5 15t32.5 14q23 8 44.5 15t41.5 17zM907 1413q25 14 45.5 29.5t42.5 34.5q2 2 5.5 4t3.5 -2q0 -8 -5 -17l-2 -4q-16 -29 -32.5 -47t-53.5 -41q-16 -8 -37.5 -16t-42 -12.5t-35 -4.5t-14.5 6 t19.5 16.5t25.5 14.5q41 16 80 39z" />
<glyph unicode="[" horiz-adv-x="622" d="M698 1477q-18 -57 -56 -86t-67 -21q-39 4 -78.5 21.5t-78.5 40.5q-2 0 -8.5 3t-6.5 11q0 6 6.5 8t8.5 2q16 4 45 4t47 -4q6 0 31.5 -2t54.5 0t56.5 9t39.5 26q8 14 8 2t-2 -14zM715 1546q-29 -49 -65 -60t-75.5 -6t-79.5 19t-79 19q-51 4 -109.5 -29t-93.5 -125 q-4 -10 -8 -6q-2 2 -1 7t1 7q16 63 41.5 105.5t55.5 65t62.5 30.5t61.5 6q39 -4 77 -15.5t72.5 -20.5t67.5 -9t64 20q4 4 8 2t0 -10zM426 1257q31 -55 31 -146t-15.5 -190.5t-38 -191.5t-36.5 -145q-27 -102 -65 -205t-69 -180q-4 -6 -6 -15.5t-6 -15.5q29 4 55.5 0t42.5 -8 q39 -4 73 -13.5t61 -19.5q6 -4 12 -5t6 -3q0 -8 -14 -15q-47 -33 -99.5 -24.5t-105.5 20.5q-18 4 -41 6.5t-46.5 0t-43 -8.5t-29.5 -16q-27 63 -37 134t-8 143.5t12.5 145.5t26.5 140q18 78 39.5 156t41 153.5t36 149.5t24.5 141q2 23 -1 43.5t-3 40t8.5 40t32.5 44.5 q8 8 20.5 15.5t22.5 11.5t18.5 4t8.5 -8q0 -4 -12.5 -15.5t-16.5 -15.5q-25 -20 -37 -42t-20 -52q18 27 49 39t65.5 15t69.5 -2t62 -11q33 -10 70.5 -14.5t78.5 14.5q14 6 12 1t-4 -12q-14 -33 -43.5 -45t-63.5 -13t-67 5t-51 8q-33 4 -68 17q20 -66 24.5 -138.5 t-5.5 -127.5q-23 -117 -62 -238t-86 -225q-2 -4 -9 -18.5t-13 -14.5t-4 16.5t4 24.5q4 27 10 62.5t12.5 74.5t14.5 75t16 60q6 14 17.5 62.5t19.5 112t10 135t-12 133.5q-8 -53 -24.5 -135t-37 -178.5t-43 -198t-45.5 -191.5q-29 -115 -39 -239.5t13 -245.5q4 6 9 12t11 12 q0 25 2 60t5.5 67.5t9.5 55t12 20.5q2 0 4 -10t3 -23.5t2 -26t3 -16.5v-56.5t2 -51.5q18 6 31 6q0 6 1 18.5t1 20.5q14 158 56 309.5t85 310.5q27 98 49.5 205t10.5 225q-4 12 -1 13t11 -13zM524 143q-6 -33 -13 -54t-24 -44q-6 -8 -17 -16.5t-21.5 -12.5t-17.5 -4t-7 8 q0 6 9 16.5t13 14.5q8 10 17.5 18.5t19.5 20.5q10 14 17.5 26.5t15.5 33.5q10 23 11 11t-3 -18zM530 92q-14 -61 -35.5 -100t-48 -61.5t-55.5 -29.5t-55 -5q-39 4 -76 15t-71.5 19.5t-66.5 7.5t-61 -20q-4 -4 -9 -6t3 14q25 39 58.5 50.5t72.5 8.5t80 -13.5t80 -12.5 q47 -4 97.5 31t80.5 106q4 10 6 8t0 -12zM365 8q0 -8 -25 -8h-40t-71 2t-90 0t-71 -22q-6 -6 -7 0q0 2 2.5 7t2.5 7q16 43 53 65.5t76 22.5q35 0 73.5 -16.5t73.5 -36.5q4 -4 13.5 -9.5t9.5 -11.5z" />
<glyph unicode="\" d="M358 1143q43 -125 81 -268.5t61 -270.5q4 -8 7 -27.5t-1 -23.5q-8 0 -17.5 16.5t-11.5 24.5q-14 27 -30.5 66.5t-32 82.5t-29.5 85t-23 73q-4 14 -20 57t-38.5 100.5t-51.5 124t-57.5 127t-56 108.5t-48.5 69q-4 4 -6 7t-4 7t-2 6q4 2 9 -1t9 -3q41 -20 81 -62t76 -92.5 t62.5 -105.5t42.5 -100zM612 680q37 -111 75 -227.5t71 -202.5q2 -16 4 -25.5t-2 -9.5q-2 -4 -9.5 6t-13.5 21q-49 74 -87 153.5t-69.5 163.5t-59 174t-56.5 182q-35 111 -76 225.5t-108 231.5q-6 6 -6.5 7t4.5 3q2 4 4 0t8 -8q51 -39 100 -130t92 -197.5t77 -208t52 -158.5 zM840 29q8 -4 12 -9.5t0 -5.5q-2 -6 -10 0q-90 23 -167 78t-138.5 132t-109.5 169t-81 189q-43 129 -81 257t-78 249.5t-84 230t-101 197.5v10q0 4 1 2t5 -4q4 -4 8 -6q82 -80 138.5 -189.5t99.5 -235.5t81 -260.5t83 -261.5q29 -82 73 -163.5t98 -153.5t117.5 -131 t133.5 -94zM760 166q33 -29 63.5 -52.5t65.5 -43.5q4 -4 9 -10.5t3 -6.5q-4 -4 -9 -4h-9q-6 0 -9 2q-20 6 -36.5 10.5t-33 13.5t-34.5 22.5t-43 37.5q-18 18 -41.5 51t-44 65t-32 55.5t-5.5 27.5q2 2 11.5 -5t19.5 -18.5t19.5 -23t13.5 -15.5q23 -33 45 -57t47 -49z" />
<glyph unicode="]" horiz-adv-x="622" d="M616 1511q0 -2 -1 -6t-1 -6q-16 -49 -53 -72.5t-76 -23.5q-35 0 -72.5 15.5t-76.5 37.5q-2 2 -12.5 8t-10.5 13q0 10 27 10q12 0 42 -1t67 -5q20 -2 43.5 -3t46 2t42 11t31.5 20q4 8 4 0zM623 1565q-27 -43 -61 -54.5t-71.5 -7.5t-77.5 15.5t-79 13.5q-47 4 -96.5 -31 t-83.5 -112q-4 -10 -4 -8.5v12.5q14 63 35.5 104t48 63.5t54 30.5t54.5 6q39 -4 77 -15t72.5 -19.5t66.5 -7.5t58 20q8 4 12.5 5t-5.5 -15zM256 1464q0 -6 -9 -16t-14 -14q-10 -10 -18 -18.5t-18 -20.5q-10 -16 -17.5 -26.5t-17.5 -33.5t-9 -11.5t1 17.5q10 31 15 53.5 t21 45.5q8 8 19.5 16t22 12.5t17.5 4t7 -8.5zM592 840q-37 -154 -81 -308.5t-58 -293.5q-2 -23 1 -42.5t2 -39t-8.5 -41t-31.5 -45.5q-8 -8 -19.5 -15.5t-23 -11.5t-19.5 -3t-8 7q0 4 12.5 16.5l14.5 14.5q27 23 39 43t20 53q-16 -27 -47 -39t-66.5 -16t-71.5 0t-63 12 q-31 8 -68.5 14.5t-78.5 -14.5q-12 -6 -12 0t4 12q14 33 44.5 45.5t63.5 13.5t64.5 -5.5t50.5 -8.5q16 -4 33.5 -7t38.5 -9q-23 66 -27 138.5t6 127.5q23 117 60.5 237t85.5 226q4 4 10 18.5t12 14.5t5 -16.5t-5 -24.5q-4 -27 -9 -63.5t-12.5 -74.5t-15.5 -74t-16 -60 q-4 -14 -15.5 -61.5t-19.5 -112t-10 -137t12 -134.5q8 53 23.5 136t36 179.5t43 198t44.5 191.5q29 115 40.5 239.5t-11.5 245.5l-8 -12t-14 -11v-2q0 -25 -2 -60.5t-5.5 -67t-8.5 -54t-13 -20.5q-4 0 -5 10t-2 23.5t-2 25.5t-1 16v55.5t-4 51.5q-6 -2 -13.5 -2t-13.5 -2 q-4 -8 -4 -19.5t-2 -21.5q-23 -154 -59.5 -306.5t-79.5 -312.5q-27 -98 -48.5 -204.5t-11.5 -225.5q4 -27 -12 0q-31 55 -30 146.5t16.5 191t37 191.5t35.5 145q29 102 66 203.5t69 179.5q4 8 7.5 16.5t7.5 16.5q-29 -4 -57.5 0t-45.5 8q-37 6 -71.5 14.5t-59.5 18.5 q-6 4 -13 5t-7 3q0 10 14 14q49 33 101.5 24t103.5 -22q39 -10 89 -6t71 27q27 -66 37 -135.5t9 -142t-12.5 -145t-27.5 -140.5zM475 113q-16 -61 -41.5 -101.5t-55.5 -63t-62.5 -30.5t-63.5 -6q-37 2 -74 14.5t-71.5 21.5t-67.5 9t-59 -20q-4 -2 -8.5 -1t-0.5 11 q27 45 62 56t72.5 6t78.5 -18.5t80 -17.5q51 -4 109.5 27t91.5 121q4 4 7 6t3 0q4 -10 0 -14zM274 39q0 -6 -5 -8t-9 -2q-16 -4 -44 -4t-48 4q-6 0 -29.5 2t-52.5 1t-55.5 -8.5t-36.5 -23.5q-10 -10 -8 -3t2 11q16 57 52 84t64 23q78 -12 156 -62q4 0 9 -4t5 -10z" />
<glyph unicode="^" horiz-adv-x="950" d="M461 1403q-2 -14 -6 -30.5t-10.5 -30t-12.5 -20.5t-10 -1q-8 4 -9 17.5t3 19.5q10 47 8 79.5t-6 78.5q-2 16 4 8t10 -15q16 -29 24.5 -50t4.5 -56zM831 954q-66 -12 -114.5 15.5t-65.5 60.5q-23 41 -39 94.5t-28 104.5q-4 16 -4 27.5t24 -11.5q18 -18 40 -48t32 -52 q2 -8 20.5 -36t43 -58.5t51 -56t49.5 -29.5q16 -2 7.5 -5.5t-16.5 -5.5zM399 1413q-29 -63 -83 -107t-113 -83q-39 -25 -76 -48.5t-59 -72.5q0 -2 -7 0q-2 6 -2 14q-6 37 13.5 69t48.5 59.5t59.5 50t48.5 38.5q37 29 77 53.5t75 45.5q4 2 9 4t9 -2q4 -5 0 -21zM356 1253 q4 -4 1 -12t-7 -12q-10 -16 -39.5 -45t-52.5 -45q-20 -14 -47 -36t-51.5 -46.5t-43 -51t-20.5 -49.5q0 -6 -2 -8t-4 2q-4 4 -4 9.5t-2 9.5q-10 59 8.5 110t50.5 72q41 27 90.5 54.5t100.5 45.5q4 2 11 4t11 -2zM590 1094q18 -37 37.5 -80t68.5 -64q10 -4 1 -7t-17 -3 q-39 0 -70.5 24.5t-58.5 59.5t-47.5 75t-34.5 68l-35 -34q-41 -35 -87 -63t-89 -55.5t-80 -57t-57 -68.5q-2 -6 -5 -1t-3 9q6 61 35.5 100t72.5 70t90 57.5t88 63.5q49 45 71 115.5t-5 169.5q-4 12 1 8t9 -8q12 -25 36 -38.5t55.5 -26.5t68.5 -33.5t76 -63.5 q31 -43 50 -91.5t39.5 -92.5t44 -81.5t62.5 -58.5q8 -4 3 -6t-15 -2q-59 4 -93 37t-57.5 78t-42 95t-49.5 93q-23 35 -61.5 61.5t-89.5 36.5q16 -68 17 -92t4 -40.5t15.5 -46t51.5 -107.5z" />
<glyph unicode="_" horiz-adv-x="1302" d="M934 -250q-98 6 -205.5 22.5t-206.5 39.5q-4 2 -17 5t-13 9t14 8t22 2q20 2 51 4t65 2t66.5 -1t55.5 -5q10 -2 45 -3t82 -1t100.5 2t102.5 7t89 12.5t60 19.5q4 0 6 1t4 1h5q0 -6 -3.5 -11t-3.5 -7q-25 -29 -64.5 -49.5t-84.5 -35t-90 -19.5t-80 -3zM547 -322 q-86 2 -177 14.5t-163 26.5q-10 2 -18.5 5.5t-8.5 5.5t9.5 5t17.5 3q131 27 266 18.5t272 -18.5q88 -8 177.5 -14.5t189.5 14.5q10 0 10 -6q0 -2 -4 -3t-6 -8q-43 -33 -118.5 -44t-158.5 -11t-162 5t-126 7zM31 -256q-14 -10 -15 -6q0 4 2 8t5 4q45 68 106 110t131 65.5 t143.5 29.5t147.5 4q100 -4 198.5 -15.5t191.5 -19.5t179 -8t164 21q4 0 8 2t4 -2q2 -4 -3 -6.5l-9 -4.5q-78 -47 -168 -58t-188.5 -5t-199.5 19.5t-200 15.5q-66 2 -133 -5.5t-132.5 -25t-125 -48t-106.5 -75.5zM152 -250q-29 -14 -57.5 -29.5t-55.5 -37.5q0 -4 -5 -5.5 t-5 0.5q0 12 2 17q0 4 2 6q20 31 38.5 51.5t65.5 42.5q20 8 51 16.5t57.5 13.5t46 3t19.5 -10q0 -2 -8 -6.5t-18.5 -8.5t-20.5 -9l-14 -7q-27 -10 -51 -18.5t-47 -18.5z" />
<glyph unicode="`" horiz-adv-x="675" d="M555 1178q18 -4 30.5 -17.5t20.5 -30t11.5 -33t3.5 -28.5q0 -16 -3.5 -26.5t-9.5 -6.5q-2 2 -6 4t-8 13q-4 20 -8 31.5t-9.5 20.5t-11.5 20.5t-14 29.5q-4 10 -6 18.5t10 4.5zM631 1098q-8 53 -29.5 97t-77.5 71q-27 12 -67.5 27.5t-77.5 37t-62.5 50t-19.5 65.5 q4 18 10 30.5t10 2.5q23 -49 57 -73t70.5 -38t73.5 -26.5t65.5 -37t46 -68.5t17.5 -122q0 -10 -2 -22.5t-6 -12.5q-2 1 -8 19zM561 1079q0 -8 -8 -8q-41 0 -102.5 18.5t-118 50t-96 72.5t-39.5 86q0 4 1 16.5t9 12.5h4q20 -45 77.5 -82t118 -66.5t107.5 -54.5t47 -45z M485 1219q2 -8 -4 -9.5t-10 -1.5q-35 0 -76 10.5t-75.5 29t-58 47t-23.5 65.5q0 16 4 44t16 38q10 4 11 4t1 -6q0 -49 32 -85t72 -60.5t73.5 -43t37.5 -32.5z" />
<glyph unicode="a" d="M825 721q-16 -82 -55 -164t-74 -154q-2 -4 -9 -14t-11 -10q-6 2 -6 13v16q2 18 7 43.5t9 53t9 53.5t12 46q18 70 30.5 120t18.5 91t7 78t-5 80q-2 16 2 20q4 2 10 -4t10 -12q35 -55 47 -121.5t-2 -134.5zM874 858q27 -39 27 -102.5t-12 -130t-30.5 -128t-27.5 -98.5 q-16 -72 -44.5 -143.5t-49.5 -126.5q-2 -6 -6 -13t-8 -7t-4 8v14q-6 113 24.5 220.5t65.5 217.5q20 68 38.5 138.5t16.5 154.5q0 8 2 8zM682 893q-125 -51 -212 -146.5t-134 -214.5q-20 -53 -30.5 -95t-16.5 -91q-2 -10 6 -20.5t16 0.5q37 45 94.5 114.5t115 147.5 t103.5 157.5t58 147.5zM545 199q-31 -43 -59.5 -80t-63.5 -64.5t-78 -44t-98 -18.5q-92 -4 -140.5 47t-67 125t-13 152.5t21.5 129.5q23 72 54.5 136.5t67.5 117t74 90t74 58.5q2 0 9.5 4t7.5 -2q2 0 -2 -6t-8 -10q-106 -111 -169 -250.5t-71 -286.5q-2 -37 3 -80t20.5 -81 t44 -63.5t77.5 -25.5q39 0 72 13.5t61.5 35t52 47t42.5 47.5q41 51 75 107q0 41 5.5 80t15.5 78q6 29 11 46t10.5 32.5t10.5 33t15 45.5q-33 -57 -64.5 -107t-67.5 -96.5t-74 -90.5t-83 -89q-35 -35 -57.5 -22.5t-26.5 57.5q-4 70 7.5 135.5t39.5 137.5q27 66 67 127t92 111 t115.5 86t135.5 48q4 23 7 39.5t5 32.5l4 23q4 2 9.5 -4.5t9.5 -16.5q25 -68 16.5 -135.5t-30 -137t-50 -142t-47.5 -146.5q-25 -104 -13.5 -216t87.5 -202l6 -8q-2 -2 -12 4q-59 37 -89 89.5t-42 109.5zM616 924q4 -4 -1 -6.5t-21 -6.5q-27 -8 -64.5 -30.5t-79.5 -57.5 t-83 -81t-72 -99q-31 -55 -52.5 -108.5t-34.5 -97.5t-19.5 -75.5t-6.5 -44.5v-64.5t8.5 -60t29 -41t61.5 -8.5q2 0 10 3.5t16 6.5t15.5 5t9.5 2q2 -4 -3 -10.5t-13.5 -13.5t-15.5 -13t-9 -8q-51 -31 -86 -18.5t-54.5 46t-26.5 79.5t-5 83q4 72 22.5 142.5t46.5 142.5 q23 55 68 113.5t101.5 107.5t118 81t118.5 34q20 0 22 -2zM737 4q4 -6 2 -8q-6 0 -16 4q-6 4 -32.5 24.5t-39.5 65.5q-4 16 -7 42t-3 48.5t3 39t9 16.5t13.5 -25t9.5 -31q6 -29 11 -50t11 -40q8 -23 21.5 -51.5t17.5 -34.5z" />
<glyph unicode="b" horiz-adv-x="849" d="M500 385q-27 -49 -59.5 -105.5t-63.5 -80.5q-31 -25 -43 -17t-29 37l-16 25q-6 -2 -6 -14.5t4 -22.5q12 -41 29.5 -56.5t50.5 -5.5q37 10 72.5 45t62.5 70q61 84 97 178t40 193q4 90 -22.5 116.5t-66.5 17.5t-86 -43t-83 -65q12 31 33.5 59.5t49.5 50t61.5 33t68.5 7.5 q20 -2 36.5 -20.5t27 -46t13.5 -64.5t-1 -76q-10 -78 -29.5 -155.5t-50.5 -143.5q-4 -10 -13.5 -28.5t-5.5 -22.5t19.5 13.5t23.5 25.5q37 49 66 111.5t44 128t17 132t-12 125.5q-12 51 -50 69.5t-83 12.5t-90 -28.5t-74 -48.5q12 31 33.5 54t49.5 40.5t59.5 25t64.5 2.5 q57 -6 87 -45t41 -89t10 -104t-5 -91q-10 -86 -38.5 -170t-71.5 -156q-35 -57 -91.5 -112.5t-122 -88t-135 -33.5t-131.5 50q-41 35 -58.5 93t-23.5 112q-10 92 3.5 185t39.5 173q41 125 93.5 252t90.5 250t48 237.5t-33 216.5q-2 4 -3 8.5t-3 4.5q-6 -2 -5 -4.5t1 -4.5 q12 -98 -8.5 -204.5t-58.5 -221t-85 -236.5t-90 -251q-29 -92 -46 -196.5t-1 -213.5q23 -147 121 -218.5t246 -55.5q106 12 188 86t137 178q41 80 71 169t36 181q4 57 -1 119t-26.5 114t-63.5 86t-112 38q-41 2 -91 -20.5t-79 -53.5q18 61 33.5 125.5t24 124t7 112 t-15.5 89.5q-4 16 -8 16q-2 0 -2 -16q-4 -131 -43 -249t-78 -225q-31 -86 -64.5 -171t-57 -168.5t-34 -164.5t4.5 -157q2 -8 7 -19.5t9 -11.5t3 10.5t1 20.5q10 72 39 173t67 204q23 20 55 48t63.5 50.5t58 33.5t39.5 1q16 -16 12 -60.5t-19.5 -97.5t-36 -103t-34.5 -77z M440 1120q12 43 19.5 103.5t5.5 121t-15.5 114.5t-39.5 87q-4 4 -8.5 9.5t-8.5 5.5q-6 0 2 -21q18 -41 12 -122t-24 -173t-43 -180t-45 -139q-12 -29 -25.5 -70t-26 -83t-23.5 -82t-17 -68q0 -10 -3 -29t-1 -19q10 -4 17 14.5t13 22.5q57 117 113.5 247t97.5 261zM221 145 q18 -31 47 -50t58 -25q10 -2 22 -5.5t12 -11.5q-2 -6 -18 -10q-8 -2 -18 -2q-35 2 -69 12t-71 60q-25 33 -36 73.5t-13 77.5t3 61.5t16 22.5q2 0 6 -11t7 -26.5t6 -29t5 -19.5q8 -35 14 -57.5t29 -59.5z" />
<glyph unicode="c" horiz-adv-x="690" d="M303 430q8 51 27.5 103.5t46 96.5t59.5 73.5t70 39.5q47 10 70.5 4t27.5 -18q6 -18 0 -36.5t-17.5 -33t-24.5 -25.5t-21 -13q-10 -4 -7 -10.5t19 -2.5q18 2 36.5 14.5t34 31t23.5 40t6 43.5q-4 23 -21.5 39.5t-42 24.5t-55 8t-57.5 -10q-53 -20 -93 -60.5t-69.5 -92.5 t-48 -112.5t-30.5 -121.5q-16 -76 -10.5 -149t46.5 -113q20 -20 53 -28.5t70 -7.5t75 13t71 33q8 4 13 8t1 6q-2 2 -16 -2q-100 -25 -155.5 -20.5t-79 37t-20.5 93t19 148.5zM328 8q-66 4 -125.5 42t-81.5 95q-23 59 -29 113.5t-2 106.5q8 106 42 213.5t106 193.5 q45 53 90 89t118 57q37 10 80 12t85 -9.5t79 -38t66 -71.5q6 -20 12 -20q6 6 0 22q-12 66 -66.5 104.5t-127 49t-150.5 -7t-137 -66.5q-80 -63 -134.5 -146t-85 -175.5t-36.5 -190.5t14 -193q12 -61 42 -99t69 -59.5t84 -27.5t90 -4q12 0 15 2t3 4q0 4 -20 4zM168 502 q0 -2 -1 -10.5t-2 -16.5t-1 -15t4 -7t13 20.5t9 22.5q53 123 127 217q6 6 24.5 27.5t49.5 44t74 39t96 10.5q55 -6 90 -41t25 -82q-8 -45 -31.5 -76t-46.5 -41q-16 -6 -9 -8t11 -2q25 2 52.5 19.5t48 45t28.5 62t-6 75.5q-16 43 -47 69t-68 37t-74.5 11t-64.5 -6 q-78 -20 -131 -59t-87 -91.5t-52.5 -114.5t-30.5 -130zM582 131q8 12 7 16.5t-5 3.5t-11.5 -6.5t-11.5 -7.5q-41 -29 -91 -46t-112 -17q-31 0 -72.5 21.5t-64.5 43.5q-8 10 -17 19.5t-16 7.5q-8 -8 0 -23q31 -72 78 -92t101 -20q31 0 62.5 8t61 21.5t53.5 32t38 38.5z" />
<glyph unicode="d" horiz-adv-x="968" d="M918 1067q-29 -129 -75 -257t-91 -243q-2 -10 -10.5 -26.5t-18.5 -12.5q-2 0 -2 18.5t2 24.5q4 29 11 69t16.5 81t19.5 81t18 68q6 12 15.5 55.5t20 101.5t18.5 126t10 130.5t-1 113.5t-17 76q-10 20 -5 22q8 0 19 -10q31 -31 48 -83t25.5 -112.5t6.5 -120t-10 -102.5z M971 1294q20 -41 24 -100t-2 -128t-19 -141.5t-29.5 -139t-32 -124t-25.5 -94.5q-29 -106 -52.5 -211.5t-23.5 -179.5q0 -27 -2 -26q-4 -4 -9 6t-9 20q-20 74 -17.5 153t19 161.5t42 167.5t50.5 169q29 106 57.5 222t18.5 245q0 10 -1.5 11.5t1.5 1.5q4 -1 10 -13zM676 874 q-123 -53 -210 -148t-132 -212q-18 -49 -29.5 -93t-15.5 -93q-2 -25 12 -19t25 19q25 31 45 60.5t41.5 61t45 67.5t52.5 77q31 43 58.5 85t49 79t37 67.5t21.5 48.5zM631 713q-74 -143 -152 -269.5t-178 -230.5q-63 -68 -76 20q-4 70 10.5 146t43.5 143q27 66 65.5 127.5 t89.5 112.5t113.5 86t134.5 47q25 86 47.5 169t36.5 163t15 154.5t-13 142.5q-4 12 -2 12q4 2 7 -4t3 -8q49 -98 48 -211t-27.5 -234t-66.5 -245.5t-68 -249.5q-18 -80 -21.5 -171t16.5 -180q20 -92 75.5 -156.5t127.5 -70.5q16 -2 17 -6q0 -4 -5.5 -5t-9.5 -1 q-43 0 -85 16.5t-78.5 47t-64.5 72.5t-40 95q-4 16 -4 27q-57 -109 -138 -175.5t-204 -76.5q-92 -6 -140.5 43t-66.5 118.5t-12 146.5t22 126q47 141 119 249t143 151q4 4 12.5 7t10.5 1q4 -2 -2 -8.5t-8 -8.5q-111 -111 -171.5 -253t-64.5 -289q-2 -37 2 -80t19.5 -81 t44 -63.5t77.5 -25.5q70 -2 132.5 42t108.5 108.5t75 138t33 135.5q-14 -16 -24.5 -33.5t-27.5 -38.5q-2 -4 -12 -13.5t-16 -6.5q-4 2 4 23.5t20.5 47t24.5 49t16 31.5q23 47 35.5 94.5t28.5 102.5zM915 47q0 -4 -10 -8q-6 -2 -10 -2q-39 -4 -73 4t-68 43q-18 18 -31.5 55 t-21 72t-6.5 61.5t10 24.5q2 2 7 -8t9 -23.5l8 -27t6 -19.5q10 -33 24.5 -59.5t35.5 -46.5q49 -57 106 -60q4 0 9 -1t5 -5zM618 911q0 -2 -3 -4t-15 -6q-27 -10 -65.5 -33.5t-81.5 -58.5t-85 -81t-73 -99q-31 -55 -52.5 -107.5t-33.5 -96.5t-17.5 -75t-7.5 -41 q-2 -35 -2 -68.5t9.5 -61t30 -42t61.5 -8.5q4 0 25.5 9t25.5 7q2 -2 -2 -8t-12.5 -13t-15.5 -12.5t-9 -7.5q-18 -10 -41 -15t-44.5 -1t-39.5 17.5t-27 37.5q-23 76 -20 148q4 72 18.5 142.5t48.5 141.5q20 55 64.5 115t102 109t120 81.5t117.5 34.5h16t8 -4z" />
<glyph unicode="e" horiz-adv-x="704" d="M627 836q16 -20 25.5 -51t7 -67t-16.5 -75t-45 -76q-59 -70 -130 -107.5t-128 -37.5q-35 0 0 12q18 6 44 19.5t54.5 33t58 46t54.5 61.5q41 57 48 111.5t-21 82.5q-25 25 -58 28t-98 -36q-59 -35 -106.5 -86t-88.5 -108q-23 -29 -30 -29t6 37q25 72 68.5 133t105.5 104 q45 31 83 43.5t69.5 10.5t56.5 -15.5t41 -33.5zM737 692q-8 -49 -25.5 -83t-39 -57.5t-43 -37.5t-37.5 -27q-8 -6 -12.5 -2t6.5 15q37 31 74.5 83t39.5 115q0 109 -53 166t-133 50t-166 -62q-55 -35 -97 -81t-73 -98t-50 -107.5t-28 -110.5q-8 -53 -15 -114.5t0 -121 t38 -114t96 -93.5q10 -6 21.5 -8t11.5 -4q0 -4 -10.5 -5t-22.5 3q-51 10 -87 42t-58.5 73t-34.5 86t-14 82q-12 162 45 319q12 33 31.5 74t48 83t67.5 82t88 70q47 29 98.5 43.5t102.5 13.5t96 -18.5t80 -52.5q31 -33 48 -84t7 -119zM551 766q25 -29 6.5 -89.5t-86.5 -121.5 q-37 -35 -71.5 -56.5t-88.5 -37.5q-23 -78 -29 -154t5 -123q2 -18 13 -35.5t32.5 -26.5t56.5 -7t86 22q14 6 17.5 3t-13.5 -13q-37 -29 -78 -40t-76.5 -7t-61 24.5t-34.5 55.5q-16 72 -14 149.5t23.5 153.5t61.5 142.5t99 113.5q111 88 152 47zM530 113q-14 -20 -35.5 -40 t-49 -35t-57.5 -25.5t-60 -10.5q-53 0 -99.5 23.5t-70.5 95.5q-4 8 -4 15t4 7q8 4 16 -5t16 -19q23 -27 59 -47.5t68 -20.5q61 0 106.5 18.5t86.5 49.5q10 6 23 12.5t-3 -18.5zM502 711q-8 16 -60 -27q-47 -37 -74.5 -85t-48.5 -105q39 18 72 41.5t62 46.5q31 27 45 70t4 59 z" />
<glyph unicode="f" horiz-adv-x="643" d="M756 805q0 -2 -2 -7l-4 -10q-12 -29 -35 -49t-47.5 -34.5t-49 -20.5t-43.5 -4q-55 4 -114.5 19.5t-112.5 35.5q-2 0 -11 6.5t-9 10.5t6 6t10 4q12 4 32.5 6t42 2t42 -1t35.5 -3q33 -6 69.5 -7t71.5 3t63.5 14t44.5 29q11 10 11 0zM772 866l-6 -8q-37 -51 -87 -63.5 t-105.5 -6t-114 20.5t-113.5 16q-72 4 -145.5 -31.5t-126.5 -127.5q-4 -10 -8 -9q-2 0 -1 7.5t3 11.5q20 61 51 102t66.5 65.5t73.5 35t75 10.5q102 217 240.5 395t299.5 301q6 4 11.5 9t9.5 3q4 0 -2 -9t-8 -11q-131 -141 -255 -316.5t-222 -375.5q8 -4 17 -4t17 -2 q23 51 50.5 109.5t62.5 117.5q35 63 77 121.5t84 107.5t76.5 88t55.5 62q8 8 15 14t11 4t0 -10t-8 -14q-25 -49 -60.5 -114t-75.5 -133.5t-79 -137t-69 -123.5q-14 -27 -29.5 -52.5t-28.5 -54.5q14 0 31 -6q45 92 95 181t110 180q8 10 9 13t5 -1q2 -2 -2 -19 q-23 -59 -66.5 -157.5t-89.5 -204.5q41 -4 78 0t72 20q2 0 4 1t2 -5zM227 745q0 -8 -13 -19t-17 -13l-58 -39q-16 -16 -28.5 -30.5t-26.5 -35.5q-4 -4 -5 -8t-5 -4q-2 0 -2 16q0 8 2 17q10 29 20 48t37 42q10 8 26.5 16t32 13.5t26.5 5t11 -8.5zM297 612 q-29 -78 -47.5 -153.5t-34.5 -153.5q-23 -115 -32 -234.5t-4 -235.5t24.5 -224.5t54.5 -200.5q4 -10 7 -17t-1 -7q-6 0 -12 8q-57 94 -90 205.5t-42 236.5t2 258t40 268q27 135 67 265q-16 4 -28.5 6t-24.5 6q-4 2 -12 5t-8 7t6 6t10 5q74 27 149.5 20.5t153.5 -20.5 q47 -8 97.5 -12.5t103.5 16.5q8 4 8 0q0 -2 -8 -15q-23 -35 -67 -46t-91 -13q-29 -86 -48 -162t-30 -129l-123 -571q-4 -18 -6 -31.5t-6 -9.5q-6 -4 -7 13t-1 34q0 199 38 419t114 439q-12 4 -21.5 4t-19.5 2q-31 -80 -56.5 -160t-50.5 -157q0 -4 -3 -13.5t-7 -19.5 t-9.5 -17.5t-7.5 -7.5t-1 8.5t2 19.5t2.5 22.5t1.5 15.5q4 57 22 144t41 171q-25 0 -45 6zM322 -606q-4 -2 -15 8q-4 4 -6 8q-12 20 -21.5 37.5t-17.5 39t-15 52.5t-14 78q-6 35 -8 89t-2 105.5t4 88.5t11 37q4 0 8 -15.5t6 -36t3 -40t1 -27.5l18 -189q6 -55 18.5 -106 t26.5 -103q2 -8 3.5 -17t-0.5 -9z" />
<glyph unicode="g" horiz-adv-x="841" d="M786 915q-4 2 -9 -6t-9 -12q-31 -39 -55.5 -96.5t-42 -121t-28.5 -127t-19 -112.5q-10 -70 -17.5 -132t-13.5 -121.5t-10 -120t-11 -123.5q2 -2 2 -11.5v-18.5v-16.5t5 -7.5q2 0 6 7.5t8 15.5t6 16l2 9q23 49 39 114.5t27 130.5q2 16 8 67.5t14 119t19.5 146.5 t22.5 151.5t24.5 132t25.5 90.5q2 8 4 12t2 8v6zM719 924q0 2 -14 2q-6 0 -13 -2q-78 -8 -143.5 -42t-119.5 -84t-96 -113.5t-69 -131.5q-29 -70 -43 -147.5t-10 -145.5q6 -88 78 -16q61 61 115.5 133t102.5 151.5t91 162.5t86 167q8 16 6 16q-4 4 -9 0t-5 -8 q-111 -141 -206 -270t-175 -256q-10 -10 -13 -6t-1 14q4 47 15 97.5t32 101.5q49 125 141 221t231 143q19 9 19 13zM608 938q-2 4 -9 4h-13q-57 0 -120 -32.5t-120 -83t-102 -111t-68 -115.5q-29 -74 -48 -142.5t-22 -138.5q-2 -37 3.5 -71.5t19.5 -75.5q8 -25 27.5 -39 t41 -18t44 0t39.5 16q2 2 9 8t14 13.5t12.5 13.5t2.5 10q-2 4 -19 -5t-30 -11q-43 -8 -64.5 6t-30.5 42t-8 61.5t5 66.5q0 12 5 43t17.5 75t34 97t52.5 106t72.5 98.5t84.5 80t83 57t69 31.5q14 4 16 7t2 7zM856 961q-6 0 -10 -9q-2 -4 -4 -10q-61 -127 -86 -261t-37 -273.5 t-24.5 -280.5t-49.5 -283q-12 -45 -24.5 -94t-33 -96t-54 -89t-91.5 -71q-66 -35 -121 -29.5t-102 30t-86 62t-67 68.5q-4 4 -8.5 9.5t-6.5 3.5q-4 -2 -1 -9.5t5 -11.5q47 -88 144 -154q23 -16 55.5 -28.5t70 -17.5t77.5 2.5t77 31.5q68 45 108 95.5t64.5 102.5t37.5 107.5 t26 108.5q35 139 48 277.5t21.5 273.5t20.5 267t47 257q4 8 4 12v9zM614 569q10 43 27.5 89.5t28.5 91.5q0 4 3 14t1 10q-4 2 -12.5 -10t-8.5 -14q-29 -47 -51 -99.5t-41 -95.5q-4 -10 -17.5 -34.5t-26.5 -52.5t-22.5 -51.5t-2.5 -27.5q4 0 12 9.5t12 13.5q6 10 14.5 21 t16.5 22q-12 -51 -21.5 -85t-19.5 -60.5t-23.5 -50t-36.5 -54.5q-16 -23 -39.5 -48.5t-53 -47t-64.5 -35t-74 -13.5q-49 0 -77.5 26t-43 63.5t-18.5 80.5t-2 80q8 147 68.5 287.5t168.5 251.5q0 2 6.5 8t6.5 8q-4 4 -11 0l-8 -4q-37 -23 -77 -61.5t-75.5 -91t-65.5 -116 t-50 -130.5q-10 -35 -15.5 -83t-2 -100.5t14.5 -104.5t36.5 -92t65.5 -63.5t100 -19.5q59 4 95 20.5t58 34.5q29 23 51.5 47.5t44.5 47.5q-12 -72 -23 -122.5t-22 -95.5q-14 -61 -26.5 -117.5t-26.5 -99.5t-32.5 -70.5t-43.5 -31.5q-29 0 -28 -6q-2 -6 8 -10.5t20 -6.5 q31 -6 58.5 10.5t49 48.5t39 75t29.5 88q25 94 41.5 183t30.5 187q14 96 23 192.5t32 194.5zM385 -446q-4 4 -11 3t-9 -1q-35 -6 -69 2t-69 22q-39 16 -71.5 40t-73.5 50q-4 4 -12.5 8.5t-8.5 -0.5q-2 -2 3.5 -10t9.5 -12q27 -35 56.5 -65.5t76.5 -49.5q31 -12 63.5 -16 t60 -1t44 11.5t10.5 18.5z" />
<glyph unicode="h" horiz-adv-x="888" d="M430 1079q-35 -121 -79 -247.5t-91 -239.5q-2 -6 -11 -22.5t-16 -14.5q-4 0 -5 19.5t1 29.5q4 27 12.5 66t17.5 80t18.5 79.5t19.5 67.5q4 12 14.5 53t22.5 98.5t25.5 123t22.5 127t13 112.5t-2 78q-6 20 0 20q4 0 7 -5t8 -9q20 -37 31.5 -90t13.5 -110.5t-4.5 -115 t-18.5 -100.5zM348 1552q27 -104 13.5 -218.5t-46 -233.5t-73.5 -241t-70 -245q-18 -78 -29.5 -160.5t-11.5 -163.5t13.5 -156t45.5 -134q4 -8 3.5 -12t-13.5 12q-53 61 -78.5 139t-29.5 164t8 178t35 181q31 123 68.5 241.5t71.5 231t56.5 218t22.5 203.5q0 10 2 11 q8 -1 12 -15zM721 0q-76 35 -121 108.5t-55 170.5q-10 94 0 156.5t24 123.5q2 8 8.5 27.5t9.5 40t0 36t-18 19.5q-29 6 -65.5 -25.5t-70.5 -79t-61.5 -97.5t-35.5 -79q-18 -59 -39 -112t-37 -107q-6 -23 -10 -20q-4 0 -5 8t-1 18q0 82 12 165t33.5 165t48.5 164t51 166 q33 104 62.5 212.5t40.5 233.5v11.5t2 1.5q6 0 10 -17q10 -27 9 -75t-8 -105t-20.5 -116.5t-27.5 -106.5q39 41 92 63.5t127 12.5q84 -12 129 -60.5t61.5 -116t9 -144.5t-25.5 -148q-16 -55 -30.5 -97.5t-29 -77t-24.5 -65.5t-16 -66q-4 -23 -9 -22q-4 0 -7 8t-5 16 q-12 45 -1 111t29.5 138.5t34 147.5t12.5 138t-34 111.5t-104 66.5q-31 8 -67 5t-67.5 -16t-56 -38t-33.5 -57q39 41 100.5 67.5t119.5 7.5q53 -16 75.5 -59t26.5 -76q8 -72 -9.5 -130t-39.5 -111q-4 -6 -12.5 -19.5t-12.5 -11.5q-4 0 -4 16.5t2 24.5q6 20 10 64t3 91.5 t-12 88.5t-36 55q-29 16 -69.5 9t-87.5 -50q-41 -37 -70 -85t-49 -126q12 23 38.5 63.5t60.5 77.5t72 58.5t73 5.5q23 -12 29.5 -42t3.5 -67t-11 -71.5t-14 -55.5q-23 -61 -31 -134t1 -142.5t40 -131t90 -104.5q18 -10 7 -10h-15zM774 16q-29 16 -54.5 35t-49.5 72 q-10 20 -15.5 55t-6.5 66.5t3 53t11 19.5q4 0 8 -9t6 -21.5t4 -23.5t2 -15q8 -45 14 -66.5t17 -46.5q16 -33 32.5 -59.5t40.5 -48.5q10 -8 5 -12.5t-17 1.5zM256 0q2 0 -3 -2t-20 2q-16 8 -33.5 30.5t-27.5 88.5q-4 27 -4 64.5t3 71.5t9 58.5t15 22.5q2 0 4 -12.5t4 -27.5 t2 -30.5v-21.5q2 -45 5 -66.5t9 -58.5q6 -39 14.5 -71t22.5 -48z" />
<glyph unicode="i" horiz-adv-x="423" d="M338 676q6 27 7 61.5t-5 71.5t-21.5 70.5t-39.5 58.5q-12 8 -15 8q-8 0 0 -12q12 -27 9 -83t-13 -116.5t-21.5 -108.5t-13.5 -59q-14 -37 -25.5 -92t-11.5 -90q-2 -4 -2 -16.5t7 -14.5q2 0 8 10.5t10 14.5q37 66 70.5 143.5t56.5 153.5zM346 367q8 37 26.5 95t31 120.5 t12.5 123t-25 99.5q-8 8 -12 8t-2 -8q0 -78 -17.5 -144.5t-37.5 -130.5q-35 -104 -64 -203.5t-25 -203.5q0 -6 1.5 -13.5t7.5 -7.5q4 0 6 4.5t6 12.5q20 49 47 115.5t45 132.5zM201 0q-39 41 -59.5 91t-29 102.5t-4 105.5t16.5 100q18 74 47 148t49.5 146.5t23.5 143 t-30 138.5q-6 10 -8 10t-2 -3t2 -5q6 -61 -8.5 -127t-37 -134.5t-50 -141t-45.5 -148.5q-14 -55 -19.5 -112.5t7 -114t45 -107.5t94.5 -94q4 -4 10 -5t-2 7zM217 78q-6 16 -13 40.5t-11 47.5q-4 8 -10.5 30.5t-10.5 22.5q-8 0 -11 -14.5t-3 -36t3 -45t9 -39.5 q12 -41 29.5 -57.5t46.5 -26.5q12 -6 18 -6q2 0 1 3t-3 3q-14 16 -25.5 34.5t-19.5 43.5zM377 1137q-10 0 -31.5 3t-21.5 19q0 6 18 15.5t41 27t41 45t18 70.5q0 53 -20 80q-4 6 -10 13t-4 9q4 0 9 -3t7 -5q41 -23 62.5 -58.5t21.5 -68.5q0 -66 -30.5 -106.5t-100.5 -40.5z M301 1219q-25 -10 -25 12q0 16 12.5 31.5t24 34t15.5 42t-13 58.5q-4 10 -14 22.5t-6 14.5t17.5 -3.5t17.5 -7.5q35 -16 52 -49t17 -57q0 -39 -31.5 -64.5t-66.5 -33.5zM242 1329q0 10 6 23.5t20 13.5q10 0 16.5 -13.5t6.5 -23.5q0 -8 -6 -21.5t-17 -13.5q-14 0 -20 12.5 t-6 22.5z" />
<glyph unicode="j" horiz-adv-x="485" d="M352 1184q-10 0 -32.5 4t-22.5 18q0 8 18.5 17.5t42 26t42 44t18.5 70.5q0 57 -21 82q-4 6 -10 12t-4 10q4 0 9 -2t9 -4q41 -23 62.5 -59.5t21.5 -69.5q0 -66 -31.5 -107.5t-101.5 -41.5zM276 1266q-10 -2 -17 0t-7 14q0 16 12 31.5t23.5 34t15.5 42t-12 58.5 q-4 8 -14.5 20.5t-6.5 16.5q4 2 17.5 -3t17.5 -10q35 -16 52.5 -46.5t17.5 -59.5q0 -39 -32 -63.5t-67 -34.5zM217 1378q0 8 7 22.5t20 14.5q10 0 16 -14.5t6 -22.5t-6 -22.5t-16 -14.5q-12 0 -19.5 14.5t-7.5 22.5zM342 696q-4 29 -13.5 82t-27.5 96q-4 10 -12 24.5 t-13 12.5q-4 -2 -4 -14t4 -43q8 -49 7.5 -119.5t-10 -154.5t-30 -178.5t-50.5 -188.5q-8 -25 -22.5 -58.5t-31 -71.5t-32 -76t-23.5 -70q-8 -51 22 -11q55 61 102.5 151.5t81.5 193t48 213t4 212.5zM399 655q-4 14 -6 17.5t-6 3.5t-4 -17q0 -141 -26.5 -270t-73.5 -252 q-8 -23 -33 -78t-58.5 -125.5t-70.5 -147.5t-67.5 -142.5t-50 -110.5t-19.5 -49q0 -8 4 -7t8 5t8 10t6 8q72 86 150 217t138 279.5t95 301.5t21 280q-5 40 -15 77zM-33 10q-29 -74 -57.5 -144.5t-49 -145t-28.5 -156.5t2 -176q0 -10 3 -24.5l6 -29t7.5 -25.5t6.5 -14 q4 0 4 19q2 96 14 182t33.5 166t51.5 157t65 156q41 86 86 187.5t79.5 211t53 224.5t6.5 231q-4 23 -9 52.5t-16 60.5q-10 33 -16 33q-4 0 -2 -33q12 -123 -10.5 -248t-61.5 -245.5t-85 -232.5t-83 -206zM-8 -313q0 6 -6 8q-14 2 -30.5 -29t-32 -78t-25 -104t-9.5 -109 q0 -16 5.5 -45.5t9.5 -46.5q0 -4 3 -15t7 -11q6 -2 7 6t1 12q4 47 8 91t15 87q4 16 12 50t16.5 70t14.5 68t4 46z" />
<glyph unicode="k" horiz-adv-x="849" d="M801 956q8 -33 3 -65.5t-16.5 -61t-29 -50t-33.5 -34.5q-49 -35 -110.5 -64.5t-120.5 -51.5q-4 -2 -14.5 -5t-14.5 3q-2 2 3 10t7 10q20 25 55 53.5t62 44.5q8 6 40 31t65.5 58.5t62 68.5t31.5 60q0 4 1 5t1 3t2 2q4 -2 5 -7.5t1 -9.5zM416 1122q-29 -125 -76 -253 t-100 -238q-4 -10 -11.5 -27.5t-13.5 -17.5q-4 4 -3 21.5t3 23.5q6 31 16.5 78t23.5 100t26.5 104.5t25.5 90.5q41 137 53.5 271t-10.5 257q-2 8 -1 12t1 6q10 4 19 -12q25 -33 39 -85t19 -110.5t2 -117t-13 -103.5zM297 1583q41 -100 37 -214t-33 -234.5t-71 -244.5 t-76 -245q-23 -76 -36.5 -161t-13.5 -170t16.5 -164.5t55.5 -147.5q6 -10 -1 -8t-11 6q-51 63 -77 146t-31 175.5t7.5 188.5t36.5 182q37 121 75 240t66.5 231.5t42 218t-0.5 201.5q0 4 -1 9t3 5t7 -5t5 -9zM840 51q16 -4 12 -10t-10 -8q-63 -16 -123 -6t-98 39 q-51 37 -89 96t-73 112q-2 4 -6 11.5t-2 11.5q4 6 11 3t9 -5q27 -12 64.5 -39t56.5 -49q16 -18 45 -44t62.5 -48.5t70.5 -41t70 -22.5zM905 96q10 -2 5 -6t-13 -4q-66 -12 -117 13.5t-95 67.5t-86 91t-89 88q-59 47 -146.5 67.5t-187.5 -18.5q-10 -4 -8 2t6 11 q18 12 38.5 23t39.5 18q25 109 59.5 216t69.5 220q33 104 59.5 219t22.5 244q0 12 4 12t5 -6t5 -11q20 -43 20.5 -114.5t-12 -154.5t-33 -169t-40.5 -155q41 43 91 72.5t100 57t93 62.5t70 88q0 2 1 4t3 -2q0 -2 1 -6t1 -8q-4 -66 -39 -110t-84 -78.5t-106.5 -65.5 t-106.5 -68q-59 -45 -79.5 -108.5t-34.5 -124.5q10 14 21 31.5t21.5 33t18.5 23.5t12 4q2 -2 -1 -13.5t-7 -25.5t-8 -28.5t-6 -22.5q10 -2 17 -2t13 -2q47 68 111 114t133 87q47 29 91 61.5t79 85.5q2 6 6 2q2 -2 1 -5t1 -9q2 -43 -24.5 -82t-65.5 -72t-80 -59.5t-63 -44.5 q-33 -25 -72 -46.5t-74 -39.5q61 -20 115 -66q47 -37 88 -83t82 -89t83 -76t91 -43zM262 291q-4 -12 -11 -35t-11 -43q-4 -10 -5.5 -20.5t-5.5 -8.5q-6 2 -9 16.5t-3 24.5v32.5t3 34t12.5 26t27.5 10.5q27 -2 58.5 -19.5t64.5 -45t65.5 -61.5t65.5 -69q35 -39 77 -79 t101 -56q8 -4 8 -7t-10 -3q-41 0 -83 17.5t-82 43t-73.5 54t-58.5 51.5q-35 33 -68.5 69.5t-62.5 67.5zM238 2q4 -6 -1.5 -8t-15.5 6q-25 23 -45 54.5t-31 97.5q-8 39 -11 83t7.5 78.5t39 58t83.5 23.5q14 0 32.5 -4t34 -9t25 -12.5t2.5 -13.5q-2 -6 -21.5 -4t-23.5 2 q-25 4 -48 5t-41.5 -5t-30 -23.5t-11.5 -49.5q0 -70 13 -131q8 -41 17.5 -77t25.5 -71z" />
<glyph unicode="l" horiz-adv-x="425" d="M412 1067q12 45 16 109.5t0 129t-19.5 122t-46.5 88.5q-12 12 -19 8t3 -21q20 -37 19.5 -113.5t-13 -166.5t-33 -180.5t-40.5 -157.5q-10 -29 -20.5 -72t-22 -87t-19.5 -86t-12 -71q0 -6 -2 -23.5t4 -21.5q4 0 12 17.5t10 21.5q49 115 100.5 245t82.5 259zM365 567 q10 37 28.5 96.5t37 130t35.5 147.5t26.5 149.5t6.5 134t-22 100.5q-2 6 -8 12t-6 -10q4 -131 -26.5 -262t-65.5 -238q-27 -84 -54.5 -168t-47 -166.5t-24.5 -162.5t15 -154q8 -27 14 -26q6 2 7 26q0 37 7 83t19 97.5t27 105.5t31 105zM326 6q-72 8 -128.5 71.5t-74.5 155.5 q-18 88 -9 179.5t31 171.5q33 123 78 253t77 257t36 244.5t-41 215.5q-4 2 -6 9.5t-6 5.5q-6 0 -2 -15q16 -94 1.5 -203.5t-46 -227t-71.5 -242.5t-75 -250q-27 -92 -36 -195.5t14 -208.5q12 -53 37.5 -96t60.5 -72.5t76 -46t84 -14.5h6q2 0 6 2q0 6 -12 6zM264 109 q-37 43 -59 110q-2 6 -6 19.5t-8.5 27t-8.5 24.5t-6 11q-8 0 -8 -26.5t6 -61.5t18.5 -71t28.5 -56q33 -37 67 -45t68 -8q12 0 19.5 7t-10.5 11q-60 7 -101 58z" />
<glyph unicode="m" horiz-adv-x="1253" d="M571 518q-29 -123 -39 -256t17 -258q2 -4 -1 -9t-7 5q-35 68 -48.5 137.5t-13.5 138t10.5 138t26.5 137.5q2 8 8 33.5t9.5 51.5t-1 40t-24.5 0q-47 -35 -87 -87t-65 -102q-2 -4 -9 -23.5t-14 -42t-13.5 -44t-8.5 -27.5q-16 -63 -40.5 -120.5t-41.5 -106.5q-6 -20 -8 -19 q-10 0 -10 19q-10 100 17.5 193.5t60.5 191.5q20 63 37.5 125.5t15.5 138.5q-2 53 40 104.5t126 86.5q49 20 92 18t80 -18.5t65.5 -47t47.5 -67.5q12 23 36.5 48.5t58.5 43.5t76 27.5t93 1.5q37 -6 64.5 -24.5t49 -42t34 -48.5t18.5 -41q23 -68 23.5 -151.5t-17.5 -151.5 q-31 -111 -73 -197t-56 -153q-6 -23 -8 -23q-8 0 -9.5 8.5t-3.5 16.5q-4 43 11.5 109.5t36 143.5t37 156.5t14.5 148t-31 120t-98 69.5q-55 14 -97.5 1t-70.5 -29q-43 -29 -55.5 -61t-12.5 -60q35 63 92.5 101t134.5 13q51 -16 73 -61t24 -100.5t-11.5 -110.5t-31.5 -92 q-2 -4 -10.5 -19.5t-18.5 -13.5q-2 0 -1 16.5t1 24.5q6 25 8 57.5t1 67.5t-5 67.5t-12 55.5q-10 29 -31.5 38t-46.5 5t-48.5 -16.5t-39.5 -26.5q-45 -39 -55.5 -70.5t-16.5 -72.5q25 41 60.5 76.5t70.5 58.5q18 8 31.5 6t23 -11.5t13.5 -22.5t6 -23q6 -68 -5 -119 t-26.5 -105.5t-25 -121t3.5 -164.5q10 -72 43 -129.5t82 -71.5q14 -4 7 -6t-11 -2q-37 4 -70 28.5t-58.5 61.5t-42 82t-18.5 90q-6 92 11.5 175t33.5 142q4 16 9.5 42t4.5 44.5t-13.5 21.5t-41.5 -24q-41 -37 -71.5 -80t-44.5 -96q-47 -170 -136 -325q-4 -8 -10 -15.5 t-8 -5.5q-4 0 -2 10.5t4 20.5q12 72 30.5 139.5t36 138t31 145t15.5 160.5q-4 29 -11.5 60t-42.5 71q-41 45 -96 47.5t-90 -10.5q-23 -6 -48.5 -22.5t-47 -39t-34.5 -52t-7 -64.5q23 41 52.5 80t76.5 59q14 6 36.5 11.5t47 6.5t49.5 -7.5t43 -30.5q33 -41 36 -74t1 -65 q-4 -59 -18.5 -111.5t-36.5 -99.5q-2 -6 -10.5 -19.5t-12.5 -13.5q-4 2 -5 17.5t3 21.5q2 23 6 66.5t5 92t-5 88.5t-27 56q-18 14 -55 8t-65 -28q-29 -23 -48.5 -43.5t-32 -42t-21.5 -47t-15 -60.5q25 47 57.5 88t79.5 70q33 23 51.5 18.5t25.5 -23t6 -47t-3 -53.5 q-4 -33 -10.5 -67.5t-14.5 -65.5zM1157 -4h-10q-4 0 -10 2q-29 6 -62 25.5t-55 72.5q-8 20 -12 53t-4 64t4 53.5t12 20.5q2 0 5 -9.5t5 -21.5t4 -24.5t2 -18.5q4 -29 10.5 -56.5t16.5 -50.5q10 -31 37.5 -64.5t50.5 -37.5q10 -4 6 -8zM606 0q4 -14 0 -14q-10 0 -16 10 q-10 12 -20.5 35.5t-8.5 81.5q0 23 4 54.5t9.5 59t11.5 46t14 16.5q2 0 3 -9.5t2 -21.5t1 -23.5v-15.5q0 -33 -2 -58.5t-2 -54.5v-65.5t4 -40.5zM303 680q-23 -78 -60.5 -153.5t-62.5 -145.5q-2 -4 -7 -15.5t-13 -9.5q-4 2 -5 13.5t-1 17.5q0 33 11 87t23 89q4 12 15.5 62.5 t20.5 110t12.5 114.5t-11.5 80q-8 14 0 14q6 0 17 -10q25 -23 40 -55.5t22 -68.5t6 -70.5t-7 -59.5zM168 -2q-63 43 -97 94t-46.5 106.5t-9.5 113t16 112.5q16 74 41.5 146.5t49 141t37 134t3.5 125.5q0 8 2 8q4 0 10 -10q37 -66 35 -135.5t-22.5 -142.5t-50.5 -147.5 t-46 -150.5q-10 -47 -13 -99t7 -103.5t33.5 -100.5t64.5 -88q8 -4 4 -8t-9 -1t-9 5zM246 -10q-6 -4 -17 6q-23 16 -44 34.5t-42 59.5q-8 14 -12 37t-4 44.5t3 35.5t9 14q8 -2 13.5 -22.5t9.5 -26.5q8 -23 14 -42t14 -38q12 -29 24.5 -49t29.5 -41q2 -2 4 -6t-2 -6z" />
<glyph unicode="n" horiz-adv-x="843" d="M721 735q4 -63 -8.5 -121.5t-30.5 -107.5q-4 -10 -13.5 -22.5t-17.5 -8.5q-4 0 -2 14.5t2 20.5q2 23 3 56.5t1 68.5t-3 66.5t-9 54.5q-18 66 -58 73t-81 -22t-78 -80t-49 -100q12 18 31.5 43.5t44 49t52 39t52.5 13.5q27 -2 38 -28.5t13 -65.5t-4 -84t-14 -84 q-14 -63 -24.5 -131t-7.5 -132.5t22.5 -125t66.5 -111.5q4 -6 6 -10t-10 2q-53 31 -85 72t-48 88t-19.5 98t1.5 102q8 74 24 129.5t25 124.5q4 43 -6.5 56.5t-24.5 15.5q-20 2 -46 -21.5t-53.5 -66.5t-53 -100.5t-44.5 -120.5q-16 -63 -39.5 -132t-44.5 -118q-8 -18 -12 -18 t-7 8t-3 12q-8 102 18.5 202.5t61.5 203.5q20 63 36.5 112t16.5 125q0 33 16.5 69t48 65.5t78.5 48t107 16.5q98 -2 151.5 -46t75 -111.5t18 -146.5t-17.5 -153q-12 -55 -28.5 -100t-35 -84t-35 -74t-26.5 -70q-2 -6 -4 -13t-6 -7t-6 8t-2 19q-4 70 14.5 134t39 132.5 t30.5 144.5t-8 168q-18 98 -90 131t-164 -4q-12 -6 -33 -18.5t-40.5 -33t-35.5 -48t-20 -60.5q25 37 57.5 70t69 52.5t74.5 23.5t75 -15q43 -23 59.5 -62.5t18.5 -74.5zM303 680q-23 -78 -60.5 -153.5t-62.5 -145.5q-2 -4 -7 -15.5t-13 -9.5q-4 2 -5 13.5t-1 17.5 q0 33 11 87t23 89q4 12 15.5 62.5t20.5 110t12.5 114.5t-11.5 80q-8 14 0 14q6 0 17 -10q25 -23 40 -55.5t22 -68.5t6 -70.5t-7 -59.5zM721 2q-4 -2 -16 2q-6 2 -11 4q-29 18 -49 42t-41 81q-6 20 -9 52t-1 62.5t7 52t15 21.5q4 0 9.5 -23.5t10.5 -54t11 -61t10 -45.5 q10 -31 20.5 -61.5t33.5 -53.5q4 -4 8 -11t2 -7zM168 -2q-63 43 -97 94t-46.5 106.5t-9.5 113t16 112.5q16 74 41.5 146.5t49 141t37 134t3.5 125.5q0 8 2 8q4 0 10 -10q37 -66 35 -135.5t-22.5 -142.5t-50.5 -147.5t-46 -150.5q-10 -47 -13 -99t7 -103.5t33.5 -100.5 t64.5 -88q8 -4 4 -8t-9 -1t-9 5zM246 -10q-6 -4 -17 6q-23 16 -44 34.5t-42 59.5q-8 14 -12 37t-4 44.5t3 35.5t9 14q8 -2 13.5 -22.5t9.5 -26.5q8 -23 14 -42t14 -38q12 -29 24.5 -49t29.5 -41q2 -2 4 -6t-2 -6z" />
<glyph unicode="o" horiz-adv-x="751" d="M688 567q6 55 2 116.5t-25.5 114t-65.5 87.5t-116 35q-96 0 -167.5 -52.5t-123 -129t-80 -164t-36.5 -158.5q-12 -98 -3 -170t33.5 -118t62.5 -68.5t83 -22.5q63 -2 134 36t132.5 106.5t107.5 167.5t62 220zM29 426q8 82 40.5 180.5t91 182t140.5 140t191 56.5 q82 0 135 -39t81.5 -99.5t37 -131t-0.5 -133.5q-18 -147 -71 -256t-125 -181.5t-152 -108.5t-153 -36q-55 0 -99.5 24.5t-74 77t-40.5 133t-1 191.5zM258 137q-10 0 -20.5 7.5t-16.5 17.5t-8 20.5t8 14.5q6 2 16.5 -14.5t22.5 -16.5q20 0 48 26.5t53.5 62.5t45 70.5 t27.5 51.5q8 16 16.5 41.5t15.5 52.5t12 52.5t7 43.5q10 92 -4 142.5t-47 50.5q-25 0 -51.5 -15.5t-50 -40t-42 -54t-26.5 -60.5q-10 -35 -14 -35q-6 0 -6 35q6 39 26.5 77t51 67.5t67.5 49t76 19.5t58.5 -27.5t27.5 -67.5t7 -82t-5 -67q-8 -55 -25.5 -107.5t-42.5 -105.5 q-12 -25 -36.5 -60.5t-56.5 -68.5t-67.5 -56.5t-66.5 -23.5zM324 98q2 -12 -19.5 -20t-44.5 -8q-63 2 -97 41t-47.5 92t-12.5 110.5t6 96.5q8 68 32.5 151.5t69.5 157.5t110.5 124t155.5 50q59 0 95 -31t53.5 -76t20.5 -97t-3 -95q-4 -47 -14.5 -86t-28.5 -86 q-6 -14 -16.5 -32.5t-22.5 -16.5q-6 2 -3 16t8 35.5t11.5 45.5t8.5 44q4 35 5 87t-8.5 101.5t-34 84t-73.5 34.5q-72 0 -132 -46t-105 -112.5t-73 -139t-34 -128.5q-4 -33 -2 -82t15.5 -97t44 -83t83.5 -37q16 -2 32 3t20 -1z" />
<glyph unicode="p" horiz-adv-x="874" d="M877 621q-2 -88 -31 -179.5t-80 -171.5t-122 -142t-157 -95q-27 -10 -30 -4q0 6 7 10t17 14q80 61 141.5 129t104.5 147t64.5 171t21.5 200q0 96 -58.5 154.5t-142.5 63.5q-66 4 -134 -32t-126 -112q-2 39 20.5 76t60.5 64.5t87 44t101 16.5q49 0 96 -19.5t84 -62.5 t57.5 -109.5t18.5 -162.5zM293 506q-29 -129 -60.5 -261t-72.5 -245q-4 -4 -9.5 -14.5t-9.5 -5.5q-2 0 -6 10q-2 4 -2 10q2 27 8 68t13.5 84t15.5 85t14 72q2 12 10.5 56.5t17.5 103.5t18.5 128t15.5 134.5t7 118.5t-7 82q-2 8 -2 15t2 7q4 0 8 -6t6 -10q23 -37 34 -92 t14 -116.5t-2 -121t-13 -102.5zM367 377q-12 -78 -23.5 -140.5t-24.5 -127.5q47 49 83 89t64 80.5t51.5 86t45.5 104.5q18 51 26.5 110.5t4.5 96.5q0 12 -7 18t-26 -2q-18 -10 -47 -35.5t-58.5 -65.5t-54 -94t-34.5 -120zM381 567q8 27 34.5 68t61.5 75.5t74 54t74 1.5 q25 -12 33 -50t3.5 -85t-17.5 -99.5t-30 -91.5q-47 -117 -117.5 -209t-189.5 -172q-2 -10 5 -13t18.5 -1t25 8t23.5 17q23 18 50.5 42.5t54 47t45 36t22.5 11.5q2 -2 -4 -13.5t-16.5 -25.5t-20.5 -27.5t-14 -17.5q-27 -29 -48.5 -50.5t-52.5 -41.5q-25 -18 -48 -25.5 t-52 2.5q-23 -102 -54.5 -212.5t-54.5 -196.5q-6 -33 -12 -29q-4 4 -5 14t-1 23q0 86 10 166t26.5 160.5t36 163.5t40.5 173q23 98 42 191.5t33 208.5q6 49 31 90t59.5 68.5t76.5 42t83 14.5q68 -2 118 -50.5t50 -154.5q0 -78 -23.5 -145.5t-52.5 -122.5q-4 -6 -17 -22.5 t-17 -12.5q-2 2 3 18.5t9 26.5q12 33 22.5 88t11.5 112.5t-14.5 106.5t-56.5 70q-49 25 -95 7t-82 -56.5t-58.5 -89t-22.5 -93.5zM201 993q31 -109 23.5 -228.5t-34 -245.5t-61.5 -255t-59 -258q-12 -70 -19.5 -150.5t-3.5 -164.5t21.5 -165t54.5 -151q8 -16 3 -16t-15 12 q-49 70 -75 155t-35 174t-5 179t16 172q20 129 52 254t61 244t48.5 230.5t12.5 213.5q0 14 4 15q2 2 6.5 -4.5t4.5 -10.5zM193 -641q-6 -2 -15 6l-8 8q-23 27 -41 55.5t-31 96.5q-4 27 -6 65.5t-2 75.5t4 63.5t12 24.5q8 0 14.5 -28.5t8.5 -57.5q4 -39 5 -70.5t7 -64.5 q8 -41 20.5 -80t28.5 -74q2 -4 3.5 -12t-0.5 -8z" />
<glyph unicode="q" horiz-adv-x="917" d="M817 926q18 -39 23.5 -95.5t0.5 -116t-16.5 -117.5t-27.5 -103q-45 -121 -99.5 -251t-111.5 -243q-2 -2 -7.5 -10t-9.5 -8q-4 2 -7 11t-1 13q6 29 15.5 70t21.5 83t24.5 83t24.5 69q4 12 19.5 55.5t34 101.5t38 124.5t34.5 131t24.5 117t5.5 83.5q0 18 2 18q4 0 6 -6 t6 -10zM631 948q0 -2 -2 -6t-17 -8q-27 -10 -68.5 -32.5t-85.5 -57.5t-87 -80t-74 -98q-10 -16 -26.5 -61.5t-33 -103t-27.5 -118.5t-7 -111.5t25.5 -81t68.5 -28.5q10 0 29.5 10t23.5 8q4 -4 -13.5 -21.5t-23.5 -21.5q-16 -12 -39.5 -16t-46 1t-42 18.5t-27.5 35.5 q-14 41 -17.5 78t-3.5 72q2 70 20.5 139.5t49.5 146.5q23 55 67.5 114.5t101 110t119 83t117.5 34.5q4 0 11.5 -2t7.5 -4zM719 924q-129 -49 -223.5 -149.5t-139.5 -219.5q-20 -51 -30.5 -100t-16.5 -99q-4 -10 1 -15t12 5q82 129 192.5 267.5t214.5 281.5q12 18 12 29 q1 6 -22 0zM893 713q14 -63 -3.5 -158.5t-48 -197t-65.5 -195.5t-55 -154q-14 -37 -39 -106.5t-47 -134.5q49 23 89 44t48 62l2 2h6l2 -10q10 -53 -10 -85t-57 -51.5t-81 -33.5t-79 -35q-35 -23 -60.5 -72t-33.5 -100q-6 -37 0 -61.5t2 -28.5q-6 -2 -17 27q-12 35 -21 84 t-19 96q-29 135 -9.5 261t58.5 226q-25 -20 -45.5 -36.5t-41 -28t-45 -18.5t-59.5 -7q-59 0 -98 24.5t-64.5 65.5t-37 93.5t-14.5 104.5t3 100t15 81q20 70 51 133.5t67.5 115.5t74.5 91t73 59q4 2 10 5.5t10 -1.5q2 -2 -5 -7t-9 -9q-100 -117 -163.5 -254t-72.5 -285 q-2 -37 2.5 -80.5t19.5 -81.5t44 -63.5t76 -25.5q45 0 82 15t67.5 42t56 59.5t48.5 65.5q6 10 13 24.5t19.5 44t32 77.5t49.5 126q-16 -29 -33.5 -51t-35.5 -49q-4 -4 -13.5 -15.5t-13.5 -7.5t4 25.5t21.5 47.5t26 49.5t16.5 31.5q29 51 74 128t71 183q-41 -80 -88 -164 t-99 -163.5t-108.5 -153.5t-116.5 -133q-39 -39 -55 -34t-20 50q-6 70 6 148t41 145q27 63 69.5 127t98 117t122 91t138.5 54q6 2 20.5 4t20.5 -2q10 -6 9 -21.5t-1 -31.5q0 -102 -28.5 -208.5t-68.5 -216.5t-86 -223.5t-83 -225.5q-23 -72 -40.5 -175.5t-6.5 -207.5 q23 45 57.5 69.5t65.5 34.5q8 70 24 133.5t38 124.5t46.5 124.5t50.5 133.5q39 104 82 212t55 235q0 16 9 16q10 0 10 -10zM821 -193q23 -57 4.5 -103t-53.5 -69q-78 -49 -166 -51q-16 0 -23.5 -1t-11.5 7q-2 4 7.5 13.5t19.5 15.5q12 8 27.5 16.5t44.5 24.5q23 12 48 29.5 t46.5 38t35 43t11.5 43.5q0 12 2 8t4 -7.5t4 -7.5zM862 -338q6 -39 -12.5 -68.5t-47 -51t-59 -36t-51.5 -22.5q-25 -10 -47 -17.5t-45 -17.5q-27 -10 -20.5 -23.5t14.5 -29.5q4 -4 4 -10.5t-4 -6.5q-14 0 -22.5 7.5t-16.5 17.5q-29 29 -19.5 51.5t27.5 38.5q29 23 70 42.5 t88 39.5q35 14 69.5 36.5t61.5 63.5q4 6 6 -1t4 -13zM526 -455q4 -6 0 -17l-8 -22q-4 -12 -8 -21t-5 -20.5t2 -29t9 -45.5q8 -27 0 -27q-6 0 -14 8q-6 6 -18.5 35t-4.5 74q2 12 8.5 25.5t13.5 24.5t14 16t11 -1z" />
<glyph unicode="r" horiz-adv-x="593" d="M297 682q-16 -70 -46 -146.5t-67 -142.5q0 -4 -5 -13t-13 -9q-4 0 -5 12t1 16q0 33 8 87.5t20 88.5q4 12 13.5 59.5t16.5 106t8 112.5t-13 81v8q8 6 18 -4q27 -23 42.5 -55.5t22.5 -68.5t6 -70.5t-7 -61.5zM377 690q23 29 43 41t41 21q2 0 10 2t12 -4t-2 -14.5t-10 -12.5 l-31.5 -31.5t-31.5 -34.5q-20 -23 -33 -52.5t-19 -59.5q35 37 67 69.5t69 61.5q47 35 81.5 90t49.5 162q4 10 10 12t6 -14q6 -119 -24.5 -188.5t-92.5 -116.5q-33 -25 -65.5 -53.5t-62 -63.5t-54.5 -82t-43 -109q-14 -47 -28.5 -89t-30.5 -81q-4 -14 -13 -14q-6 2 -6 21 q-10 98 13.5 195t56.5 202q14 51 33.5 102t17.5 117q0 23 18.5 47.5t45 46t55 36.5t49.5 22q18 6 18 -2.5t-12 -20.5q-43 -39 -87 -92.5t-50 -112.5zM199 2q-2 -2 -3 -1t-12 7q-61 45 -96 98.5t-50 109.5t-13 112.5t14 109.5q16 72 39.5 142.5t44 137t31 131t0.5 124.5 q0 4 6 6q2 0 4 -3t4 -5q39 -66 39 -134.5t-18.5 -139t-46 -143.5t-44.5 -146q-20 -94 -2.5 -201t94.5 -191q4 -6 8.5 -8t0.5 -6zM260 0q-4 0 -8 2l-8 4q-29 18 -51.5 40t-38.5 63q-6 14 -10.5 37.5t-5.5 44t2 35t12 12.5q6 0 13 -16.5t11 -33.5q4 -23 9 -43t14 -36 q23 -51 59 -99q4 -10 2 -10zM594 920q0 -43 -24.5 -76t-59.5 -56q-6 -4 -8 1.5t-2 7.5q0 12 10 29.5t23.5 37t25.5 40t16 36.5q6 10 12.5 0t6.5 -20z" />
<glyph unicode="s" horiz-adv-x="555" d="M252 756q2 18 12 43.5t27.5 49t42 43t55.5 26.5q66 12 109 -8.5t65 -47.5q8 -12 6 -14q-4 -4 -14 2q-12 8 -40 14t-59.5 3t-61 -19.5t-48.5 -52.5q-16 -35 -22.5 -72t-7.5 -68.5t1 -54t2 -31.5q4 -23 7.5 -56.5t3.5 -68t-2 -68.5t-9 -59q-2 -6 -5 -20t-7 -14 q-10 0 -10 14v20q-4 51 -14.5 103.5t-19.5 108t-13 112t2 115.5zM180 350q2 41 -7 116t-7 173q2 51 10 105.5t39 107.5q33 57 83 85t87 26h12t6 -2q0 -4 -2 -3.5t-14 -3.5q-37 -10 -65.5 -33.5t-49 -54t-33 -63.5t-14.5 -60q-12 -113 2 -196q10 -68 16.5 -140.5t-5 -133 t-43 -100.5t-97.5 -44q-6 0 -15 1t-9 5t18 15q53 25 69.5 71.5t18.5 128.5zM-37 109q29 -45 91.5 -67t148.5 3q43 12 75.5 43t54 69t33 78.5t13.5 75.5q2 57 -3 112.5t-12.5 108t-12.5 101.5t-1 96q4 51 28.5 78t60.5 34t75 -5.5t72 -38.5q8 -4 6 -11q0 -4 -4 -2l-8 4 q-76 25 -118 15t-46 -74q-4 -74 11 -173t11 -220q2 -41 -9 -94.5t-36.5 -103.5t-67.5 -89t-100 -49q-109 -16 -173 12.5t-93 87.5q-4 12 -4 15h2zM53 109q39 -10 94 -9q18 2 45 10.5t29 4.5q6 -8 -12.5 -20.5t-47 -22t-59 -12.5t-51.5 6q-39 16 -56.5 35.5t-31.5 48.5l-4 8 q-4 8 -2 10t6 0q2 -2 2 -4q25 -23 42 -34t46 -21z" />
<glyph unicode="t" horiz-adv-x="514" d="M612 909q2 -2 2 -9t-2 -11q-18 -59 -63 -84t-80 -25q-43 0 -88 7.5t-86 37.5q-4 4 -10 8.5t-6 8.5q0 6 6 9l10 5q18 4 48 7t58 -1q20 -4 49 -4t59 4t54.5 13.5t36.5 27.5q6 8 12 6zM627 973l-6 -10q-35 -45 -74 -58.5t-82 -11.5t-87 11t-87 11q-57 2 -114.5 -34.5 t-98.5 -128.5q-6 -12 -8 -5t0 13q16 61 38.5 102t48 66.5t54.5 38t59 16.5q35 117 54.5 228.5t3.5 211.5v9q4 2 8 -2.5t4 -6.5q45 -98 37 -209.5t-41 -234.5q10 -2 16 -2h15q10 53 19 113.5t14.5 116t3 100.5t-14.5 67q-6 18 0 19q4 0 6 -4.5t6 -8.5q29 -29 45.5 -78 t22.5 -104t4 -109.5t-12 -95.5l-8 -32q6 -4 12 -4.5t12 -2.5q12 61 21.5 123t7.5 129q0 14 2 15q4 0 6 -6.5t4 -10.5q25 -45 24 -112.5t-12 -143.5q45 0 86 25q11 6 11 0zM203 834q0 -10 -11.5 -20.5t-17.5 -14.5q-10 -8 -23.5 -19.5t-23.5 -23.5q-10 -16 -19.5 -28.5 t-15.5 -35.5q-2 -4 -5 -7t-5 -1q-6 6 0 27q8 31 16 50t31 42q8 8 20.5 16t24.5 14.5t20.5 6.5t8.5 -6zM362 10q10 4 8.5 -2t-5.5 -8q-37 -12 -78 4t-76 51t-59.5 81t-30.5 91q-10 96 -2 186.5t31 178.5l34 129q-12 0 -24 6q-14 4 -15 10q0 4 15 13q57 29 115.5 24.5 t117.5 -14.5q37 -6 75 -9t83 15q4 4 8 2q4 -4 -2 -14q-12 -27 -34.5 -39.5t-47.5 -18.5q-16 -53 -28.5 -95t-20.5 -71q-23 -98 -52.5 -199.5t-39.5 -170.5q-4 -23 -8 -25t-8.5 8.5t-6.5 16.5q-8 59 -3 123.5t19.5 132t33 136.5t38.5 138h-20t-21 2q-16 -43 -33.5 -85 t-33.5 -79l-9.5 -19t-11.5 -15q-8 2 -6 19t2 24q4 31 13.5 71.5t17.5 87.5q-10 2 -22.5 3t-24.5 6q-12 -41 -23.5 -80t-21.5 -78q-16 -72 -24.5 -153t-0.5 -167q4 -39 21.5 -80t42 -73.5t56 -51t62.5 -12.5zM381 55q10 8 12 1t-8 -13q-8 -6 -21.5 -9t-30 -1t-34.5 12t-35 33 q-14 18 -23.5 53t-13.5 68.5t-2 58.5t11 25q10 0 15 -29t9 -47q8 -33 22.5 -68t30.5 -55q20 -27 37 -32t31 3z" />
<glyph unicode="u" horiz-adv-x="821" d="M719 647q-25 -76 -58.5 -145.5t-70.5 -139.5q-4 -4 -12.5 -19t-14.5 -11q-4 0 -3 12t1 18q2 16 9.5 47t16.5 65t18 65.5t16 50.5q35 111 45 196.5t-13 145.5q-4 10 0 10t8.5 -4t6.5 -6q23 -25 37 -63t20 -77.5t4 -78.5t-10 -66zM774 795q27 -41 25 -102.5t-15.5 -127 t-33 -125t-29.5 -94.5q-20 -68 -49 -138.5t-51 -121.5q-8 -18 -13 -16q-6 2 -7 9t-1 11q0 111 32 213.5t68 206.5q23 68 41.5 134.5t18.5 146.5q0 14 4 14q2 0 4 -3t6 -7zM365 152q4 -6 -14.5 -18.5t-24.5 -14.5q-90 -33 -140.5 -2.5t-72 92t-21.5 136.5t8 134 q6 51 23.5 113.5t42 123t56.5 113t69 80.5q4 2 9 6.5t9 4.5q6 -2 -6 -23q-12 -20 -29.5 -57t-36 -85t-36 -101.5t-27.5 -106.5t-14 -102.5t-4 -88.5t2 -65.5t4 -34.5q14 -63 54 -93t108 -18q2 0 20.5 4.5t20.5 2.5zM629 -6q8 -8 8 -12t-9.5 -2t-13.5 4q-16 8 -40.5 23.5 t-36.5 53.5q-6 16 -8.5 40t-2.5 44.5t4.5 34t10.5 10.5q4 -2 9 -18t9 -35q4 -23 10 -42t15 -40q10 -23 20.5 -36t24.5 -25zM440 106q-23 -35 -68.5 -70.5t-123.5 -35.5q-61 0 -105.5 33t-72 82t-39 107.5t-11.5 111.5q2 66 11.5 131t25 122.5t35 102.5t39.5 74q4 2 9 9t10 3 q2 -2 -1.5 -9l-5.5 -11q-18 -61 -35.5 -130t-27.5 -138.5t-10 -137t12 -125.5q8 -39 29.5 -71.5t47 -55t55.5 -33t58 -6.5q59 8 90 34t44.5 61.5t16.5 77.5t9 85q-10 -29 -40 -56.5t-63.5 -42.5t-65.5 -13t-48 37q-20 45 -22.5 98t2.5 117q4 63 18 130.5t38.5 130t58.5 118 t77 98.5l8 8q6 6 13 6l-9 -20q-59 -111 -100 -228.5t-49 -238.5q-10 -133 13.5 -174t58 -23.5t74.5 75.5t65 126q23 61 48.5 126.5t47 132.5t32.5 130.5t5 118.5q0 10 4 10q2 0 2 -2q0 -4 2 -4q2 -2 2 -4q33 -70 30 -141.5t-24.5 -145.5t-51.5 -150.5t-50 -154.5 q-12 -49 -18.5 -103.5t-2 -107.5t22.5 -101.5t53 -80.5q4 -4 4 -6q0 -4 -5 -3t-9 3q-39 14 -68 46.5t-45 77.5z" />
<glyph unicode="v" horiz-adv-x="688" d="M621 645q-35 -72 -82 -144.5t-99 -129.5q-2 -4 -10 -13.5t-14 -7.5q-4 4 -2 14.5t4 16.5q10 33 30.5 86t43.5 86q6 10 25.5 57t37.5 105.5t28.5 114t-1.5 81.5v7v2q8 0 12 -9q23 -27 34 -61.5t13 -71.5t-3 -72.5t-17 -60.5zM688 772q23 -43 13.5 -103.5t-33 -124 t-53 -119.5t-48.5 -91q-31 -59 -74.5 -119.5t-80.5 -108.5q-10 -14 -19 -14q-4 4 -3 10.5t3 12.5q33 106 82 197t103 190q35 61 62.5 125.5t37.5 142.5q0 10 2 10q6 0 8 -8zM252 705q0 -76 -11.5 -164t-23.5 -152q0 -4 -3 -14t-11 -13q-4 0 -7 10.5t-6 14.5q-4 16 -7 40 t-5 48.5t-3 49t1 42.5q2 12 -2 61.5t-12 107t-22.5 109.5t-35.5 73q-4 4 -5 9t1 5q4 0 9.5 -2t9.5 -4q29 -12 53.5 -39t41.5 -58.5t27.5 -64t10.5 -59.5zM367 0q0 -8 -5 -8q-2 0 -7 3t-9 5q-16 12 -23.5 34.5t-3.5 67.5q0 18 4.5 41t10.5 42.5t12 30.5t12 9q10 -4 9.5 -25.5 t-0.5 -31.5q-2 -53 -2 -96t2 -72zM250 104q-10 12 -18.5 33t-14.5 40.5t-7 33.5t5 16q10 2 19.5 -11t15.5 -26q-2 43 5 87.5t11 80.5q6 53 10.5 95.5t6.5 101.5q4 63 0 139t-33 148q-2 6 2 6t6 -2t6 -4q27 -20 44.5 -56t26.5 -80t12 -92.5t3 -91.5q31 55 63.5 109.5 t57.5 109t39 106.5t12 103q0 8 2 11q2 0 8 -11q29 -68 19 -136.5t-42 -137t-75 -137t-76 -136.5q-41 -86 -58 -188t11 -215v-2l-2 -2q-4 0 -6 2q-2 0 -2 2q-6 8 -14 16.5t-23 16.5q-59 31 -98 71.5t-60.5 88t-30.5 98.5t-9 102q-2 74 3 148.5t6 144.5t-7.5 134.5 t-34.5 117.5v4q4 4 8 2t6 -4q53 -49 71.5 -114.5t20.5 -139.5t-6 -151.5t-6 -153.5q2 -45 10 -92t26.5 -91t48.5 -85t71 -74q-8 20 -12.5 29t-20.5 36z" />
<glyph unicode="w" horiz-adv-x="1167" d="M1098 645q-35 -72 -82 -144.5t-98 -129.5q-2 -4 -10.5 -13.5t-14.5 -7.5q-4 4 -2 14.5t4 16.5q10 33 30.5 86t43.5 86q6 10 25.5 57t38 105.5t27.5 114t-3 81.5v7v2q10 0 14 -9q23 -27 34 -61.5t13 -71.5t-3 -72.5t-17 -60.5zM1165 768q23 -41 13.5 -101.5t-33 -123 t-53 -118.5t-48.5 -91q-31 -59 -74.5 -119.5t-80.5 -108.5q-10 -14 -19 -14q-4 4 -3 10.5t3 12.5q33 106 82 197t103 190q35 61 63.5 126.5t36.5 143.5q0 8 4 8q2 -4 4 -6t2 -6zM621 645q-35 -72 -82 -144.5t-99 -129.5q-2 -4 -10 -13.5t-14 -7.5q-4 4 -2 14.5t4 16.5 q10 33 30.5 86t43.5 86q6 10 25.5 57t37.5 105.5t28.5 114t-1.5 81.5q-2 2 -2 7q0 2 2 2q8 0 12 -9q23 -27 34 -61.5t13 -71.5t-3 -72.5t-17 -60.5zM684 819q12 0 25.5 -29.5t19.5 -91.5q10 -76 -3 -156.5t-34 -152.5q0 -4 -2 -14t-10 -13q-4 0 -8 10.5t-4 14.5 q-6 23 -10.5 54.5t-4.5 64.5q-12 -29 -24.5 -55.5t-24.5 -49.5v-20q2 -90 37 -183.5t119 -158.5q-8 20 -11.5 29.5t-21.5 35.5q-10 12 -18.5 34t-14.5 41.5t-7 33.5t5 14q10 4 19.5 -10t15.5 -27q-4 43 4 87.5t12 80.5q6 53 10.5 95.5t6.5 101.5q4 63 0 139t-33 148 q-4 6 2 6q4 0 6 -2t6 -4q27 -20 44.5 -56t26.5 -80t12 -92.5t3 -91.5q31 55 64 110.5t58.5 110t40 107.5t11.5 104q0 6 3 7q6 2 6 -7q31 -68 19.5 -137t-43.5 -139t-75 -138.5t-75 -136.5q-41 -86 -58.5 -188t10.5 -215v-2l-2 -2q-4 0 -6 2q-2 0 -4 2q-6 8 -13 16.5 t-22 16.5q-94 49 -136 119.5t-54 148.5q-33 -51 -71 -102.5t-68 -92.5q-10 -14 -19 -14q-4 4 -3 10.5t3 12.5q33 106 84 201.5t107 191.5q16 29 31.5 56.5t28.5 56t22.5 63.5t15.5 80q2 14 -1 34.5t3 20.5zM252 705q0 -76 -8 -160t-29 -156q0 -4 -2 -14t-10 -13 q-4 0 -8.5 10.5t-4.5 14.5q-4 16 -7 40t-5 48.5t-3 49t1 42.5q2 12 -2 61.5t-12 107t-22.5 110.5t-35.5 72q-4 4 -5 9t1 5q4 0 9.5 -3t9.5 -3q29 -14 53.5 -41t41.5 -57.5t27.5 -63t10.5 -59.5zM532 950q31 -68 20 -136.5t-43 -137t-75 -137t-76 -136.5q-41 -86 -58 -188 t11 -215v-2l-2 -2q-4 0 -6 2q-2 0 -2 2q-6 8 -14 16.5t-23 16.5q-59 31 -98 71.5t-60.5 88t-30.5 98.5t-9 102q-2 74 3 148.5t6 144.5t-7.5 134.5t-34.5 117.5v4q4 4 8 1t6 -3q53 -49 71.5 -114.5t20.5 -139.5t-6 -151.5t-6 -153.5q2 -45 10 -92t26.5 -91t48.5 -85t71 -74 q-8 20 -12.5 29.5t-20.5 35.5q-10 12 -18.5 34t-14.5 41.5t-7 33.5t5 14q10 4 19.5 -10t15.5 -27q-2 43 5 87.5t11 80.5q6 53 10.5 95.5t6.5 101.5q4 63 1 139t-34 148q0 6 2 6q4 0 6 -2t6 -4q27 -20 44.5 -56t26.5 -80t12 -92.5t3 -91.5q31 55 63.5 110.5t58.5 110 t40 107.5t12 104q0 6 4 7q2 2 3 -2.5t1 -8.5zM367 0q0 -8 -5 -8q-2 0 -7 3t-9 5q-16 12 -23.5 34.5t-3.5 67.5q0 18 4.5 41t10.5 42.5t12 30.5t12 9q10 -4 9.5 -25.5t-0.5 -31.5q-2 -53 -2 -96t2 -72zM844 0q0 -8 -4 -8q-2 0 -7.5 3t-9.5 5q-16 12 -23 34.5t-3 67.5 q0 18 4 41t10 42.5t12 30.5t13 9q10 -4 9 -25.5t-1 -31.5q-2 -53 -2 -96t2 -72z" />
<glyph unicode="x" horiz-adv-x="647" d="M647 862q2 -74 -36 -129t-83 -100q-63 -66 -137 -134.5t-145 -127.5q-4 0 -16.5 -7.5t-16.5 -3.5t3 14.5t9 14.5q12 18 30.5 42t40 48.5t42 47t37.5 38.5q39 39 80 79t76.5 80t63.5 77t40 67q8 12 10 13q2 -2 2 -8.5v-10.5zM629 942q-27 -86 -78 -149.5t-113.5 -122 t-131 -115.5t-130.5 -131q-37 -45 -67.5 -100.5t-49 -111.5t-21.5 -111.5t15 -100.5q6 -10 2 -12t-9 3l-9 9q-27 53 -30 114.5t12.5 125t47 124t74.5 111.5q10 14 20.5 25.5t20.5 23.5q-23 111 -52.5 205t-88.5 160q-4 8 -2 8q4 4 14 -4q43 -20 73 -52t51.5 -73t35.5 -89 t25 -97q6 8 15 18t19 18q-33 113 -75.5 182.5t-83.5 90.5q-4 2 -8.5 6t-0.5 8q2 2 9.5 1t11.5 -1q35 -4 67.5 -24.5t59.5 -48t45 -61.5t27 -64q4 -6 5 -14.5t5 -14.5l18 20q-12 41 -27.5 79t-43.5 77q-10 10 -11 10q4 4 9.5 2t9.5 -4q33 -16 60.5 -52t47.5 -81 q63 61 115.5 108.5t105.5 112.5q2 2 3.5 2t3.5 2q2 0 2 2q2 0 2 -5v-9zM635 18q-6 -4 -19 -4q-6 0 -12 2q-31 4 -54.5 10.5t-55.5 34.5q-12 10 -27.5 31t-28 41.5t-17.5 36.5t1 20q4 2 11 -3t14.5 -13t12.5 -14t7 -8q16 -18 32.5 -33t32.5 -31t40 -31.5t51 -27.5q2 0 8 -3.5 t4 -7.5zM563 -10q-57 0 -102 17.5t-81 48t-63.5 71.5t-46.5 86q-33 -35 -63.5 -64.5t-56.5 -58.5q-4 -6 -11.5 -10t-9.5 -2q-4 4 -1 12t7 14q47 106 121 194.5t164 180.5q53 55 111.5 106.5t97.5 108.5q6 10 14 11q2 0 2 -13q0 -59 -49 -113.5t-111 -121.5l7 -29 q16 -74 29.5 -149.5t23.5 -135.5v-13t-2 -7q-4 -2 -17 16q-39 53 -62.5 115.5t-37.5 130.5q-18 -18 -33.5 -34.5t-30.5 -33.5q-14 -16 -23 -27t-26 -26q35 -88 98.5 -162.5t155.5 -103.5q23 -8 -4 -8zM86 -6q-10 8 -21.5 28.5t-5.5 67.5q2 18 10.5 43t18.5 45.5t20.5 32.5 t16.5 10q8 -2 2 -27.5t-8 -33.5q-8 -27 -13.5 -46.5t-7.5 -43.5q-4 -29 -2 -46.5t6 -27.5q2 -6 1 -12t-17 10z" />
<glyph unicode="y" horiz-adv-x="798" d="M750 711q0 -102 -28 -214t-73 -220.5t-103.5 -206t-119.5 -166.5q-23 -25 -27 -23t4 31q12 33 32 74t39.5 80.5t38.5 76.5t32 62q14 31 32.5 81t36 111.5t34 129t28.5 130t19 114.5t5 85q-2 37 1.5 48t7.5 8t9 -13l9 -18q14 -41 18.5 -92t4.5 -78zM346 145 q-14 -16 -38.5 -30.5t-47.5 -14.5q-49 0 -81 29t-50 71t-25.5 89t-7.5 84q0 55 11.5 127.5t35 145.5t57 137.5t81.5 103.5q12 8 22 15t-6 -21q-12 -23 -23.5 -39.5t-17.5 -36.5q-33 -59 -52.5 -125t-31.5 -133q-18 -90 -18 -180q0 -33 3 -72t15 -74t38 -58.5t71 -23.5 q12 0 28.5 6.5t26.5 12.5q16 6 16 1.5t-6 -14.5zM803 676q8 -31 8 -72q0 -84 -24.5 -185.5t-64.5 -210t-94.5 -219t-112.5 -213t-119.5 -191.5t-116.5 -154q-2 -2 -7.5 -8.5t-10.5 -11.5t-9 -7t-4 6q0 4 25.5 54.5t64.5 125t85 161.5t89 167t74.5 141.5t42.5 83.5 q59 131 101 263.5t58 273.5q2 16 3.5 17.5t11.5 -21.5zM670 827q0 -115 -32 -232.5t-79 -232t-103.5 -222t-107.5 -199.5q-92 -172 -155.5 -349.5t-88.5 -369.5q-4 -23 -6 -19q-2 0 -5 11.5t-5 24.5t-3 27.5t-1 24.5q0 92 20.5 186.5t53 184.5t72.5 176t81 162h-55 q-61 0 -106.5 28.5t-74 76t-44 111t-15.5 132.5q0 27 6.5 75t18.5 100t30.5 102.5t41.5 81.5q16 23 18 18.5t-4 -27.5q-27 -78 -42 -161.5t-15 -165.5q0 -47 6 -102.5t25.5 -101.5t56.5 -77t100 -31q45 0 82 31t66.5 76t53 98t42.5 98q-20 -29 -48 -56t-58.5 -50t-61.5 -37 t-60 -14t-45 18.5t-25 46t-11.5 56t-2.5 51.5q0 74 9.5 148.5t30 147t54 139.5t83.5 122q4 6 10 11t11 7t5 -1t-8 -17q-59 -111 -97 -246t-38 -262q0 -12 1 -40t6 -56.5t16.5 -50t29.5 -21.5q6 0 16 6q86 43 145.5 119t98.5 169t56.5 192.5t19.5 189.5q0 33 4 35t14 -35 q13 -60 13 -107zM279 -385q0 -14 -9.5 -47t-21.5 -70t-24.5 -71.5t-18.5 -53.5q-16 -45 -24.5 -89t-18.5 -91q0 -4 -2 -12t-8 -8q-4 0 -6.5 10t-2.5 14q-4 16 -5 45t1 45q6 51 22.5 109.5t36 109t40 83t34.5 32.5q7 0 7 -6z" />
<glyph unicode="z" horiz-adv-x="737" d="M772 915q-10 -25 -19.5 -41t-33.5 -38q-10 -10 -27.5 -17.5t-33 -11.5t-26.5 -4t-11 8q0 4 17 15.5t24 15.5q25 14 38 23t22 18.5t18.5 19.5t23.5 29q10 10 11 2.5t-3 -19.5zM684 893q-39 -10 -71.5 -15.5t-65.5 -6.5t-69 3.5t-79 14.5q-45 10 -92 16t-108 -16 q-2 0 -8.5 -2t-6.5 0q0 4 4.5 10t6.5 10q27 31 67.5 43.5t84.5 13.5t84 -5.5t65 -12.5q51 -10 101 -17t87 -18q4 -2 13.5 -7t-13.5 -11zM526 803q0 -8 -9 -10t-11 -2q-12 -2 -34.5 -2.5t-45.5 -0.5t-45.5 2.5t-34.5 4.5q-72 10 -134 0.5t-97 -39.5q-10 -6 -11 0q0 4 2 6 q0 2 3 4q14 31 37.5 52.5t50 34.5t53 18.5t47.5 2.5q49 -6 101.5 -25.5t107.5 -31.5q2 0 11 -4t9 -10zM772 168q2 -4 -3 -11t-9 -12q-25 -29 -47.5 -40t-55.5 -21q-16 -4 -33.5 -5t-33 1t-25.5 5t-8 9t20.5 11.5t28.5 7.5q20 4 36.5 6t37.5 8q41 14 78 39q4 4 9 4t5 -2z M737 90q-53 -43 -99 -63.5t-88 -26.5t-79 -3t-68 3q-43 2 -90 8t-94 10.5t-89 0t-73 -24.5q-10 -6 -12 -4q-6 0 0 6q0 2 2 6q27 47 73 64.5t98 15.5t107.5 -14.5t100.5 -24.5q57 -16 138 -4t173 67q12 8 8 -2t-8 -14zM457 109q0 -4 -9.5 -6.5t-13.5 -2.5q-25 -2 -75 1t-80 8 q-35 4 -70 0.5t-65.5 -13.5t-53 -24.5t-33.5 -32.5q-4 -6 -7 -12.5t-7 -3.5q-6 4 -9 20t-1 35q10 111 55 193.5t119 160.5q66 68 132.5 123t125.5 113q-49 2 -96 11t-92.5 16t-88.5 8.5t-84 -11.5q-10 -4 -17 -1t5 14q49 45 100.5 56t102.5 6t102.5 -18.5t102.5 -15.5 q35 -2 69.5 1t68.5 16.5t65.5 40t60.5 73.5q8 12 10 13q2 0 2 -9v-6q-2 -16 -20.5 -49t-45 -73t-54 -79.5t-48.5 -68.5q-25 -33 -61.5 -70t-79.5 -72.5t-86 -68.5t-78 -57q-4 -2 -15.5 -8.5t-15.5 -2.5q-2 2 4.5 12.5t10.5 14.5q10 14 29.5 35.5t43 44t45 44t37.5 36.5 q33 31 55.5 52t40 39.5t31 38t31.5 46.5q-10 -2 -30.5 -4t-30.5 -2q-63 -80 -142.5 -144.5t-152.5 -140.5q-31 -35 -66 -73t-59 -87q35 27 96 38t117 11q35 37 66.5 69t72.5 65q70 53 125 111.5t92 131.5q8 16 10 10t2 -16q2 -45 -25.5 -95t-70.5 -99.5t-94 -97.5t-94 -87 q10 -2 22.5 -4t22.5 -4q53 -16 108.5 -39.5t89.5 -46.5q14 -8 9 -14q-8 -8 -25 -4q-86 12 -154.5 29.5t-156.5 29.5q-53 8 -101.5 8t-86.5 -14t-63.5 -48t-33.5 -93q23 53 74 83.5t92 34.5q63 4 124.5 -9t108.5 -46q2 -2 9.5 -9t1.5 -11z" />
<glyph unicode="{" horiz-adv-x="552" d="M723 1487q-47 -51 -100.5 -105.5t-81.5 -101.5q-23 -25 -46.5 -61.5t-48 -78.5t-50 -86t-50.5 -85q-4 -4 -11 -17.5t-11 -9.5q-8 0 -4 14.5t4 22.5q4 18 11 48t15 62.5t18.5 62.5t20.5 52q10 14 38 60.5t81 105.5q57 63 114.5 89t90.5 42q25 12 22.5 4t-12.5 -18z M776 1565q4 -2 -4 -6.5t-12 -4.5q-70 -35 -157 -81t-163 -136q-59 -72 -103 -163t-77 -179q-23 -57 -39 -110.5t-39.5 -105.5t-57.5 -102t-91 -102q-6 -10 -12.5 -12t4.5 15q53 76 78.5 132t41 106t27.5 102.5t39 119.5q33 86 74 176.5t114 178.5q41 49 89.5 79.5t96.5 50 t94 30t85 16.5q4 0 5 -1t3 -1q2 -2 4 -2zM653 1337q-16 -27 -35.5 -52t-46.5 -89q-25 -57 -49 -129t-43 -119q-14 -37 -35.5 -80t-48 -84t-58.5 -77.5t-67 -63.5q45 -6 78 -34.5t52.5 -68.5t27.5 -86t6 -89q-6 -102 -22.5 -178t-26.5 -117q-10 -35 -19.5 -66t-15.5 -53 q-4 -14 -6 -24.5t4 -16.5t11.5 -4t5.5 -4q0 -10 -19 -15q-16 -4 -27.5 5.5t-19.5 28t-9 43t5 52.5q12 61 28.5 124t34.5 132q12 51 15.5 114t-11 115t-48 84.5t-93.5 28.5q45 -23 75 -63.5t38 -75.5q12 -59 7 -114.5t-19.5 -105.5t-34 -96t-37.5 -89q0 -4 -8.5 -15.5 t-16.5 -9.5q-4 0 -4 13.5v19.5q2 23 7 52.5t11.5 60t11.5 59.5t9 51q0 6 5 27.5t7 51.5t-2 62.5t-22 63.5q-16 23 -45 35t-53 20q59 43 98 101.5t69.5 126t57 141.5t62.5 146.5t85 143t123 130.5q14 12 14 4.5t-6 -17.5zM252 782q2 0 1 -10t-4 -21.5t-7 -22.5t-6 -15 q-23 -41 -43.5 -69t-42 -49.5t-43 -37.5t-48.5 -35q-4 -4 -17 -12t-13 -4q4 10 18 30.5t32.5 44t35 43t22.5 29.5q14 16 31.5 41t34 45.5t30 33.5t19.5 9zM477 -113q-10 -35 -29.5 -70.5t-52.5 -59t-81 -26.5t-115 27q-31 14 -51.5 40t-34 56.5t-20.5 60.5t-7 54q-2 41 3 82 t15 72q20 98 42 175t16 128q-4 35 -32 58.5t-75 25.5q25 10 52.5 15t51 -1t42 -26.5t24.5 -59.5t1 -81t-17 -86t-26.5 -89t-22.5 -92q-6 -25 -11.5 -62.5t0 -78.5t25 -80t62.5 -66q45 -29 82.5 -26.5t67.5 20t51.5 45t33.5 52.5q10 12 9 3.5t-3 -10.5zM457 -63 q-10 -35 -23.5 -61t-48.5 -48q-23 -14 -51.5 -10t-53 14t-38 24.5t-0.5 22.5q6 4 22.5 -6t38.5 -14q43 -8 74 14q23 12 40 32.5t32 45.5q6 8 8 6t3 -6t0 -9t-3 -5z" />
<glyph unicode="|" horiz-adv-x="468" d="M303 903q-8 -154 -25.5 -321.5t-39.5 -321.5q0 -4 -1 -12t-2.5 -17.5t-4.5 -15.5t-5 -4q-4 0 -7 23.5t-5 29.5q-2 35 -4 84t-2 101.5t1 103.5t5 90q0 16 2 69.5t3 126t1 156.5t-2 163t-7 142.5t-13 96.5q-2 10 -3 19t3 9q2 0 6 -8t8 -12q27 -39 45 -101.5t29.5 -133 t15.5 -141.5t2 -126zM373 301q-2 -137 -13.5 -263t-17.5 -235q-2 -16 -4 -30.5t-6 -12.5q-4 -2 -5 14.5t-3 28.5q-31 178 -27 385t16 420q8 135 16.5 277.5t-5.5 296.5v12t4 4q2 0 6 -16q20 -45 31.5 -114t15.5 -149.5t4 -168.5t-3 -171t-6 -156t-3 -122zM324 -477 q2 -6 5 -13.5t-1 -7.5q-6 -6 -11 9q-72 72 -116.5 161.5t-71.5 192t-36 213t-7 225.5q2 160 14.5 314.5t23.5 302t15 284.5t-8 260v17q4 4 8 -6.5t6 -10.5q39 -125 46.5 -269t-2 -298t-23.5 -314.5t-16 -316.5q-2 -201 38 -396t136 -347zM311 -287q16 -49 33.5 -91t36.5 -83 q4 -4 7 -13t-3 -9t-14 8l-6 6l-27.5 27.5t-26 31t-24 42t-21.5 61.5q-8 31 -17 77t-14.5 90t-6.5 74.5t8 30.5q4 2 9 -10t10 -28.5t8 -33t3 -22.5q16 -45 24.5 -84t20.5 -74z" />
<glyph unicode="}" horiz-adv-x="690" d="M418 1409q-6 -4 -22.5 5t-39.5 13t-38 0t-35 -14q-20 -14 -39 -32.5t-33 -45.5q-4 -6 -7 -5t-3 5v9.5t2 5.5q10 35 23.5 60.5t47.5 47.5q20 14 50 10t54.5 -14t38 -24.5t1.5 -20.5zM604 768q-25 -10 -52.5 -14t-51 2t-42 25.5t-24.5 60.5q-6 39 -1 81t17.5 85t25.5 89 t24 93q6 25 11 64.5t1 81.5t-23.5 82t-64.5 67t-83 25.5t-67.5 -18.5t-51 -45t-34.5 -52q-4 -8 -5 -8.5t-1 2v6.5v6q10 33 30.5 69.5t53.5 60t80 28t115 -28.5q31 -14 51 -41t33.5 -56.5t19.5 -60.5t6 -53q2 -49 -2 -90t-14 -74q-20 -98 -43 -175t-16 -128q4 -33 32.5 -56.5 t75.5 -27.5zM631 774q-4 -10 -18.5 -31.5t-33 -44t-35 -43t-22.5 -28.5q-14 -16 -31.5 -41t-34 -46.5t-29.5 -34.5t-19 -9q-4 4 4 32.5t12 38.5q23 41 43 69t41.5 48.5t43 37.5t48.5 36q4 2 19.5 11t11.5 5zM14 -63q-10 -12 -11 -5t3 17q8 14 17.5 25.5t18.5 24.5t20.5 33.5 t23.5 51.5q25 57 51.5 129t42.5 119q12 35 34 78t48.5 84t59 78.5t67.5 64.5q-47 6 -78.5 33.5t-51 67.5t-28 87t-6.5 90q6 100 22.5 176t26.5 117q10 37 19.5 71t15.5 56q4 16 6 26.5t-4 16.5q-4 4 -10 3t-6 5t18 15q31 8 47.5 -35t4.5 -104q-12 -59 -30 -123t-34 -131 q-14 -53 -16 -115t11 -114t48 -84.5t94 -28.5q-45 18 -74.5 60t-37.5 79q-12 59 -6 113.5t20 105.5t33.5 97t36.5 87q2 4 9 16.5t15 10.5q4 0 4 -14.5v-20.5q-2 -23 -7 -51.5t-11 -59t-11.5 -60.5t-9.5 -50q0 -6 -5 -28.5t-7 -52.5t2 -62.5t23 -61.5q16 -25 44.5 -36 t53.5 -19q-59 -43 -98 -101.5t-70 -125t-58.5 -140t-62.5 -146.5t-84 -141.5t-123 -127.5zM635 700q-53 -78 -80 -133t-42 -104t-27.5 -101.5t-36.5 -119.5q-33 -86 -75 -175.5t-114 -170.5q-43 -47 -90 -79t-94 -51.5t-91 -29.5t-81 -17q-10 0 -15 2q-2 2 6.5 5.5t10.5 5.5 q72 35 154.5 81t158.5 136q59 68 103.5 158t76.5 176q20 57 38 111.5t41.5 105.5t58 101t90.5 104q8 6 13 8.5t-5 -13.5zM336 301q-4 -18 -10.5 -49t-15.5 -62.5t-19 -62.5t-21 -51q-10 -16 -36.5 -57.5t-81.5 -100.5q-57 -63 -111.5 -89t-85.5 -42q-27 -14 -24 -5t12 17 q43 51 96 105.5t80 95.5q45 51 95 140t99 171q4 4 11.5 16.5t11.5 8.5q8 0 6 -13.5t-6 -21.5z" />
<glyph unicode="~" horiz-adv-x="1177" d="M119 465q0 -4 -6.5 -10t-12.5 -6q-4 10 0 16q0 29 13.5 56.5t29.5 56.5q14 23 32 43t46 36q2 2 6 5q6 2 9 0q2 -6 -4.5 -19.5t-16.5 -29t-19.5 -30t-11.5 -20.5zM438 528q-53 20 -73.5 22.5t-38.5 2.5q-29 -2 -73 -29.5t-93 -68.5q-4 0 -6 -3t-4 -3q-4 4 -2 6t2 6 q72 98 138 137t154 -6q78 -29 161 -70t188 -65q57 -14 110 -1t99.5 42.5t80 70.5t49.5 84q2 2 5 6q4 8 10 9v-4q0 -2 -2 -4.5t-4 -6.5q-8 -47 -27.5 -94t-67.5 -94q-47 -47 -116.5 -64.5t-130.5 -7.5t-112.5 27.5t-94.5 37t-81 39t-71 31.5zM154 651q-4 -10 -11.5 -17 t-11.5 -3q-2 0 2 13t6 13q16 47 64.5 92.5t115.5 61.5q35 8 67 7t60.5 -7t54 -14.5t46.5 -16.5q53 -20 113.5 -55t113.5 -63q57 -29 87 -40.5t59 -17.5q8 0 8 -4q6 -8 -4 -8q-41 -25 -104.5 -7.5t-129.5 50.5q-55 27 -114.5 54.5t-126.5 47.5q-37 10 -79 10.5t-83 -11 t-75.5 -33t-57.5 -52.5zM522 653q88 -16 155.5 -47t143.5 -53q57 -16 123 8.5t119 65.5q4 0 8 4t6 0q8 0 -2 -17q-6 -12 -23.5 -34.5t-44 -45t-62.5 -39t-79 -16.5q-41 0 -77.5 8.5t-64.5 18.5t-47.5 19.5t-25.5 13.5q-39 16 -72.5 42.5t-64.5 53.5q-4 0 -16.5 8t-12.5 10 q4 6 18.5 3t18.5 -3z" />
<glyph unicode="&#xa1;" horiz-adv-x="581" d="M162 170q29 78 66.5 159t78.5 152q2 2 9.5 10.5t11.5 8.5q6 -2 5 -13.5t-1 -13.5q-6 -39 -19.5 -97.5t-29.5 -94.5q-4 -8 -12.5 -36t-17.5 -65t-18.5 -79t-14.5 -81.5t-6 -73.5t7 -52q0 -8 -2 -11l-2 -2q-4 0 -14 10q-23 25 -36 61t-17.5 76t-1 76.5t13.5 65.5zM172 496 q23 70 57.5 138t63.5 122q4 10 8 13t6 3q6 -2 6 -7v-15q-12 -111 -48 -216.5t-79 -216.5q-27 -66 -48 -135t-23 -153q0 -10 -6 -11q-4 0 -9 11q-23 41 -19.5 105.5t20 132t38 130t33.5 99.5zM362 885q-6 10 -1.5 12t8.5 -2q53 -61 79.5 -121.5t32.5 -121t-4 -119t-28 -113.5 q-25 -78 -57 -154t-58.5 -147.5t-44 -141t-13.5 -135.5q0 -4 -2 -4q-4 0 -8 10q-29 70 -20.5 145t33 151.5t58.5 154.5t58 154q31 98 28.5 210.5t-61.5 221.5zM338 793q-4 29 -11.5 52t-19.5 50q-4 10 0 10t12 -4q27 -23 39.5 -46.5t22.5 -68.5q2 -18 3 -43.5t-2 -48t-8 -39 t-12 -14.5q-6 4 -9 27.5t-3 31.5q-4 25 -6 47.5t-6 45.5zM442 1124q-10 -2 -30.5 -3t-24.5 16q0 6 16.5 17t35 29.5t32.5 45t8 65.5q-4 23 -11 43.5t-17 30.5q-4 6 -10.5 11t-4.5 7q4 0 8.5 -2t8.5 -2q43 -14 66.5 -41.5t27.5 -56.5q10 -57 -13.5 -103.5t-91.5 -56.5z M356 1186q-23 -14 -24 6q-4 14 6 30.5t18.5 34t9.5 39t-20 50.5q-6 8 -17.5 18t-6.5 10q4 4 16 1t16 -3q35 -10 57.5 -35.5t26.5 -48.5q6 -35 -22.5 -63.5t-59.5 -38.5zM285 1276q-2 8 2 20.5t16 14.5q10 4 18.5 -8.5t10.5 -20.5q0 -8 -4 -20.5t-15 -14.5q-12 -2 -19 8.5 t-9 20.5z" />
<glyph unicode="&#xa3;" horiz-adv-x="1030" d="M168 23q-41 0 -62.5 -16.5t-46.5 -47.5v4q-8 2 -8 19l-12 -17l-2 6v6q8 27 33.5 75t59.5 106.5t72 121t68.5 119t51 101.5t20.5 67q0 8 -8 9.5t-15 1.5h-6q-12 -18 -21 -47t-20.5 -64t-26 -72t-34.5 -67l-152 -230q-6 -10 -11 -23.5t-11 -27.5q-4 -6 -8 -9t-4 -9 q-4 8 -5 22q0 43 19 86q4 10 20.5 46t38 85t46 104.5t44 102.5t31.5 79t10 36q-2 0 -10 2t-12 0q-27 -76 -60.5 -148.5t-76.5 -142.5l-11 -6v16q0 37 13.5 75t30 77t29.5 77t13 74l-36 13l-9 10q0 8 14.5 14t32 9.5t35 4.5t23.5 1q61 0 120.5 -19.5t120.5 -19.5q23 0 42.5 6 t41.5 6q0 -18 -14 -29.5t-32.5 -19.5t-38 -12.5t-29.5 -10.5q-23 -78 -60 -146.5t-77 -133.5v-4q57 -12 102 -26.5t86 -33t84 -42t100 -52.5q0 -6 6 -6q0 -10 -12 -12t-22 -2q-53 0 -107.5 17t-104 38.5t-92.5 39t-75 17.5q-14 0 -23 -18q70 -20 123 -47t109 -74v-6 q0 -6 -11 -6q-49 0 -97 22.5t-95 22.5q-14 0 -32.5 1t-36 -2t-32 -10.5t-20.5 -21.5q12 0 24.5 2t26.5 2q47 0 90 -13.5t85 -29.5t85 -29.5t90 -13.5q70 0 107 16.5t55.5 36t24.5 38t16 24.5q0 -2 1 -4t1 -5q0 -41 -21.5 -71.5t-54 -53t-73.5 -33.5t-78 -11q-45 0 -87 13 t-83 29.5t-83 30t-87 13.5zM561 45l10 10q29 12 49.5 19.5t37 18.5t29.5 28.5t26 50.5l2 -6v-14q0 -115 -121 -115h-16q-17 0 -17 8zM145 735q4 0 10.5 -2t6.5 -6t-17.5 -19.5t-39 -37t-41 -43t-25.5 -35.5l-8 -2v8q0 23 9 47.5t25.5 44t36.5 32.5t43 13zM172 856 q4 63 9 129t22 129q18 72 56 138.5t92.5 116.5t122 81t147.5 31q51 0 102 -13.5t86 -56.5q0 -2 -2 -2h-4q-35 0 -72 16.5t-78 16.5q-104 0 -182 -55.5t-128 -139.5t-74.5 -184t-24.5 -189l6 -10h24q10 35 16.5 78t15.5 86t25.5 82t47.5 64l6 -9q-10 -16 -18.5 -53t-12.5 -78 t-6 -80t-2 -59q0 -10 1 -20.5t1 -18.5l33 -12l6 8q2 66 16.5 148.5t47 155.5t89 123t142.5 50q31 0 74 -19.5t84 -48t72.5 -63.5t41.5 -65h-8q-29 25 -57.5 50t-61 46.5t-67.5 36t-72 14.5q-20 0 -38.5 -9t-35.5 -20q-53 -31 -81.5 -81t-45 -107t-22.5 -117.5t-12 -111.5v-3 q10 -8 23 -9t24 -1q29 0 56.5 1t49.5 14q2 0 4 -1t-2 -4q-18 -37 -54 -54t-75 -17q-59 0 -117.5 19.5t-123.5 19.5q-55 0 -92 -22.5t-62 -50.5t-39 -52.5t-20 -26.5v10q23 59 54.5 111.5t92.5 87.5zM242 729l2 6q10 8 22.5 9t24.5 1q37 0 72.5 -5t70.5 -5q43 0 83 5t75 32 q0 -25 -14.5 -46t-35 -38.5t-45 -27t-44.5 -9.5q-55 0 -103.5 21.5t-97.5 42.5zM659 1366q-23 0 -44 -4t-44 -4q-8 0 -8 6q0 8 15.5 16.5t36 12.5t40 7t27.5 3q82 0 146.5 -43t117.5 -103q14 -16 38 -45.5t24 -52.5q-29 0 -62 33t-75 72t-94 70.5t-118 31.5z" />
<glyph unicode="&#xa4;" horiz-adv-x="1574" d="M453 227l-324 -168q-8 -4 -22.5 -14t-30 -20.5t-29.5 -17.5t-22 -7h-2q6 29 44.5 64.5t95 73.5t125 76t132 73t116 63.5t78.5 48.5q16 10 22.5 26.5t22.5 27.5q12 8 25.5 13t29 9t31 11.5t31.5 21.5l-20 37l4 6h6q55 -25 100 -62.5t89 -71.5t95.5 -58.5t118.5 -24.5 q86 0 138.5 58.5t52.5 139.5l-4 -4q-4 -16 -9.5 -34.5t-15.5 -36t-24.5 -28.5t-32.5 -11l-8 12q2 23 22.5 38t24.5 38q-39 -14 -75 -27.5t-77 -13.5q-35 0 -74.5 23.5t-64.5 43.5q-10 0 -17.5 -1t-11.5 -9q23 -12 41.5 -27.5t40.5 -31.5q8 -2 23.5 -9.5t31 -15.5t30 -16 t22.5 -14q-6 -16 -26.5 -18.5t-33.5 -2.5q-35 0 -76.5 16.5t-83.5 41t-79 53t-62 53.5q10 4 25.5 18.5t32 30.5t31 32.5t24.5 26.5v-45l6 7q10 29 26.5 57.5t55.5 28.5q20 0 48 -8.5t52.5 -24t42 -36t17.5 -44.5l-13 -8q-29 10 -54 23.5t-54 13.5t-56.5 -9.5t-50.5 -31.5 q-4 -12 -13 -18.5t-22.5 -7.5t-27.5 -2t-27 -3l78 -12l8 -11l4 -18q6 31 23.5 57.5t52.5 26.5q29 0 47.5 -12.5t38 -27.5t45 -27.5t68.5 -12.5q35 0 71.5 9t71.5 18q2 -12 2 -25.5v-28.5q0 -117 -67.5 -167t-178.5 -50q-16 0 -32.5 4.5t-32.5 4.5h-2l14 -37l-6 -9 q-25 0 -61.5 29t-82.5 63.5t-99.5 63.5t-112.5 29q-63 0 -85 -24.5t-30 -84.5l-82 -49q23 -6 42.5 -9t39.5 -9l2 -4l6 -31h2q14 33 36 54.5t56 21.5q45 0 76 -18.5t63.5 -42t77 -42t113.5 -18.5q20 0 43 3t43 3l-8 -8q0 -113 -52 -187.5t-175 -74.5q-78 0 -140.5 29.5 t-114 77.5t-93 106.5t-80.5 115.5zM453 248q63 -29 109 -77t92 -94t100.5 -80t132.5 -34q39 0 78 14.5t68.5 41t48 61.5t18.5 78q-6 -2 -14.5 -21.5t-20.5 -43t-31.5 -42t-48.5 -18.5l-12 10q2 8 14 19.5t25.5 23.5t25 27.5t11.5 31.5q-12 0 -24.5 -9t-29 -18t-38 -17.5 t-48.5 -8.5q-70 0 -121 41t-96 88q-6 0 -16 1t-17 -3q31 -18 55.5 -42.5t48 -49.5t49.5 -48.5t60 -41.5l2 -8l-10 -9q-84 0 -130 27t-79.5 63.5t-66.5 75.5t-88 64v6q-12 0 -24.5 -2t-22.5 -6zM31 76q18 63 70.5 119.5t120 102.5t138 84t125.5 67h2h7l8 -9h4 q-14 39 -17.5 75t-3.5 77q0 33 7.5 63.5t7.5 63.5v10q-10 10 -21.5 22.5t-17.5 24.5q0 -57 1 -112.5t1 -112.5q0 -20 4 -38.5t4 -37.5q-88 -41 -178 -95t-166 -116h-8q0 14 19.5 39t45 48.5t51 44t39.5 30.5q23 16 51.5 24.5t53.5 24.5q-16 0 -28.5 -5t-26.5 -5 q-57 0 -93 24.5t-56.5 64.5t-29 87t-8.5 94q0 6 2 19.5t6.5 28t10.5 25.5t12 11l12 -10l31 -150q4 -18 21.5 -43.5t41 -49t48 -41t43.5 -19.5h14h51q-10 20 -19.5 33.5t-16.5 27t-11 29.5t-4 41q0 47 12 96t12 98l9 17l22 -21q0 29 -6 57.5t-10 57.5h-2q-47 29 -99 29 q-29 0 -53 -7.5t-51 -17.5h-2q10 4 10 17q0 10 -8 31.5t-18.5 44t-20.5 44t-16 33.5v4q29 -29 53.5 -61.5t44.5 -67.5l8 -6h2q23 10 43.5 14.5t40.5 4.5q23 0 41.5 -1.5t38.5 -1.5q4 27 22.5 70t45 85t57.5 74t59 38l9 -6q-10 -49 -33 -88t-44.5 -79t-37.5 -86t-16 -112 q0 -53 19 -101t60 -83q-6 -25 -9 -50.5t-9 -50.5l170 123h6q0 18 -4 35.5t-4 38.5q0 27 13.5 52.5t29.5 50t33.5 50t23.5 52.5l10 4q6 0 10.5 -8.5t6.5 -18.5t3 -20t1 -17q0 -31 -14.5 -68.5t-33 -75.5t-32.5 -73t-14 -57v-6q-47 -47 -108.5 -87t-119.5 -77l-2 -35 q14 6 49 25.5t74 39t72 35t45 15.5q-2 -27 -50 -67t-120 -89t-158 -101t-165.5 -101.5t-143 -92.5t-88.5 -69h-4zM963 213l8 12h30q29 0 75 -6t75 -12l8 -2q-6 -8 -18.5 -13.5t-27.5 -8.5t-29.5 -5t-22.5 -2t-24.5 3t-33 7t-28.5 11.5t-12 15.5zM600 266q0 47 29.5 90 t81.5 43q20 0 53 -12t63.5 -31.5t53 -43t22.5 -46.5l-8 -10q-16 0 -33.5 8t-35 18.5t-35 18.5t-33.5 8q-18 0 -43 -2t-46.5 -8t-40 -18.5t-24.5 -32.5l-4 2v16zM25 772q0 59 21.5 132t59.5 120l9 -2q0 -63 -7.5 -127t-7.5 -127q0 -51 8.5 -100.5t28 -92.5t52 -77.5 t83.5 -57.5v-6l-6 -4q-66 0 -111.5 33t-74.5 83t-42 110.5t-13 115.5zM236 889l14 -2l10 10q25 0 43.5 -18.5t32.5 -45t21.5 -54t7.5 -46.5q0 -33 -4.5 -65.5t-4.5 -63.5t10.5 -41t28.5 -31q-35 0 -63.5 16.5t-50 43t-33.5 60.5t-12 67v170zM1231 555l20 14q41 0 80 8.5 t80 8.5q-49 -49 -117 -49q-16 0 -35.5 2t-27.5 16zM1032 729q-23 0 -38 -4t-33 -12l-7 -8l-8 -5l-4 5q0 39 22.5 51t51.5 26q12 6 24.5 38t22.5 71t17 74.5t10 50.5l4 8q10 -2 11 -24.5t1 -30.5q0 -47 -8 -89t-19 -89l11 -5q66 -14 118 -37.5t95 -82.5q6 -10 18 -32t12 -34 q0 -8 -8 -8q-29 0 -58.5 21.5t-65.5 47t-78 47t-91 21.5zM780 643q0 57 18.5 102.5t42 85t42 79.5t18.5 91q0 49 -15.5 79t-41 46.5t-61 22.5t-78.5 6h-23l18 14q0 41 -5 79t-5 79l10 -8q10 -35 18.5 -68.5t24.5 -68.5h78q25 0 49.5 -13.5t46 -34t35 -46t13.5 -48.5v-84 q0 -14 -1 -29.5t-3 -31.5q-49 -61 -90.5 -132t-82.5 -136zM516 885q0 14 6 46t17.5 62.5t27 54t33.5 23.5l8 -14q4 -33 -7 -69t-11 -70q0 -29 10 -59t27.5 -54.5t42 -42t53.5 -21.5q-10 -14 -27.5 -17t-33.5 -3q-68 0 -107 49t-39 115zM915 735q4 41 26 80t44.5 79t39.5 82 t15 87q-14 20 -19 33.5t-5 36.5q0 49 27.5 91t70.5 71.5t92 46t92 16.5l9 -8l-2 -7q-35 -31 -79 -58.5t-83 -59t-66.5 -71.5t-27.5 -93q10 -16 11 -36.5t1 -39.5q0 -84 -44 -142.5t-97 -113.5zM629 903q0 57 22.5 98t36.5 93h10l9 8h4q27 -14 38 -43t11 -58t-11.5 -53 t-23.5 -47.5t-23.5 -45t-11.5 -44.5q0 -10 6 -20.5t11 -18.5h-7q-41 18 -56 54t-15 77zM1489 1208q0 29 -12.5 54.5t-12.5 54.5q0 16 2 30.5t15 26.5q0 -41 11 -71.5t24.5 -58t24.5 -54.5t11 -57q0 -43 -25.5 -87.5t-63.5 -81t-84 -64.5t-85 -36l-188 -45v8q59 53 126.5 82 t124 62t94.5 85t38 152zM1190 985h29q-16 10 -30.5 24.5t-14.5 34.5q0 23 12 39.5t30.5 28.5t38 21.5t35.5 21.5q25 18 36 45t17.5 54.5t13.5 55t23 50.5q0 -16 -3 -34.5t-3 -35.5l8 4l7 -10q0 -31 -12.5 -58.5t-18.5 -56.5q-12 -47 -29.5 -64.5t-36 -25.5t-36 -15 t-29.5 -34q51 14 93 45t83 47h2l6 -8q0 -43 -31.5 -78t-75.5 -63.5t-91.5 -51t-79.5 -36.5h-5v4q10 27 27 52.5t35 43.5zM287 954h24q16 0 28.5 -14t22.5 -22q-8 -8 -22 -9q-27 0 -50.5 3t-45.5 3q-16 0 -31.5 -10t-32.5 -10q0 20 23 25q41 34 84 34zM100 1128v9 q23 -4 39.5 -28t27.5 -52.5t16 -59t5 -49.5q0 -4 -3 -16t-9 -12q-4 0 -7 7t-3 11q-23 43 -33 93t-33 97zM1075 1098q0 25 16.5 46t41 38.5t52 28t50.5 10.5q14 0 14 -13q0 -18 -15 -31.5t-33.5 -31t-34 -41t-15.5 -60.5q0 -16 4 -27t19 -22v-2q-39 0 -69 33t-30 72z M637 1122q2 6 13.5 10.5t25.5 7.5t27.5 5t19.5 2q55 0 86 -39l2 -10l-12 -6q-35 0 -71 15t-75 15h-16zM637 1182q0 41 5 84t5 86v18q10 -6 17.5 -20.5t11.5 -30.5t6 -32.5t2 -29.5q0 -8 -3 -25.5t-7 -35.5t-11.5 -31.5t-15.5 -13.5t-9 12.5t-1 18.5zM1409 1333q0 23 7 47.5 t26 38.5q8 -2 8 -16q0 -12 -2 -23.5t-2 -23.5q0 -29 5 -60.5t5 -60.5q0 -6 -2 -22.5t-12 -16.5t-16.5 18.5t-9.5 42t-5 46t-2 30.5zM1294 1257q0 12 8.5 33t18.5 44.5t21.5 44t17.5 32.5l10 2q0 -47 -15.5 -91t-49.5 -77h-2z" />
<glyph unicode="&#xa5;" horiz-adv-x="991" d="M395 86l8 6q6 0 13.5 -9t14.5 -20.5t13.5 -22.5t12.5 -17q16 -16 34.5 -25.5t30.5 -28.5h-6q-47 0 -84 35t-37 82zM274 162q0 20 7.5 37.5t7.5 36.5q-6 4 -28.5 11t-22.5 13q0 10 15 15.5t33.5 8.5t36 4t23.5 1q59 0 117.5 -18.5t120.5 -18.5q31 0 69 14l6 -6 q-29 -41 -53 -47t-35 -18q-12 -16 -20 -40t-17.5 -48.5t-20.5 -45t-28 -32.5q-8 0 -11 7t-4 16t-1 18.5v13.5q0 55 23 106v9q-10 0 -17.5 2t-17.5 2q-6 0 -11.5 -6.5t-10.5 -14.5t-11 -14t-14 -6q-2 0 -4.5 2t-4.5 2v41q-10 4 -22 6t-23 2q-6 0 -9 -9t-6 -21.5t-4 -23.5 t-1 -16q0 -43 15.5 -70.5t37 -46t43 -30.5t31.5 -27h-2h-4q-31 14 -64 30.5t-59.5 38t-43 51.5t-16.5 71zM289 358l8 -8q-2 -4 -4 -9t-6 -9q-16 -14 -32.5 -24.5t-29.5 -26.5q-16 -16 -26.5 -36t-26.5 -32v12q0 20 9 44t25.5 43.5t38 32.5t44.5 13zM377 494q20 0 41.5 -4.5 t44.5 -4.5l-53 23l-11 14v2q0 6 9.5 9.5t21.5 5.5t23.5 2h15.5q29 0 60.5 -5.5t60.5 -5.5q53 0 86 7.5t82 33.5q0 -20 -11.5 -40.5t-30 -37t-40 -28.5t-39.5 -16q4 0 10 -1.5t12 -1.5q23 0 38.5 7.5t35.5 9.5q-10 -39 -52 -57.5t-77 -18.5q-59 0 -113.5 19.5t-113.5 19.5 q-78 0 -126 -46t-83 -108h-2v7q0 4 7 23.5t9 23.5q25 63 73 115.5t122 52.5zM387 342l-10 14q6 12 22.5 14.5t26.5 2.5q35 0 67.5 -4t67.5 -4q41 0 80 4t74 32l4 -4v-2q0 -20 -14.5 -41.5t-35 -39t-44 -29t-41.5 -11.5q-53 0 -102.5 22.5t-94.5 45.5zM301 528q8 0 10 -2 t2 -12q-18 -23 -42.5 -42t-45.5 -42q-14 -14 -22 -27.5t-23 -23.5v10q0 20 10.5 45t26.5 46.5t37.5 34.5t46.5 13zM303 637q-57 41 -94 107.5t-59.5 143.5t-37 152.5t-26.5 135.5q-10 41 -28.5 72.5t-34.5 68.5h6q8 0 17 -6t15 -13q47 -43 73 -93t41 -105.5t25.5 -112.5 t28 -113.5t47 -109.5t82.5 -98q6 -6 15 -7q20 0 37 7q-10 12 -23.5 24t-13.5 31l6 2h2q23 -8 41 -21.5t39 -25.5h2v37q-37 45 -59.5 96t-39 105.5t-28.5 108.5t-27 110q-10 37 -29.5 68.5t-35.5 66.5h8q55 -20 84 -68.5t45 -101.5l98 -312q20 86 72.5 161t110 148.5 t108.5 150.5t72 165l6 8q6 -4 7 -12t1 -18q0 -78 -25.5 -143.5t-62.5 -123t-82 -112t-82 -109.5t-62.5 -116.5t-25.5 -133.5q0 -6 9.5 -9t13.5 -3q8 0 12 9t7 21.5t8 21.5t16 9l2 -4v-65q20 -4 32 -4q27 76 78 148.5t103.5 145t96.5 143.5t56 140l4 2q12 -4 11.5 -23.5 t-0.5 -29.5q0 -49 -34 -124t-82 -153.5t-100.5 -147.5t-86.5 -105l-3 -9h23q23 0 48.5 3.5t41.5 17.5q-2 -18 -17.5 -32.5t-36 -24t-43 -14.5t-38.5 -5q-61 0 -119.5 16.5t-118.5 16.5q-84 0 -131 -42t-88 -108l-6 -2v2q0 10 9.5 33t21.5 45.5t24.5 43t20.5 28.5 q12 12 26.5 22.5t26.5 22.5zM469 485v-6q2 2 2 4zM885 1364l2 2q10 -2 17 -17.5t10.5 -35t4.5 -38t1 -26.5q0 -57 -16.5 -105t-53.5 -95q-10 -12 -39 -49t-62.5 -75t-64.5 -69t-45 -31q0 25 18.5 63t47 85t60.5 99t59.5 103.5t45 99.5t15.5 89zM92 1313v4q23 0 45.5 -10.5 t42.5 -24.5q43 -31 71 -85t43 -116.5t20 -127t5 -113.5l-2 -6h-4q-27 18 -49 80.5t-46.5 137t-54.5 147.5t-71 114z" />
<glyph unicode="&#xa7;" horiz-adv-x="886" d="M61 -180q16 0 47 -12.5t72 -28t92.5 -28.5t106.5 -13q27 0 53.5 19.5t46 49t31.5 62.5t12 57v97q0 25 -5 51t-11 55h-14q0 25 27.5 52.5t61 60t61.5 72.5t28 89q0 37 -8.5 78t-22.5 78l6 8l6 -4q31 -35 47.5 -79t16.5 -91t-14.5 -79.5t-38 -59.5t-52 -48.5t-59.5 -47.5 h-4q4 2 11 5t11 -1q23 -96 23 -180q0 -53 -13.5 -105.5t-42 -93.5t-72.5 -67.5t-106 -26.5q-43 0 -78.5 11t-68.5 27.5t-64.5 38t-68.5 39.5q-4 2 -10.5 5.5t-6.5 9.5zM143 -172l2 6h21q35 0 68.5 -6t68.5 -6h39q23 0 36 14t20.5 34.5t9.5 43.5t2 37q0 113 -27 217t-72 213 q-12 29 -25.5 56.5t-21.5 56.5q-12 12 -12 36h6q45 -35 88 -105.5t76 -151t53.5 -161.5t20.5 -135q0 -43 -5.5 -82.5t-22.5 -70.5t-50 -48.5t-86 -17.5q-10 0 -39 8.5t-59.5 19.5t-57.5 22.5t-33 19.5zM358 -117l-16 27q-10 102 -38 185t-63.5 157t-73.5 142.5t-71 141 t-53 154.5t-20 184q0 14 5 45t19 35q0 -104 25.5 -187t62.5 -157.5t82 -146.5t82 -152t62.5 -175t25.5 -216q0 -12 -8 -35.5t-25 -23.5q0 8 2 12t2 10zM465 190l20 23v2q0 2 -3 12.5t-8 23.5t-9 24.5t-4 15.5q-27 76 -79 161t-103.5 170t-89 161.5t-37.5 136.5q0 37 18 63.5 t43 48.5v4v2l-6 9h-4q-39 -35 -57.5 -60.5t-18.5 -79.5q0 -16 3 -37.5t7 -43t7 -39t1 -23.5l-6 -12q-16 12 -27.5 32.5t-18.5 44t-11 48t-4 43.5q0 63 29.5 101t76.5 73q4 0 4 6q0 33 -10 66.5t-10 68.5q0 74 25.5 136.5t69.5 107.5t106.5 70.5t136.5 25.5q106 0 192 -56.5 t133 -152.5q10 -23 21.5 -51.5t11.5 -57.5l-2 -6q-16 10 -24.5 38t-18.5 44q-45 82 -130 133.5t-179 51.5q-59 0 -109.5 -21.5t-87.5 -59.5t-57 -90.5t-20 -111.5q0 -66 23.5 -131.5t57.5 -120.5l275 -444q45 -72 45 -152q0 -41 -14.5 -70.5t-37 -53t-51 -42t-59.5 -37.5 h-10v6zM539 279l2 -5q23 20 37 49t14 58q0 27 -13.5 52.5t-25.5 45.5l-324 516h-2q-10 -8 -20 -23.5t-10 -31.5q0 -35 15 -63.5t32 -55.5q35 -61 76.5 -128.5t82.5 -137.5t77 -140t59 -136zM741 348q0 14 2 29.5t2 32.5q0 70 -27.5 143.5t-68.5 147t-88 145.5t-88 141.5 t-68.5 133t-27.5 120.5q0 45 15.5 73.5t41 45t60 23t73.5 6.5l8 -7v-2l-4 -2q-35 -18 -73.5 -33.5t-57.5 -56.5v-31q0 -47 24.5 -101t61.5 -116.5t80 -130t80 -140.5t61.5 -150.5t24.5 -157.5v-28.5t-2 -34t-8 -33t-17 -23.5zM272 1241q0 51 17.5 98t49.5 83t77 56.5 t98 20.5q33 0 80 -16.5t90 -44t73.5 -62.5t30.5 -71h-2q-53 45 -108 78.5t-127 33.5q-37 0 -74 -11t-65.5 -32.5t-47 -54.5t-18.5 -74q0 -57 26.5 -125.5t57.5 -132t56.5 -115t23.5 -75.5h-4q-4 6 -10.5 12t-10.5 12q-33 45 -69.5 93.5t-68.5 100.5t-53.5 108.5t-21.5 117.5 z" />
<glyph unicode="&#xa8;" horiz-adv-x="763" d="M168 1137q-10 0 -31.5 3t-21.5 19q0 6 18.5 15.5t41 27t40.5 45t18 70.5q0 53 -20 80q-4 6 -10 13t-4 9q4 0 9 -3t7 -5q41 -23 63.5 -58.5t22.5 -68.5q0 -66 -31.5 -106.5t-101.5 -40.5zM92 1219q-25 -10 -24 12q0 16 12 31.5t23.5 34t15.5 42t-13 58.5q-4 10 -14 22.5 t-6 14.5t17.5 -3.5t17.5 -7.5q35 -16 52 -49t17 -57q0 -39 -31.5 -64.5t-66.5 -33.5zM33 1329q0 10 7 23.5t19 13.5q10 0 16.5 -13.5t6.5 -23.5q0 -8 -6 -21.5t-17 -13.5q-12 0 -19 12.5t-7 22.5zM590 1137q-10 0 -31.5 3t-21.5 19q0 6 18 15.5t39.5 27t40 45t18.5 70.5 q0 51 -18 80q-4 6 -11.5 13t-2.5 9q2 0 8 -3t8 -5q41 -23 62.5 -58.5t21.5 -68.5q0 -66 -30.5 -106.5t-100.5 -40.5zM514 1219q-10 -4 -18.5 -3t-8.5 15q0 16 12.5 31.5t25 34t16.5 42t-13 58.5q-4 10 -14 22.5t-6 14.5t16.5 -3.5t16.5 -7.5q35 -16 53 -49t18 -57 q0 -39 -31.5 -64.5t-66.5 -33.5zM455 1329q0 10 6 23.5t18 13.5q10 0 16.5 -13.5t6.5 -23.5q0 -8 -6.5 -21.5t-16.5 -13.5q-12 0 -18 12.5t-6 22.5z" />
<glyph unicode="&#xa9;" horiz-adv-x="1431" d="M1016 1243q-70 25 -144.5 51.5t-148.5 26.5q-70 0 -118 -7t-90 -22.5t-85 -37t-102 -50.5h-4v8q78 78 172 116t204 38q41 0 85 -7t87 -21.5t81 -38t65 -54.5zM924 1018q-29 0 -54.5 10t-52.5 10q-66 0 -119 -36.5t-100 -77.5q-39 -33 -66.5 -76t-45 -91t-25.5 -98.5 t-8 -99.5q0 -6 -4 -6q-10 0 -15.5 15.5t-9.5 35t-5 37.5t-1 25q0 68 23.5 144.5t67.5 140t106.5 105.5t142.5 42q57 0 106.5 -25.5t59.5 -54.5zM1409 690q0 -158 -60.5 -286t-164 -220t-239.5 -142t-288 -50q-115 0 -228.5 34.5t-203.5 102.5t-147.5 166t-57.5 223 q2 0 12.5 -24.5t20.5 -56t21.5 -61.5t17.5 -40q41 -74 102.5 -128t134 -90t154.5 -53.5t162 -17.5q137 0 263 47t220.5 132t150.5 203t56 261q0 129 -37.5 243t-108.5 204t-170 154.5t-222 97.5l-9 12q133 -2 247 -66.5t197 -166t130 -227.5t47 -251zM969 1026q4 -6 1 -8 t-9 4q-16 16 -34 34.5t-41.5 33t-56 23.5t-77.5 9q-86 0 -157 -46t-121 -116.5t-78.5 -155.5t-28.5 -161q0 -49 13 -101.5t41 -95.5t71 -69.5t100 -26.5t93 17.5t59.5 48t38 70.5t26.5 85q6 -14 7 -29.5t1 -31.5q0 -45 -18.5 -85t-49 -69.5t-72.5 -47t-87 -17.5 q-72 0 -126 31.5t-91 83t-56.5 115t-19.5 126.5q0 88 31.5 181.5t89 169t138.5 123.5t177 48q41 0 78 -15t67.5 -36.5t54.5 -46.5t36 -45zM621 1251q-125 0 -228 -51h-8q20 23 56 39t75 27.5t79 17.5t71 6q115 0 213 -51t168.5 -134t110.5 -188.5t40 -216.5q0 -119 -46 -215 t-125 -164.5t-182.5 -106.5t-215.5 -38q-111 0 -201 34t-154.5 96.5t-100.5 152.5t-36 200q0 117 30 231t77 222q4 6 10 17.5t12 15.5v-15q-39 -102 -62.5 -205.5t-23.5 -211.5q0 -217 113 -343t336 -126q102 0 194 31.5t161 91t109 144.5t40 194t-39 208t-106.5 173.5 t-161.5 119.5t-205 45zM750 995q-27 -53 -56.5 -85.5t-55.5 -66.5t-43 -79t-17 -121q0 -27 2 -53.5t11 -47t27.5 -32.5t51.5 -10l12 -8q0 -16 -25.5 -21.5t-40.5 -5.5q-33 0 -54 16.5t-34.5 41t-19.5 53t-6 55.5q0 121 66.5 223t176.5 147q7 0 5 -6zM803 539 q0 -68 -52.5 -104t-113.5 -36h-23q-10 0 -20 11l6 6q90 18 130 59t50 131l6 2q10 -2 13.5 -17.5t3.5 -23.5v-28v0zM1253 530q0 -8 -6 -27.5t-14 -41t-16.5 -41t-12.5 -27.5q-41 -80 -100.5 -139t-132 -99t-155.5 -60.5t-169 -20.5q-123 0 -230.5 36.5t-187 105.5t-125 170 t-45.5 230q0 41 6.5 92.5t18.5 102.5t30.5 97t43.5 79h4v-8q-8 -31 -15 -53q-6 -20 -10 -39t-6 -23q-18 -102 -18 -198q0 -121 37.5 -217.5t106.5 -164t166 -103.5t216 -36q211 0 367.5 103.5t238.5 296.5l6 6q2 -7 2 -21z" />
<glyph unicode="&#xad;" horiz-adv-x="954" d="M680 496q-61 4 -130 19t-128 38q-4 2 -13.5 6t-9.5 10t9.5 9.5t13.5 3.5q29 6 75 5t74 -5q25 -4 68 -4t88 4t86 14t59 27q8 8 10.5 6t1.5 -6.5t-3 -10.5l-2 -6q-14 -29 -39 -50t-52.5 -34.5t-56 -20.5t-51.5 -5zM440 424q-55 4 -113.5 14.5t-105.5 18.5q-14 0 -14 8 q0 4 7 7t13 5q80 23 165 17.5t171 -15.5q55 -6 111.5 -11t116.5 17q6 2 7 -2t-3 -8q-25 -35 -72 -47t-100.5 -14t-103.5 3t-79 7zM109 479q-2 -4 -5.5 -2t0.5 8q27 68 65 112t81 68.5t90 33t94 6.5q63 -2 126 -12.5t121 -17.5t112.5 -6t101.5 23q2 0 6 -3t-6 -13 q-47 -47 -103.5 -58.5t-119 -6.5t-127 17.5t-127.5 14.5q-78 4 -163 -33t-146 -131zM188 487q-16 -14 -34.5 -30.5t-34.5 -38.5q-10 -6 -10 -2q0 12 2 14q0 2 2 4q8 33 22.5 53.5t44.5 44.5q12 8 29.5 17.5t34 14.5t29 5t14.5 -8t-14.5 -17t-22.5 -14q-35 -23 -62 -43z" />
<glyph unicode="&#xae;" horiz-adv-x="1458" d="M23 594q0 141 52 266t120 246q8 20 30 31v-9q-59 -119 -105 -242.5t-46 -258.5q0 -129 45 -236.5t124 -184.5t188.5 -119t238.5 -42q141 0 267 47t221 133t151.5 207t56.5 266q0 127 -48 249t-132 218.5t-198 154.5t-245 58q-111 0 -210 -41t-185 -106h-6q27 43 80 77.5 t115.5 59.5t126 38t110.5 13q141 0 262 -63.5t209 -167t138.5 -234.5t50.5 -264q0 -156 -60.5 -285t-164 -221t-239.5 -142t-288 -50q-135 0 -256 41t-210 117.5t-141 189.5t-52 254zM788 135q104 35 191.5 84t150 118t97.5 160t35 210q0 137 -48.5 248.5t-132.5 191.5 t-197.5 123t-246.5 43q-23 0 -58.5 -8.5t-50.5 -6.5l-6 5q57 25 107.5 39t115.5 14q129 0 238 -56.5t187.5 -148.5t121.5 -210t43 -241q0 -115 -42 -219t-116.5 -184t-177 -127t-223.5 -47zM184 670q0 16 11 30h2h2l4 -4q14 -207 135 -323.5t332 -116.5q61 0 136 11.5 t126 49.5v2q-14 2 -40 10.5t-50.5 19.5t-43 26.5t-18.5 34.5q0 8 11 8q6 0 27.5 -11.5t47 -26.5t49 -28.5t31.5 -19.5h4q16 0 35 14t31 25q80 66 121 156.5t41 195.5q0 147 -68 266t-172 217q78 -27 134 -90t92 -139t53.5 -151.5t17.5 -125.5q0 -117 -45 -212t-122 -163.5 t-178.5 -105.5t-213.5 -37q-111 0 -202 35t-155.5 98.5t-99.5 153.5t-35 201zM606 492q-2 -4 -9 -22.5t-11 -23.5l-8 -6q-6 0 -9.5 11.5t-4.5 23.5t-1 24.5v16.5q0 23 4 42.5t4 41.5q0 10 -17 28.5t-26 18.5l-22 -20l-6 8q-4 6 -4 13v14q0 66 17 135t17 149v31h-2l-14 -6 q-4 -53 -17.5 -100.5t-27.5 -93.5t-26.5 -92t-12.5 -93q0 -72 36 -132.5t85 -113.5h-6h-4q-80 47 -125 119t-45 166q0 18 9 60t21.5 87t25.5 87t22 61v2v4q-4 -4 -11.5 -7t-11.5 -7l-4 2q2 14 11 28.5t20 22.5q47 51 112.5 70.5t125 16.5t101.5 -27.5t42 -61.5 q0 -23 -19.5 -54.5t-45.5 -64.5t-53.5 -61.5t-41.5 -43.5q-20 -4 -35.5 -11t-34.5 -7v6q0 14 6 34.5t13.5 44.5t13.5 49.5t6 47.5q0 14 -3 28.5t-3 27.5h6q35 -29 41 -62t6 -76q8 8 21.5 24.5t25 36t17.5 37t4 29.5q-6 25 -25.5 37.5t-44 15.5t-51.5 -1.5t-47 -12.5 q10 -25 17 -50t7 -54q0 -47 -18 -92t-35 -86q16 4 33.5 8t36.5 4q45 0 71.5 -22.5t41 -57.5t18.5 -75t4 -72q0 -4 -3 -8.5t-7 -4.5q-12 0 -25.5 16.5t-24 38t-20.5 43t-16 31.5q-23 33 -44.5 49.5t-37 23.5t-25.5 9t-12 4q-23 -4 -37 -18q51 -2 81 -19.5t45 -46t23.5 -65.5 t18.5 -78q8 -29 30.5 -53.5t53.5 -44t62.5 -33.5t58.5 -23l6 -6h-12q-2 0 -20.5 4t-41 10.5t-42 11.5t-25.5 5q-35 8 -58.5 20.5t-39 30t-26 41t-22.5 58.5zM487 500v16l9 12q10 0 15 -12t7 -20q20 -41 46 -78t42 -78l-2 -4q-23 2 -43 20.5t-36.5 43t-27 51t-10.5 49.5z M688 745q10 10 22.5 11.5t22.5 7.5q16 10 33.5 22.5t32.5 24.5h6l8 -6q0 -18 -15.5 -34.5t-25.5 -29.5q4 -6 10 -11t13 -11h2h2q25 8 55.5 36.5t56 65.5t43 75t17.5 65q0 61 -29 106t-73 73.5t-99 43t-108 14.5q-96 0 -179 -45h-4l-2 2q12 29 38 47.5t58.5 29.5t65.5 16 t59 5q59 0 121 -18t112 -54t81.5 -87.5t31.5 -116.5q0 -55 -18 -98t-49 -79t-71 -63.5t-85 -48.5q47 -72 60.5 -140.5t13.5 -148.5l-8 -10q-16 6 -36 44t-37 84t-30.5 86t-15.5 50q-14 35 -37 50t-43 42zM115 705q0 39 14 105.5t36.5 136t51.5 129t57 85.5q4 -2 5 -14 q-25 -72 -46.5 -133.5t-38 -122t-26.5 -122.5t-10 -134q0 -43 5 -85t5 -85q-14 2 -24.5 33.5t-16.5 73.5t-9 80.5t-3 52.5zM887 926q2 45 -17.5 77.5t-53.5 53t-75 31t-79 10.5q-43 0 -86.5 -16.5t-79.5 -37.5q-14 -10 -38 -33.5t-40 -25.5q0 41 22.5 76t56 60.5t75.5 40 t79 14.5q39 0 87 -11.5t89 -35t69 -58.5t28 -84q0 -12 -7.5 -37.5t-23.5 -29.5z" />
<glyph unicode="&#xb4;" horiz-adv-x="501" d="M127 1178q12 4 10 -4.5t-6 -18.5q-10 -18 -16 -29.5t-10.5 -20.5t-8.5 -20.5t-10 -31.5q-4 -10 -7 -12.5t-5 -4.5q-6 -4 -9.5 6.5t-3.5 26.5q0 12 3.5 28.5t11.5 33t20.5 30t30.5 17.5zM51 1098q-6 -18 -8 -19q-4 0 -7 12.5t-3 22.5q0 78 17.5 122t47 68.5t66.5 37 t73.5 26.5t70.5 38t57 73q4 10 10 -2.5t10 -30.5q6 -37 -19.5 -65.5t-62.5 -50t-78 -37t-67 -27.5q-55 -27 -77 -71t-30 -97zM121 1079q0 20 47 45t107.5 54.5t118 66.5t77.5 82h4q8 0 9 -12t1 -17q0 -45 -39.5 -86t-97 -72.5t-118 -50t-101.5 -18.5q-8 0 -8 8zM197 1219 q4 14 37.5 32.5t73.5 43t72 60.5t32 85q0 6 1 6t11 -4q12 -10 15 -38t3 -44q0 -37 -22.5 -65.5t-57 -47t-75.5 -29t-76 -10.5q-4 0 -10 1.5t-4 9.5z" />
<glyph unicode="&#xb6;" horiz-adv-x="851" d="M494 154v46t6 48q0 4 1 15t3 23.5t5 21.5t7 9q10 0 11 -13t1 -17q4 -57 7.5 -113.5t9.5 -114.5q4 -33 10 -61.5t6 -60.5q-18 0 -31.5 22.5t-21.5 52t-11 59t-3 44.5v39zM401 336q0 147 32 291.5t73 283.5q35 125 77 248t83 246v4l-7 -4q-84 -55 -154.5 -128t-119.5 -159 t-74.5 -182t-21.5 -201q10 -27 22.5 -37t53.5 -10v-4q0 -6 -8.5 -11t-19.5 -8t-22.5 -4.5t-17.5 -1.5q-25 0 -39 13.5t-21.5 34t-8.5 42t-1 39.5q0 186 86 340t246 250q6 4 21.5 11.5t33 13.5t33 10t21.5 4l32 123l7 4h4q2 -10 3 -19t-1 -18q-2 -33 -4 -72.5t-11 -68.5 l-198 -760q-27 -98 -33 -194.5t-6 -196.5q0 -53 8 -109.5t18 -105.5q0 -4 7.5 -26.5t5.5 -24.5v-6q-4 2 -9.5 10t-10.5 18.5t-10 18.5t-7 10q-39 72 -50.5 163t-11.5 173zM567 137q0 6 -2 15.5t2 19.5q8 59 14.5 122.5t18.5 121.5q10 49 29.5 119.5t42 149.5t46 163 t42 160.5t31 142.5t12.5 106l8 11q12 -6 15 -36t2 -63.5t-5 -64.5t-6 -43q-6 -23 -21.5 -96.5t-37 -172t-48 -209t-52 -205.5t-48 -163t-39.5 -78h-4zM551 578q35 215 84 424.5t98 420.5q2 10 3 20.5t1 20.5l8 13h5l2 -4q18 -35 19 -70t1 -74q0 -41 -4 -105.5t-16 -117.5 q-31 -137 -76 -274.5t-98 -268.5q-4 -4 -11.5 -18.5t-11.5 -14.5l-4 7q0 8 -2 19.5t2 21.5zM23 848q0 158 65.5 286t181.5 232q29 27 65 46.5t75 19.5v-13q-141 -109 -229.5 -258t-88.5 -330q0 -90 18.5 -139t42 -74.5t45 -38t29.5 -26.5q-49 0 -87 30.5t-64.5 76 t-39.5 96.5t-13 92zM168 659q0 2 2 4.5t2 6.5q25 -10 48.5 -24.5t51.5 -14.5q39 0 66 16.5t61 20.5l9 -9q-23 -33 -59 -53t-75 -20q-14 0 -32.5 5t-35 14t-27.5 23.5t-11 30.5zM158 963q0 78 35.5 160.5t95 152.5t136.5 115t159 45l14 -4l-6 -9q-82 -43 -142.5 -92 t-107.5 -107.5t-86 -128t-76 -149.5l-12 -12q-8 4 -9 13.5t-1 15.5z" />
<glyph unicode="&#xb7;" horiz-adv-x="653" d="M458 473q-10 0 -31.5 3t-21.5 20q0 6 18.5 15t41 25.5t41 44t18.5 70.5q0 53 -21 80q-4 6 -10 13.5t-4 9.5q4 0 9 -3.5t7 -5.5q41 -23 62.5 -58.5t21.5 -68.5q0 -66 -30.5 -105.5t-100.5 -39.5zM383 553q-25 -10 -25 12q0 16 12.5 31.5t23.5 34t15 42t-12 58.5 q-4 10 -14.5 22.5t-6.5 14.5t17.5 -3t17.5 -7q35 -16 52.5 -49t17.5 -58q0 -39 -31.5 -64.5t-66.5 -33.5zM323 664q0 10 6.5 23t20.5 13q10 0 16 -13t6 -23q0 -8 -6 -21.5t-16 -13.5q-14 0 -20.5 12.5t-6.5 22.5z" />
<glyph unicode="&#xb8;" horiz-adv-x="612" d="M127 -453l2 2q63 2 130 15.5t121 44.5t88 81t34 128q0 90 -53.5 133t-139.5 43q-14 0 -25.5 -17.5t-35.5 -17.5q-23 0 -23 18q0 12 10.5 18.5t20.5 14.5t18.5 22.5t6.5 43.5l-2 20q8 -2 19 -15t20.5 -27.5t16.5 -27t11 -12.5q8 0 17.5 3t17.5 3q43 0 78 -19t59.5 -51 t37.5 -72t13 -79q0 -68 -26.5 -122t-70.5 -93t-102.5 -60.5t-121.5 -21.5q-8 0 -27.5 3t-40 9.5t-37 14.5t-16.5 18zM203 -375q14 0 22 -8q-4 -12 -33.5 -23.5t-67.5 -20.5t-73 -17.5t-49 -10.5q39 43 92.5 61.5t108.5 18.5zM31 -393q12 6 46 29.5t75 52t79.5 58.5t59.5 48 q16 14 11 18.5t-21 0.5q-8 -6 -17.5 -15.5t-21.5 -9.5q0 31 23.5 54.5t58.5 23.5q43 0 43 -47q0 -51 -39 -83t-80 -48l-223 -95zM168 -14q0 -29 18.5 -57.5t40.5 -47.5q8 29 49 50.5t85.5 21.5t80 -29.5t35.5 -103.5q0 -27 -11 -57.5t-30.5 -57.5t-46.5 -44t-55 -17l-15 4 q0 8 12.5 23.5t28 35t27.5 44t12 52.5q0 35 -20.5 59.5t-54.5 24.5q-51 0 -67.5 -16t-27.5 -27q-12 14 -32.5 35t-40 44.5t-33.5 46t-14 40.5q0 29 18 41t40.5 21.5t41 24t18.5 46.5q16 -10 29.5 -32.5t13.5 -34.5q0 -20 -16 -28.5t-34.5 -14.5t-35 -15t-16.5 -32z" />
<glyph unicode="&#xbf;" horiz-adv-x="675" d="M137 303q6 80 46 138.5t77 103.5q4 4 17.5 17t17.5 9q6 -2 -2 -17t-12 -24q-37 -59 -58.5 -129.5t-13.5 -132t53 -104.5t144 -49q51 -4 94 13t72.5 43t43 52.5t7.5 44.5q-4 12 -3 15.5t4 1.5t7 -7.5t6 -9.5q8 -16 8 -38.5t-8 -49t-26.5 -52.5t-47.5 -46 q-66 -47 -143.5 -47t-142 33.5t-105.5 95t-35 139.5zM129 592q70 96 147.5 180t116.5 152q4 8 8.5 15t8.5 3q6 -2 3 -11t-7 -20q-18 -72 -61.5 -141.5t-94.5 -140.5q-25 -33 -52.5 -71t-50 -82t-35 -97t-6.5 -115q8 -82 59.5 -142.5t122 -91t152.5 -26.5t152 49q12 10 14 8 q4 -8 -6 -18q-23 -31 -77 -54.5t-122.5 -25.5t-144.5 25.5t-139 95.5q-33 35 -51.5 76t-25.5 84t-6 84t7 75q23 66 47.5 111t40.5 78zM416 1040q-10 -4 -12.5 -2t-0.5 4l7 7q39 16 80.5 -1.5t62.5 -70.5q18 -53 15 -108.5t-19 -104.5q-14 -49 -35.5 -93t-46.5 -85t-49.5 -78 t-44.5 -70q-53 -86 -60.5 -135t62.5 -90q39 -16 75.5 -12t65.5 20.5t44 43t9 59.5q-2 12 4.5 6t10.5 -11q23 -37 7 -75.5t-53.5 -66t-90 -36t-103.5 18.5q-53 27 -74.5 65.5t-18.5 82.5t25.5 92.5t57.5 95.5q47 61 87 136t75 159q16 39 19 87t-7 88t-33.5 62t-58.5 12z M440 961q-10 31 -26.5 37t-28.5 6q-10 0 -13 4t9 8q8 2 22.5 6t30 1t29.5 -14.5t24 -39.5q8 -25 1 -62t-20 -70.5t-27.5 -57t-22.5 -19.5q-4 2 -2 12t6 24.5t8 28t4 19.5q6 37 10 61.5t-4 55.5zM463 1446q45 10 90 -3t55 -34q4 -6 -1 -14.5t-15 -8.5q-18 0 -30.5 2.5 t-25 3.5t-27.5 -1t-38 -11q-23 -8 -48.5 -34.5t-35.5 -69.5q0 -6 -8 -6t-12 6q-14 37 -9.5 65.5t21 50t39 36t45.5 18.5zM461 1333q25 18 49.5 15.5t46.5 -15.5q10 0 18 -14q2 -4 -1 -9t-7 -7q-10 -6 -21 -8.5t-22 -12.5q-16 -10 -25.5 -25.5t-16.5 -27.5t-13 -20.5 t-14 -4.5q-20 6 -26.5 22.5t-3.5 37t13.5 40t22.5 29.5zM549 1221q-10 -10 -22.5 -14.5t-16.5 -0.5q-6 6 -2 19.5t14 23.5q8 8 18.5 11.5t16.5 -0.5q4 -4 3 -16.5t-11 -22.5z" />
<glyph unicode="&#xc0;" horiz-adv-x="1269" d="M852 1659q18 -4 30.5 -17.5t20.5 -30t11.5 -33t3.5 -28.5q0 -16 -3.5 -26.5t-9.5 -6.5q-2 2 -6 4t-8 13q-4 20 -8 31.5t-9.5 20.5t-11.5 20.5t-14 29.5q-4 10 -6 18.5t10 4.5zM928 1579q-8 53 -29.5 97t-77.5 71q-27 12 -67.5 27.5t-77.5 37t-62.5 50t-19.5 65.5 q4 18 10 30.5t10 2.5q23 -49 57 -73t70.5 -38t73.5 -26.5t65.5 -37t46 -68.5t17.5 -122q0 -10 -2 -22.5t-6 -12.5q-2 1 -8 19zM858 1560q0 -8 -8 -8q-41 0 -102.5 18.5t-118 50t-96 72.5t-39.5 86q0 4 1 16.5t9 12.5h4q20 -45 77.5 -82t118 -66.5t107.5 -54.5t47 -45z M782 1700q2 -8 -4 -9.5t-10 -1.5q-35 0 -76 10.5t-75.5 29t-58 47t-23.5 65.5q0 16 4 44t16 38q10 4 11 4t1 -6q0 -49 32 -85t72 -60.5t73.5 -43t37.5 -32.5zM711 1466q-4 6 -11.5 19.5t-3.5 17.5t13.5 -2t11.5 -8q37 -27 68.5 -74t57 -103t46 -117.5t33.5 -117.5 q31 -135 52 -266t21 -270q0 -4 1 -24.5t-7 -24.5q-6 4 -13 20t-9 23q-25 76 -44.5 173t-35.5 177q-12 61 -22.5 117.5t-24 109.5t-30.5 107.5t-42 113.5q-4 8 -13 28.5t-19.5 41t-18.5 38t-10 21.5zM1202 -51q-23 12 -31 15t-30 18q-49 29 -90 74.5t-74 101t-58.5 118 t-44.5 123.5q-41 -27 -97 -32t-103 -5q-59 0 -117.5 4.5t-118.5 4.5q-57 -106 -107 -205.5t-79 -185.5q0 -2 -2 -9.5t-6 -7.5q-6 0 -6 14.5v18.5q0 82 39.5 183.5t89.5 199.5l-31 2q-12 -29 -33.5 -80t-41 -106.5t-35 -106.5t-15.5 -82q0 -6 -6 -6q-8 0 -12.5 13.5 t-7.5 29.5t-4 33.5t-1 23.5q0 72 18.5 151t49.5 144l-27 4q-18 -45 -34.5 -89t-28.5 -91q0 -4 -2 -10t-6 -4q-4 8 -5.5 19.5t-1.5 19.5q0 86 31 166q10 20 21 20q43 12 87 14t91 2q102 0 202.5 -15t200.5 -15q49 0 90 8l-4 33q-23 -6 -48.5 -8.5t-47.5 -2.5q-80 0 -165 16.5 t-163 39.5q-4 4 -16 7t-12 9q0 4 12 7t16 3q29 2 56.5 3t56.5 1q47 0 94 -1t96 -1h51.5t51.5 2l-4 23h-27q-98 0 -195.5 18.5t-195.5 18.5q-84 0 -148.5 -20.5t-110.5 -47t-75 -53.5t-41 -39l-4 -2q-2 0 -2 4q0 2 2 4q37 72 90 120t131 73q78 166 161 329.5t175 323.5 q2 4 8 13.5t13 9.5q2 -2 2 -4v-5q0 -16 -2 -24q-39 -166 -115 -319.5t-156 -303.5l39 2q6 12 31.5 53.5t55.5 85.5t54.5 79.5t30.5 35.5l2 -6q0 -10 -12 -45t-28.5 -76t-32 -76.5t-21.5 -50.5q12 0 24.5 -1t24.5 -1q37 74 79 155t72.5 165t42 170t-13.5 170q0 -10 -5 -41 t-13 -65t-16.5 -59.5t-16.5 -25.5q-6 0 -5 8.5t1 10.5q0 53 7 105t7 106q0 72 -22 139q0 2 -6 17.5t4 15.5q4 0 14 -11q20 -20 40 -55t36 -75t30.5 -78.5t22.5 -65.5q27 -88 44.5 -177t30.5 -178t27.5 -179.5t32.5 -178.5q18 -86 44 -168t63 -155.5t85 -136t111 -109.5 q10 -10 7 -13t-19 7zM1198 123q2 -12 -2 -11t-9 7t-10.5 14t-5.5 10q-49 90 -77.5 183.5t-45 188.5t-27.5 192.5t-26.5 199t-40 206t-69.5 212.5q-2 4 -6.5 14.5t0.5 12.5q4 0 10 -6l8 -9q45 -53 80 -141t61.5 -188.5t44 -198.5t27.5 -172q16 -117 34.5 -246t47.5 -244z M590 643q59 -6 117.5 -14t117.5 -13q-23 109 -39 215.5t-30 217.5q-27 -106 -73 -207t-93 -199zM1264 -29q-41 18 -72 36t-53 48q-35 47 -54.5 94.5t-31.5 88.5q-4 16 -7.5 36.5t1.5 20.5q8 0 20 -26.5t23 -45.5q31 -63 77.5 -127.5t102.5 -105.5q16 -14 10 -18.5t-16 -0.5z M53 365h-4h-2q0 6 2 12l4 12q16 35 31.5 52.5t50.5 37.5q20 12 57 24.5t60 12.5q4 0 11 -1t7 -7t-21.5 -16.5t-27.5 -14.5q-78 -47 -115 -71.5t-53 -40.5z" />
<glyph unicode="&#xc1;" horiz-adv-x="1269" d="M629 1665q12 4 10 -4.5t-6 -18.5q-10 -18 -16 -29.5t-10.5 -20.5t-8.5 -20.5t-10 -31.5q-4 -10 -7 -12.5t-5 -4.5q-6 -4 -9.5 6.5t-3.5 26.5q0 12 3.5 28.5t11.5 33t20.5 30t30.5 17.5zM553 1585q-6 -18 -8 -19q-4 0 -7 12.5t-3 22.5q0 78 17.5 122t47 68.5t66.5 37 t73.5 26.5t70.5 38t57 73q4 10 10 -2.5t10 -30.5q6 -37 -19.5 -65.5t-62.5 -50t-78 -37t-67 -27.5q-55 -27 -77 -71t-30 -97zM623 1566q0 20 47 45t107.5 54.5t118 66.5t77.5 82h4q8 0 9 -12t1 -17q0 -45 -39.5 -86t-97 -72.5t-118 -50t-101.5 -18.5q-8 0 -8 8zM699 1706 q4 14 37.5 32.5t73.5 43t72 60.5t32 85q0 6 1 6t11 -4q12 -10 15 -38t3 -44q0 -37 -22.5 -65.5t-57 -47t-75.5 -29t-76 -10.5q-4 0 -10 1.5t-4 9.5zM711 1466q-4 6 -11.5 19.5t-3.5 17.5t13.5 -2t11.5 -8q37 -27 68.5 -74t57 -103t46 -117.5t33.5 -117.5q31 -135 52 -266 t21 -270q0 -4 1 -24.5t-7 -24.5q-6 4 -13 20t-9 23q-25 76 -44.5 173t-35.5 177q-12 61 -22.5 117.5t-24 109.5t-30.5 107.5t-42 113.5q-4 8 -13 28.5t-19.5 41t-18.5 38t-10 21.5zM1202 -51q-23 12 -31 15t-30 18q-49 29 -90 74.5t-74 101t-58.5 118t-44.5 123.5 q-41 -27 -97 -32t-103 -5q-59 0 -117.5 4.5t-118.5 4.5q-57 -106 -107 -205.5t-79 -185.5q0 -2 -2 -9.5t-6 -7.5q-6 0 -6 14.5v18.5q0 82 39.5 183.5t89.5 199.5l-31 2q-12 -29 -33.5 -80t-41 -106.5t-35 -106.5t-15.5 -82q0 -6 -6 -6q-8 0 -12.5 13.5t-7.5 29.5t-4 33.5 t-1 23.5q0 72 18.5 151t49.5 144l-27 4q-18 -45 -34.5 -89t-28.5 -91q0 -4 -2 -10t-6 -4q-4 8 -5.5 19.5t-1.5 19.5q0 86 31 166q10 20 21 20q43 12 87 14t91 2q102 0 202.5 -15t200.5 -15q49 0 90 8l-4 33q-23 -6 -48.5 -8.5t-47.5 -2.5q-80 0 -165 16.5t-163 39.5 q-4 4 -16 7t-12 9q0 4 12 7t16 3q29 2 56.5 3t56.5 1q47 0 94 -1t96 -1h51.5t51.5 2l-4 23h-27q-98 0 -195.5 18.5t-195.5 18.5q-84 0 -148.5 -20.5t-110.5 -47t-75 -53.5t-41 -39l-4 -2q-2 0 -2 4q0 2 2 4q37 72 90 120t131 73q78 166 161 329.5t175 323.5q2 4 8 13.5 t13 9.5q2 -2 2 -4v-5q0 -16 -2 -24q-39 -166 -115 -319.5t-156 -303.5l39 2q6 12 31.5 53.5t55.5 85.5t54.5 79.5t30.5 35.5l2 -6q0 -10 -12 -45t-28.5 -76t-32 -76.5t-21.5 -50.5q12 0 24.5 -1t24.5 -1q37 74 79 155t72.5 165t42 170t-13.5 170q0 -10 -5 -41t-13 -65 t-16.5 -59.5t-16.5 -25.5q-6 0 -5 8.5t1 10.5q0 53 7 105t7 106q0 72 -22 139q0 2 -6 17.5t4 15.5q4 0 14 -11q20 -20 40 -55t36 -75t30.5 -78.5t22.5 -65.5q27 -88 44.5 -177t30.5 -178t27.5 -179.5t32.5 -178.5q18 -86 44 -168t63 -155.5t85 -136t111 -109.5q10 -10 7 -13 t-19 7zM1198 123q2 -12 -2 -11t-9 7t-10.5 14t-5.5 10q-49 90 -77.5 183.5t-45 188.5t-27.5 192.5t-26.5 199t-40 206t-69.5 212.5q-2 4 -6.5 14.5t0.5 12.5q4 0 10 -6l8 -9q45 -53 80 -141t61.5 -188.5t44 -198.5t27.5 -172q16 -117 34.5 -246t47.5 -244zM590 643 q59 -6 117.5 -14t117.5 -13q-23 109 -39 215.5t-30 217.5q-27 -106 -73 -207t-93 -199zM1264 -29q-41 18 -72 36t-53 48q-35 47 -54.5 94.5t-31.5 88.5q-4 16 -7.5 36.5t1.5 20.5q8 0 20 -26.5t23 -45.5q31 -63 77.5 -127.5t102.5 -105.5q16 -14 10 -18.5t-16 -0.5zM53 365 h-4h-2q0 6 2 12l4 12q16 35 31.5 52.5t50.5 37.5q20 12 57 24.5t60 12.5q4 0 11 -1t7 -7t-21.5 -16.5t-27.5 -14.5q-78 -47 -115 -71.5t-53 -40.5z" />
</font>
</defs>
</svg>
